<?xml version="1.0" encoding="UTF-8"?>
<!DOCTYPE svg PUBLIC "-//W3C//DTD SVG 1.1//EN" "http://www.w3.org/Graphics/SVG/1.1/DTD/svg11.dtd">
<!-- Creator: CorelDRAW -->
<svg xmlns="http://www.w3.org/2000/svg" xml:space="preserve" width="1413px" height="1600px" version="1.1" shape-rendering="geometricPrecision" text-rendering="geometricPrecision" image-rendering="optimizeQuality" fill-rule="evenodd" clip-rule="evenodd"
viewBox="0 0 79.09 89.56"
 xmlns:xlink="http://www.w3.org/1999/xlink"
 xmlns:xodm="http://www.corel.com/coreldraw/odm/2003">
 <g id="Слой_x0020_1">
  <metadata id="CorelCorpID_0Corel-Layer"/>
  <g id="_2744825869664">
   <path fill="black" d="M69.81 76.44l-5.61 0.01c-1.15,0 -0.79,0.09 -1.45,-0.47 -3.45,-2.93 -7.76,-2.85 -11.3,-0.06 -1,0.79 -1.45,0.52 -3.33,0.52 -1.28,0 -2.56,0 -3.85,0 -0.11,-1.36 -1.29,-3.75 -1.4,-5.07l28.52 0 -1.58 5.07zm-21.86 -73.82l18.19 0c3.86,0 4.32,2.36 5.36,5.49 5.05,15.29 6.09,31.49 3.44,47.39 -0.3,1.77 -2.11,11.52 -2.85,13.07l-29.57 0c0.9,-1.88 1.58,-14.83 1.58,-17.49l-0.8 -12.5 -1.34 -8.63c-0.67,-3.53 -2.92,-1.61 -2.85,-0.44 0.03,0.62 0.35,1.94 0.49,2.63 0.33,1.71 0.62,3.73 0.84,5.63 1.75,15.25 1.02,28.66 -3.84,43.24 -0.24,0.73 -0.46,1.41 -0.72,2.08 -0.76,1.9 -1.13,3.85 -4.73,3.85l-18.19 0c-2.8,0 -3.87,-1.2 -4.57,-3.3 -0.23,-0.71 -0.48,-1.25 -0.74,-2.06 -0.89,-2.69 -1.82,-5.53 -2.43,-8.42 -2.99,-14.27 -3.18,-24.39 -1.06,-39.1 0.33,-2.28 0.77,-4.6 1.25,-6.63 0.27,-1.16 0.48,-2.12 0.77,-3.26 0.17,-0.71 0.55,-2.59 0.83,-3.18l30.09 0c0.43,1.85 0.72,4.37 2.1,4.37 2.46,0 1,-3.26 0.7,-4.37 -0.44,-1.6 -0.33,-1.47 0.01,-3.14 0.54,-2.62 3.06,-12.79 4.93,-14.31 0.77,-0.61 1.79,-0.92 3.11,-0.92zm-38.66 10.5l5.61 -0.01c1.15,0 0.79,-0.09 1.45,0.47 3.45,2.93 7.76,2.85 11.3,0.06 1,-0.79 1.45,-0.52 3.33,-0.52 1.28,0 2.56,0 3.85,0l1.57 5.25c-4.78,0 -9.56,0 -14.34,0 -4.92,0 -9.35,-0.18 -14.35,-0.18 0.36,-0.73 0.52,-1.63 0.81,-2.51 0.25,-0.76 0.71,-1.82 0.77,-2.56zm28.51 0.87c-0.06,-0.69 -1.61,-5.28 -1.92,-5.95 -0.82,-1.77 -2.48,-2.97 -5.08,-2.97l-8.22 0c-0.97,0 -1.92,0.52 -1.92,1.4 0,1.53 1.27,1.41 2.8,1.4 1.4,0 2.8,0 4.2,0 3.63,0 5.39,-0.66 6.12,2.45 -1.55,0 -5.76,-0.3 -6.75,0.25 0,0 -3.93,4.3 -8.12,1.5 -0.37,-0.24 -0.67,-0.42 -1.01,-0.74 -0.34,-0.33 -0.5,-0.57 -0.96,-0.79 -1.07,-0.53 -5.03,-0.22 -6.6,-0.22 0.66,-2.84 1.77,-2.47 5.07,-2.45 1.39,0.01 2.31,0.07 2.67,-1.02 0.73,-2.22 -3.11,-1.78 -4.59,-1.78 -5.21,0 -5.53,3.53 -6.89,7.63l-1.72 5.63c-0.48,1.88 -1.12,3.85 -1.52,5.82 -3.18,15.4 -4.19,22.98 -2.66,38.84 0.7,7.22 2.4,13.51 4.63,20.21 0.84,2.53 1.51,4.37 3.84,5.61 0.57,0.31 1.6,0.75 2.39,0.75l20.64 0c5.24,0 6.36,-5.77 7.64,-9.68l0.93 -3.27c0.16,-0.65 0.08,-0.72 0.53,-1.04 0.06,0.69 1.61,5.28 1.92,5.95 0.82,1.77 2.48,2.97 5.08,2.97l8.22 0c0.98,0 1.92,-0.52 1.92,-1.4 0,-1.53 -1.27,-1.41 -2.8,-1.4 -1.39,0.01 -2.8,0 -4.19,0 -3.64,0 -5.4,0.67 -6.13,-2.45 1.55,0 5.76,0.31 6.75,-0.25 0.23,-0.13 3.65,-4.21 8.14,-1.51 3.44,2.07 -0.83,1.76 8.55,1.76 -0.66,2.84 -1.77,2.47 -5.07,2.45 -3.68,-0.03 -2.81,1.85 -2.33,2.33 0.7,0.7 2.92,0.47 4.25,0.47 5.21,0 5.55,-3.52 6.94,-7.76 1.24,-3.8 2.24,-7.5 3.21,-11.48 4.14,-17.02 4.43,-32.22 0.83,-49.29 -0.56,-2.66 -3.03,-11.93 -4.89,-13.82 -0.98,-0.99 -2.61,-2.14 -4.16,-2.14l-20.64 0c-1.63,0 -3.21,0.87 -4.07,1.7 -2.02,1.94 -3.36,7.25 -4.22,10.13 -0.34,1.14 -0.22,1.73 -0.81,2.16z"/>
   <path fill="black" d="M10.34 44.26c0.73,0.17 1.44,0.48 2.2,0.77 2.26,0.87 4.06,1.34 5.87,3.57 2.64,3.25 2.25,6.25 2.25,10.35 -2.58,-0.6 -6.34,-2.2 -8.08,-4.35 -2.71,-3.34 -2.24,-6.1 -2.24,-10.34zm13.12 14.69c0,-3.86 -0.55,-7.08 2.15,-10.27 1.02,-1.22 2.04,-2.01 3.56,-2.74l4.61 -1.68c0,5.19 0.16,7.08 -2.2,10.22 -1.51,2.01 -3.48,2.88 -5.78,3.66 -0.88,0.29 -1.44,0.6 -2.34,0.81zm-15.92 -16.44c0,6.55 -0.61,10.68 4.41,15.35 1.17,1.09 2.93,1.95 4.62,2.55 5.22,1.86 4.58,2.42 7.89,1.11 4.31,-1.7 7.44,-2.11 10.3,-6.84 2.24,-3.71 1.64,-7.99 1.64,-12.7 0,-0.42 -0.63,-1.05 -1.05,-1.05 -0.81,0 -3.21,0.95 -4.12,1.3 -1.43,0.55 -2.55,0.9 -3.87,1.56 -3.54,1.77 -4.82,4.88 -5.48,5.36 -0.41,-1.77 -3.32,-4.39 -5.13,-5.36 -0.79,-0.43 -7.16,-2.86 -7.81,-2.86 -0.9,0 -1.4,0.73 -1.4,1.58z"/>
   <path fill="black" d="M57.04 45.83c-3.42,0 -6.29,-3.12 -6.29,-5.6 0,-3.95 0.48,-4.77 2.44,-8.39 0.54,-1 1.14,-1.88 1.75,-2.8 0.49,-0.74 1.79,-2.3 1.93,-2.8 0.98,0.26 3.62,4.83 4.12,5.67 0.98,1.64 2.53,4.99 2.53,7.45 0,3.53 -2.94,6.47 -6.48,6.47zm-9.09 -7c0,4.01 1.66,6.85 4.84,8.63 4.07,2.29 10.02,0.83 12.42,-3.96 2.91,-5.81 -1.45,-12.97 -4.74,-17.36 -3.09,-4.11 -4.05,-3.67 -6.68,-0.18 -0.92,1.23 -1.75,2.47 -2.53,3.77 -1.21,2.02 -3.31,5.95 -3.31,9.1z"/>
  </g>
 </g>
</svg>
