<?xml version="1.0" encoding="UTF-8"?>
<!DOCTYPE svg PUBLIC "-//W3C//DTD SVG 1.1//EN" "http://www.w3.org/Graphics/SVG/1.1/DTD/svg11.dtd">
<!-- Creator: CorelDRAW -->
<svg xmlns="http://www.w3.org/2000/svg" xml:space="preserve" width="207px" height="259px" version="1.1" shape-rendering="geometricPrecision" text-rendering="geometricPrecision" image-rendering="optimizeQuality" fill-rule="evenodd" clip-rule="evenodd"
viewBox="0 0 1.22 1.54"
 xmlns:xlink="http://www.w3.org/1999/xlink"
 xmlns:xodm="http://www.corel.com/coreldraw/odm/2003">
 <g id="Слой_x0020_1">
  <metadata id="CorelCorpID_0Corel-Layer"/>
  <g id="_2780649537072">
   <g>
    <path fill="black" fill-rule="nonzero" d="M0 0l0 1.54 1.22 0 0 -1.54 -1.22 0zm1.17 1.48l-1.11 0 0 -1.42 1.11 0 0 1.42z"/>
    <path fill="black" fill-rule="nonzero" d="M0.79 0.98c0.02,-0.03 0.04,-0.08 0.04,-0.12 0,-0.12 -0.1,-0.22 -0.22,-0.22 -0.12,0 -0.22,0.1 -0.22,0.22 0,0.04 0.02,0.09 0.05,0.12l-0.15 0.2c0,0.01 0,0.03 0,0.03 0.01,0.01 0.02,0.02 0.03,0.02l0.11 -0.03 0.02 0.1c0,0.02 0.01,0.02 0.02,0.03 0,0 0.01,0 0.01,0 0.01,0 0.02,-0.01 0.02,-0.02l0.11 -0.21 0.11 0.21c0.01,0.01 0.02,0.02 0.03,0.02 0,0 0,0 0,0 0.01,-0.01 0.02,-0.01 0.02,-0.03l0.02 -0.1 0.11 0.03c0.01,0 0.02,-0.01 0.03,-0.02 0.01,0 0.01,-0.02 0,-0.03l-0.14 -0.2zm-0.18 -0.29c0.09,0 0.16,0.08 0.16,0.17 0,0.08 -0.07,0.16 -0.16,0.16 -0.09,0 -0.16,-0.08 -0.16,-0.16 0,-0.09 0.07,-0.17 0.16,-0.17zm-0.12 0.53l-0.01 -0.06c0,0 -0.01,-0.01 -0.01,-0.01 -0.01,-0.01 -0.02,-0.01 -0.02,-0.01l-0.07 0.02 0.09 -0.14c0.03,0.03 0.06,0.04 0.1,0.05l-0.08 0.15zm0.29 -0.08c-0.01,0 -0.02,0 -0.02,0.01 -0.01,0 -0.01,0.01 -0.02,0.01l-0.01 0.06 -0.07 -0.15c0.03,-0.01 0.06,-0.02 0.09,-0.05l0.09 0.14 -0.06 -0.02z"/>
    <path fill="black" fill-rule="nonzero" d="M0.28 0.41l0.65 0c0.02,0 0.03,-0.01 0.03,-0.03 0,-0.01 -0.01,-0.03 -0.03,-0.03l-0.65 0c-0.01,0 -0.03,0.02 -0.03,0.03 0,0.02 0.02,0.03 0.03,0.03z"/>
   </g>
  </g>
 </g>
</svg>
