<?xml version="1.0" encoding="UTF-8"?>
<!DOCTYPE svg PUBLIC "-//W3C//DTD SVG 1.1//EN" "http://www.w3.org/Graphics/SVG/1.1/DTD/svg11.dtd">
<!-- Creator: CorelDRAW -->
<svg xmlns="http://www.w3.org/2000/svg" xml:space="preserve" width="1600px" height="1600px" version="1.1" shape-rendering="geometricPrecision" text-rendering="geometricPrecision" image-rendering="optimizeQuality" fill-rule="evenodd" clip-rule="evenodd"
viewBox="0 0 61.74 61.74"
 xmlns:xlink="http://www.w3.org/1999/xlink"
 xmlns:xodm="http://www.corel.com/coreldraw/odm/2003">
 <g id="Слой_x0020_1">
  <metadata id="CorelCorpID_0Corel-Layer"/>
  <path fill="black" d="M45.19 39.76c0.38,0.69 2.06,2.25 2.58,2.91 0.22,0.27 0.23,0.33 0.49,0.59 1.15,1.16 2.46,2.86 3.56,4.04 1.58,1.69 5.73,7.16 6.95,9.34 0.33,0.59 1.37,2.5 1.04,3.17 -1.12,0.52 -4.87,-2.12 -5.74,-2.7 -0.48,-0.32 -0.82,-0.61 -1.25,-0.91l-10.65 -8.9c-0.2,-0.2 -0.33,-0.36 -0.54,-0.54 -0.58,-0.51 -1.49,-1.45 -1.84,-1.54l5.4 -5.46zm16.55 19.78l0 0.47c-0.08,1.03 -0.75,1.73 -2.41,1.73 -3.08,0 -10.2,-5.85 -12.87,-8.23l-1.57 -1.33c-1.29,-1.25 -2.77,-2.27 -4.04,-3.55 -1.32,-1.33 -3.55,-3.17 -4.64,-4.28l-6.82 -6.58c-0.59,-0.59 -3.18,-3.43 -3.82,-3.65 -0.33,-0.11 -0.76,-0.18 -1.18,-0.27l-17.35 -3.51c-1.45,-0.29 -3.76,-0.59 -4.8,-1.22 -1.13,-0.68 -2.24,-1.96 -2.24,-3.68 0,-3.16 0.53,-5.95 1.4,-8.6 1.36,-4.11 3.95,-7.54 7.01,-10.48 0.72,-0.69 4.42,-3.47 5.34,-3.47 0.11,0 1.98,0.77 -0.22,2.08 -1.32,0.78 -2.69,1.65 -3.79,2.72 -1.45,1.38 -3.01,2.83 -3.95,4.61l6.84 4.26c1.27,0.74 0.82,1.9 -0.11,1.94 -0.65,0.03 -2.73,-1.52 -3.41,-1.93 -0.77,-0.47 -1.52,-0.9 -2.24,-1.38l-2.17 -1.32c-0.18,0.78 -0.65,1.44 -0.97,2.16 -0.3,0.69 -0.61,1.51 -0.85,2.28 -0.37,1.21 -0.95,3.67 -0.95,5.2 0.86,0.02 6.18,1.23 7.55,1.5 0.85,0.17 1.73,0.19 1.73,1.16 0,0.4 -0.35,0.8 -0.78,0.89 -0.28,0.06 -0.83,-0.09 -1.15,-0.16l-5.01 -1.02c-0.72,-0.15 -1.75,-0.44 -2.46,-0.44 0.21,0.45 0.26,0.93 0.58,1.35 0.26,0.35 0.62,0.69 1.07,0.86 0.95,0.37 2.12,0.49 3.16,0.7 2.12,0.43 4.35,0.87 6.43,1.28 1.44,0.29 11.71,2.57 12.88,2.57 0.1,0 6.27,-6.17 6.27,-6.27 0,-0.7 -0.27,-1.65 -0.41,-2.36l-1.37 -6.72c-0.61,-3.06 -1.23,-6.01 -1.83,-9.02 -0.43,-2.17 -0.55,-5.17 -2.4,-5.8 -1.2,-0.41 -3.61,-0.07 -4.85,0.14 -0.74,0.12 -1.54,0.28 -2.18,0.47 -0.73,0.21 -1.32,0.39 -2.02,0.63 -0.67,0.24 -1.58,0.23 -1.58,-0.74 0,-0.92 0.88,-1 1.64,-1.25 0.76,-0.25 1.3,-0.44 2.15,-0.63 1.51,-0.33 3.12,-0.65 4.89,-0.65 2.08,0 3.61,0.17 4.85,2.14 0.6,0.96 0.89,3.13 1.15,4.4l3.72 18.23c0.29,1.54 0.86,1.67 2.37,3.18 0.56,0.56 2.5,2.18 2.5,2.92 0,0.58 -0.38,0.97 -0.96,0.97 -0.75,0 -3.75,-3.66 -4.62,-4.25l-5.64 5.69c0.78,1.16 2.9,2.95 4.01,4.07 0.5,0.5 0.9,0.77 1.39,1.27 0.86,0.86 1.77,1.87 2.66,2.65 0.92,0.81 1.78,1.82 2.8,2.5 0.31,-0.21 5.16,-4.87 5.3,-5.42l-2.68 -2.87c-0.38,-0.37 -1.09,-1 -1.37,-1.4 -0.44,-0.61 -0.23,-1.52 0.68,-1.52 0.67,0 1.31,0.89 1.72,1.3 0.55,0.54 0.89,1.01 1.44,1.56 1.67,1.67 3.7,4.09 5.13,5.49l8.92 10.61c0.68,0.93 3.95,5.3 4.13,8.02z"/>
 </g>
</svg>
