<?xml version="1.0" encoding="UTF-8"?>
<!DOCTYPE svg PUBLIC "-//W3C//DTD SVG 1.1//EN" "http://www.w3.org/Graphics/SVG/1.1/DTD/svg11.dtd">
<!-- Creator: CorelDRAW -->
<svg xmlns="http://www.w3.org/2000/svg" xml:space="preserve" width="1600px" height="1600px" version="1.1" shape-rendering="geometricPrecision" text-rendering="geometricPrecision" image-rendering="optimizeQuality" fill-rule="evenodd" clip-rule="evenodd"
viewBox="0 0 211.26 211.26"
 xmlns:xlink="http://www.w3.org/1999/xlink"
 xmlns:xodm="http://www.corel.com/coreldraw/odm/2003">
 <g id="Слой_x0020_1">
  <metadata id="CorelCorpID_0Corel-Layer"/>
  <g id="_2780198541504">
   <path fill="black" d="M95.73 167.52c1.41,0.04 3.44,0.3 5.33,0.44 11.07,0.84 9.33,-0.44 16.12,-0.44 -4.51,8.54 -16.88,8.65 -21.45,0zm7.4 -167.52l7.34 0c5.34,0.23 10.6,0.96 15.63,2.23 2.98,0.74 5.11,1.42 7.64,2.26 7.52,2.49 6.53,3.51 9,1.26 0.59,-0.55 0.69,-0.62 1.32,-1.16 3.04,-2.57 6.43,-4.2 9.84,-4.59l3.09 0c2.61,0.3 5.17,1.39 7.53,3.41 1.75,1.49 3.37,4.9 4.31,7.25 5.69,14.28 3.13,5.95 9.34,11.29 5.94,5.11 2.99,7.18 6.19,8.67 5.38,2.51 12.37,3.96 15.36,8.15 3.26,4.58 3.71,9.55 1.36,15 -1.3,3.02 -9.24,11.71 -11.27,12.25 0.27,3.33 1.68,8.17 2.02,13.24 0.18,2.69 -0.54,2.35 0.94,4.01 3.05,3.41 6.11,7.84 6.11,14.11 0,13.92 -6.13,14.85 -7.01,18.15 1.47,0.4 1.59,1.09 3.77,2.83 6.91,5.51 15.62,18.86 15.62,28.12 0,6.5 -1.53,12.07 -6.59,15.69 -9.16,6.54 -20.99,5.08 -31.14,1 -11.29,-4.54 -12,-7.05 -19.62,-12.15 -1.59,1.38 -3.02,2.56 -4.87,3.8 -1.44,0.96 -3.83,2.84 -5.45,3.21 0.4,1.48 1.34,1.92 2.25,3.12 1.44,1.91 5.59,7.23 5.59,9.26 0,2 -1.3,3.3 -3.3,3.3 -2.35,0 -4.24,-4.36 -5.44,-6.11 -0.74,-1.09 -1.64,-2.22 -2.52,-3.25 -1.28,-1.5 -1.36,-1.14 -2.35,-3.02 -2.22,1.18 -10.31,4.3 -13.21,4.54 -0.13,1.55 -1.48,4.38 -2.23,5.62 -3.58,5.97 -9.78,8.83 -17.16,8.83 -7.8,0 -16.36,-7.73 -16.92,-14.45 -3.09,-0.25 -10.85,-3.29 -13.2,-4.54 -0.65,0.97 -1.92,2.45 -2.79,3.41 -6.51,7.27 -11.24,20.7 -11.24,30.84 0,5.37 1.99,9.49 8.66,9.49l73.45 0c4.82,0 8.66,-3.14 8.66,-7.84 0,-11.1 -5.04,-18.57 1.24,-18.57 5.12,0 5.38,18.28 5.03,20.29 -1.16,6.69 -5.93,12.31 -13.28,12.31l-77.57 0c-3.76,0 -7.02,-2.63 -8.99,-4.63 -9.49,-9.62 0.46,-36.3 9.32,-46.2 0.97,-1.09 0.92,-0.49 1.32,-1.98 -0.7,-0.96 -1.83,-1.36 -2.89,-2.06l-7.84 -5.78c-1.45,0.38 -0.92,0.39 -2.02,1.28 -6.01,4.84 -6.3,5.07 -13.83,9.27 -1.33,0.74 -3.1,1.4 -4.6,2.01 -10.15,4.08 -21.98,5.54 -31.14,-1 -5.37,-3.84 -6.59,-9.58 -6.59,-16.1 0,-8.47 7.25,-19.49 13.1,-25.28 2.16,-2.14 4.21,-4 6.71,-5.67 -0.96,-1.42 -1.96,-2.09 -3.15,-3.87 -10.2,-15.34 3.35,-28.5 3.35,-28.52 0.44,-1.12 0.46,-14.36 5.81,-27.62 1.27,-3.16 2.47,-6.31 4.13,-9.07 1.75,-2.92 2.91,-5.62 4.88,-8.32 1.09,-1.5 1.83,-2.59 2.95,-4.07 0.94,-1.23 1.94,-2.59 2.96,-3.64 4.74,-4.86 4.3,-4.89 9.91,-9.89 13.73,-12.24 33.26,-19.31 52.48,-20.12zm83.37 119.25c1.28,0 9.6,8.44 11.48,11.22 4.18,6.17 9.9,15.64 5.44,23.43 -5.88,10.26 -23.27,5.63 -31.36,1.66 -2.49,-1.21 -4.44,-2.42 -6.77,-3.96l-6.43 -4.71c1.55,-2.31 6.3,-6.49 12.05,-15.59 0.92,-1.45 1.45,-2.75 2.25,-4.35 2.63,-5.25 1.81,-5.5 4.4,-5.92 1.24,-0.2 2.18,-0.08 3.42,-0.29 1.9,-0.33 3.98,-1.49 5.52,-1.49zm-164.22 40.85c-18.56,0 -18.76,-13.86 -11.63,-25.67 2.58,-4.28 6.34,-9.03 10.22,-12.06 8.96,-7 -0.43,-1.06 16.27,-1.06 1.09,4.7 7.65,15.27 11.24,19.29l4.85 5.47 -6.27 4.87c-2.28,1.55 -4.46,2.97 -6.93,4.21 -4.24,2.12 -11.47,4.95 -17.75,4.95zm158.45 -76.75c11.38,2.65 15.9,17.69 7.74,25.9 -2.42,2.44 -3.58,3.57 -6.96,4.59 -1.14,0.35 -2.33,0.42 -3.26,0.87 0.12,-1.45 0.61,-2.86 0.99,-4.37 0.43,-1.66 0.6,-2.66 0.9,-4.47 1.95,-11.75 0.59,-12.88 0.59,-22.52zm-148.96 6.19c0,9.96 -0.27,11.4 1.89,21.22 0.37,1.7 0.88,2.97 1,4.36 -1.91,-0.91 -5.51,0.08 -10.42,-4.84 -1.42,-1.42 -2.47,-2.52 -3.33,-4.52 -4.19,-9.76 0.94,-20 11.27,-22.41 0,2.62 -0.41,3.44 -0.41,6.19zm147.72 -25.58c-7.06,0 -7.53,-7.41 -10.32,-13.21 6.42,-1.49 12.12,-7.17 13.62,-13.61 1.31,0.1 6.44,2.38 8.08,3.05 4.04,1.66 5.12,3.3 5.12,7.67 0,4.3 -3.97,7.48 -6.29,9.8 -2.44,2.45 -5.62,6.3 -10.21,6.3zm-21.87 -25.59l0 -2.06c0,-4.69 4.56,-9.41 8.51,-10.48 12.6,-3.42 15.05,12.88 2.93,18.2 -2.38,1.04 -5.21,1.04 -7.54,-0.06 -1.8,-0.85 -3.9,-3.28 -3.9,-5.6zm-5.78 -5.36c-2.25,-0.19 -5.91,-2.15 -8.13,-3 -6.67,-2.57 -5.89,-9.41 -3.11,-12.79 1.26,-1.53 1.89,-2.3 3.3,-3.71 2.21,-2.19 4.67,-5.06 7.65,-6.38 3.96,-1.75 7.8,-0.63 9.73,2.42 1.66,2.63 2.66,6.97 4.18,9.84 -6.37,1.49 -13.12,7.67 -13.62,13.62zm-19.8 -10.32c0,15.01 17.46,14.26 19.45,18.1 0.57,1.11 0.38,1.82 1.91,4.28 1.84,2.94 4.13,4.26 7.39,5.4 2.56,0.9 2.47,2.82 4.49,7.89 2.43,6.1 4.93,11.33 13.23,11.89 1.56,0.11 3.53,-0.35 5.52,-0.52l1.24 8.26c-4.75,-1.11 -6.77,-2.95 -11.69,-0.56 -11.82,5.73 -27.04,-0.07 -37.42,-5.22 -3.97,-1.97 -11.44,-7.09 -14.55,-10.21 -1.54,-1.55 -2.77,-2.8 -4.32,-4.34 -2.56,-2.53 -5.26,-6.09 -7.28,-9.22 -5.13,-7.93 -5.52,1.18 -20.58,14.58 -1.21,1.08 -4.02,2.77 -4.02,4.65 0,1.76 2.28,5.24 6.11,1.98 3.49,-2.97 13.61,-11.76 14.52,-15.18l12.09 13.08c4.42,3.7 9.87,7.82 15.14,10.44 6.69,3.32 10.93,5.38 18.6,6.98 5.78,1.21 11.43,1.45 16.96,0.51 2.31,-0.39 3.37,-0.86 5.3,-1.31 0.13,5.9 1.44,8.5 0.24,16.76 -0.88,6.1 -1.68,9.6 -3.39,14.76 -3,9.09 -7.76,16.46 -13.46,22.85 -20.4,22.91 -53.58,30.04 -80.36,16.61 -8.39,-4.21 -12.51,-6.94 -19.5,-13.93 -10.22,-10.22 -19.7,-27.27 -19.7,-47.56 0,-19.74 0.61,1.1 33.9,-12.31 3.92,-1.58 12.36,-4.61 8.99,-8.7 -2.31,-2.81 -5.29,0.06 -8.36,1.49 -8.99,4.16 -20.08,7.08 -30.25,4.52 -5.83,-1.47 -2.14,-1.91 -8.82,-1.91 -2.28,0 -5.1,0.86 -6.6,1.65 1.73,-7.43 0.7,-8.54 4.17,-18.93 1.77,-5.28 4.72,-11.46 7.63,-15.9 3.71,-5.65 5.55,-8.31 10.38,-13.14 4.38,-4.38 7.45,-7.21 12.72,-10.8l7.32 -4.23c15.68,-7.77 30.39,-10.67 48.44,-8.27 7.7,1.02 17.99,4.78 18.68,4.84 -0.37,1.42 -1.92,2.69 -2.72,4.7 -0.68,1.67 -1.4,3.92 -1.4,6.02z"/>
   <path fill="black" d="M127.91 103.98c0,1.25 1.22,3.3 3.3,3.3 5.62,0 0.74,-6.19 6.61,-6.19 2.45,0 2.48,1.09 2.99,3.2 1.17,4.81 6.5,3.08 6.5,0.1 0,-5.91 -4.18,-9.9 -10.32,-9.9 -4.69,0 -9.08,4.83 -9.08,9.49z"/>
   <path fill="black" d="M95.32 103.57c0,6.09 11.34,9.81 18.25,5.46 6.08,-3.83 4.31,-7.94 0.73,-7.94 -4.24,0 -0.92,3.3 -9.08,3.3 -3.8,0 -2.67,-3.3 -7.43,-3.3 -0.99,0 -2.47,1.48 -2.47,2.48z"/>
   <path fill="black" d="M73.03 98.2c0,4.74 -0.88,9.08 3.3,9.08 3.62,0 3.31,-4.01 3.31,-6.6 0,-8 -6.61,-5.09 -6.61,-2.48z"/>
  </g>
 </g>
</svg>
