<?xml version="1.0" encoding="UTF-8"?>
<!DOCTYPE svg PUBLIC "-//W3C//DTD SVG 1.1//EN" "http://www.w3.org/Graphics/SVG/1.1/DTD/svg11.dtd">
<!-- Creator: CorelDRAW -->
<svg xmlns="http://www.w3.org/2000/svg" xml:space="preserve" width="1484px" height="1600px" version="1.1" shape-rendering="geometricPrecision" text-rendering="geometricPrecision" image-rendering="optimizeQuality" fill-rule="evenodd" clip-rule="evenodd"
viewBox="0 0 145.57 156.94"
 xmlns:xlink="http://www.w3.org/1999/xlink"
 xmlns:xodm="http://www.corel.com/coreldraw/odm/2003">
 <g id="Слой_x0020_1">
  <metadata id="CorelCorpID_0Corel-Layer"/>
  <path fill="black" d="M54.02 110.96l13.8 0 0 22.07 -13.8 0 0 -22.07zm-41.6 -110.96l2.38 0c3,0.17 5.96,1.01 9.06,2.88 7.21,4.36 7.19,8.77 3.5,8.77 -2.74,0 -5.8,-10.14 -20.62,-5.91 -2.57,0.73 -2.15,2.36 -1.58,4.8l6.62 30.17c0.29,1.21 1.14,4.61 1.17,5.88l22.68 0 -5.95 -25.62c-0.52,-2.36 -2.5,-6.87 1.35,-6.87 1.99,0 2.18,1.23 2.58,2.94l6.93 29.55 35.55 0c3.09,0 3.09,4.6 0,4.6l-61.91 0c0.05,2.28 2.71,11.63 2.75,13.79l83.99 0c0,-4.21 -3.36,-8.54 -6.44,-10.72 -6.7,-4.76 -11.64,-1.32 -11.64,-5.52 0,-2.54 2.92,-2.15 3.98,-2.15 6.72,0 13.27,5.05 16.15,9.91 0.82,1.38 1.09,1.86 1.73,3.48 1.8,4.64 1.43,10.59 1.43,15.73 0,3.74 -1.67,4.81 -2.76,6.44 1.5,1 34.81,34.65 37.78,37.62 1.87,1.87 4.85,4.23 4.36,7.88 -0.66,4.99 -3.85,6.3 -8.11,6.3 -2.63,0 -8.56,-6.45 -10.81,-8.81 -0.74,-0.77 -0.79,-1.02 -1.59,-1.78l-1.51 -1.55c-3.14,-3.63 -21.81,-21.89 -25.71,-25.79 -0.91,-0.91 -12.09,-12.65 -13.1,-12.65l-16.86 0 0 22.69c4.09,0 4.63,0.02 4.6,4.59l-0.01 22.99 7.93 3.12c1.78,0.65 6.79,2.22 6.79,3.93 0,5.14 -5.9,1.59 -10.52,-0.21 -1.78,-0.7 -6.36,-2.85 -8.18,-2.85l-15.63 0c-1.06,0 -20.66,8.01 -24.57,9.46 -1.24,0.45 -7.62,2.43 -7.62,3.72 0,1.08 0.45,1.53 1.84,1.53l76.94 0c1.39,0 1.84,-0.45 1.84,-1.53 0,-1.33 -6.22,-3.02 -8.7,-4.17 -3.31,-1.54 -1.3,-4.72 0.42,-4.72 0.64,0 10.45,3.33 11.84,5.33 2.97,4.28 -0.03,9.69 -4.48,9.69l-79.39 0c-1.36,0 -3.05,-1.25 -3.77,-2.06 -2.37,-2.69 -2.37,-7.64 3.41,-9.94l7.41 -3.02c-1.62,0 -9.62,0.23 -10.76,-0.27 -2.24,-0.99 -2.08,-4.37 1.25,-4.64 4.98,-0.39 20.68,0.74 23.92,-0.6 2.24,-0.93 4.93,-1.75 7.05,-2.77 0,-5 0,-10.01 0,-15.02 0,-12.65 -1.1,-12.56 4.59,-12.56l0 -22.69 -22.37 0c-8.25,0 -15.22,-6.05 -18.22,-13.65 -1.06,-2.68 -11.06,-49.69 -11.59,-52.17 -1.04,-4.84 -2.9,-9.52 -1.07,-12.87 0.97,-1.75 2.41,-2.93 4.51,-3.46 2.48,-0.64 4.83,-1.1 7.14,-1.22zm46.2 83.37l4.6 0 0 22.69 -4.6 0 0 -22.69zm33.41 0c7.23,0 5.27,-0.7 8.66,2.69l34.64 34.63c1.05,1.05 5.44,4.88 5.44,6.21 0,1.31 -0.95,2.45 -2.15,2.45 -1.83,0 -10.29,-9.21 -12.03,-10.96 -4.33,-4.33 -8.98,-8.49 -12.89,-13.16 -0.45,-0.55 -0.85,-0.89 -1.36,-1.4 -2.87,-2.84 -19.43,-19.14 -20.31,-20.46zm-73.56 -13.79l82.76 0 0 6.74c0,1.83 -1.24,2.46 -3.07,2.46l-64.06 0c-7.99,0 -12.88,-3.99 -15.63,-9.2z"/>
 </g>
</svg>
