<?xml version="1.0" encoding="UTF-8"?>
<!DOCTYPE svg PUBLIC "-//W3C//DTD SVG 1.1//EN" "http://www.w3.org/Graphics/SVG/1.1/DTD/svg11.dtd">
<!-- Creator: CorelDRAW -->
<svg xmlns="http://www.w3.org/2000/svg" xml:space="preserve" width="1600px" height="1600px" version="1.1" shape-rendering="geometricPrecision" text-rendering="geometricPrecision" image-rendering="optimizeQuality" fill-rule="evenodd" clip-rule="evenodd"
viewBox="0 0 424.5 424.5"
 xmlns:xlink="http://www.w3.org/1999/xlink"
 xmlns:xodm="http://www.corel.com/coreldraw/odm/2003">
 <g id="Слой_x0020_1">
  <metadata id="CorelCorpID_0Corel-Layer"/>
  <g id="_2780374672080">
   <path fill="black" d="M14.1 243.76l40.62 0c-0.34,15.2 -9.62,11.61 -24.87,11.61 -8.66,0 -12.73,-5.86 -15.75,-11.61zm36.67 -243.76l2.4 0c2.63,0.52 4.87,2.79 4.87,6.63l0 149.24 24.04 0 0 -146.75c0,-5.56 2.91,-8.52 6,-9.12l2.4 0c2.63,0.52 4.87,2.79 4.87,6.63l0 149.24 24.04 0 0 -146.75c0,-5.73 2.95,-8.61 6.07,-9.12l2.01 0c2.77,0.45 5.19,2.77 5.19,6.63l0 149.24 24.04 0 0 -48.09c0,-11.63 13.27,-12.04 13.27,-2.48l0 50.57 24.04 0 0 -146.75c0,-5.73 2.95,-8.61 6.07,-9.12l2.01 0c2.77,0.45 5.19,2.77 5.19,6.63l0 149.24 24.04 0 0 -146.75c0,-5.73 2.95,-8.61 6.07,-9.12l2.01 0c2.77,0.45 5.19,2.77 5.19,6.63l0 149.24 49.74 0c4.01,0 6.64,2.63 6.64,6.64 0,6.94 -5.45,6.68 -12.43,6.63l-209.77 0c-9.24,0 -48.79,-1.6 -55.59,1.62 -3.65,1.73 -7.98,5.83 -9.08,9.99l262 -0.01c21.01,-0.11 20.84,12.44 24.87,12.44l58.86 0c2.12,0 5.79,-5.8 19.9,-5.8 8.94,0 11.45,9.45 30.68,4.97 2.77,-5.78 1.2,-6.75 -2.68,-10.58 -2.98,-2.95 -5.5,-5.02 -9.38,-7.2 -8.44,-4.75 -14.22,-5.43 -26.91,-5.43l-48.96 0.05c-12.62,-0.01 -12.06,-13.32 -0.79,-13.32l53.9 0c20.27,0 48.91,14.56 48.91,30.68 0,6.62 -1.94,12.77 -7.58,16.46 -4.91,3.23 -7.79,3.44 -15.63,3.44 0.9,3.87 0.9,7.73 0,11.61 14.25,0 23.21,5.29 23.21,19.89 0,13.61 -21.34,25.55 -32.8,28.55 -15.4,4.04 -39.81,2.13 -58.4,2.13 -7.61,0 -87.32,-0.99 -90.81,0.39 -5.13,2.04 -13.06,18.9 -4.56,35.29 1.79,3.46 5.41,7.03 8.07,10.17 4.88,5.75 9.37,16.03 9.37,26.28 0,22.84 -12.59,26.98 -18,37.56 -4.22,8.27 -4.55,20.84 0.4,28.96 2.24,3.69 6.82,6.75 6.82,11.42 0,1.85 -1.9,5.17 -5,5.8l-2.12 0c-1.88,-0.36 -4.06,-1.72 -6.42,-4.7 -1.95,-2.45 -2.86,-3.38 -4.44,-6.34 -16.44,-30.78 8.22,-51.36 11.62,-57.5 2.11,-3.82 3.87,-7.14 3.87,-12.71 0,-12.63 -3.86,-18.28 -10.96,-26.34 -8.36,-9.49 -9.77,-18.77 -9.77,-31.7 0,-21.62 20.73,-26.03 20.73,-45.6 0,-6.2 -1.84,-17.55 -6.46,-20.07 -3.61,-1.97 -16.59,-0.65 -21.73,-0.65 0.86,3.7 1.98,4.85 2.84,8.76 6.24,28.1 -10.34,36.05 -16.68,47.87 -4.96,9.22 -4.08,19.88 0.55,28.79 5.98,11.54 17.44,14.72 17.44,36.45 0,21.79 -11.04,25.54 -17.92,37.64 -11.78,20.71 7.14,34.46 7.14,40.3 0,1.85 -1.9,5.17 -5,5.8l-2.12 0c-1.88,-0.36 -4.06,-1.72 -6.42,-4.7 -7.83,-9.86 -9.68,-17.96 -9.68,-30.95 0,-21.88 20.73,-27.45 20.73,-45.6 0,-12.63 -3.86,-18.28 -10.96,-26.34 -4.4,-4.99 -9.77,-14.43 -9.77,-23.4 0,-29.88 9.52,-26.92 17.17,-40.88 5.79,-10.59 4.04,-29.31 -2.9,-33.09 -3.61,-1.97 -16.59,-0.65 -21.73,-0.65 0.86,3.7 1.98,4.85 2.84,8.76 3.2,14.38 -1.03,27.7 -8.63,37.68 -3.04,4.01 -5.29,5.04 -8.05,10.19 -5.17,9.63 -3.72,17.8 -0.3,27.23 2.57,7.09 -2.16,9 -7.42,9 -4.66,0 -8.29,-12.75 -8.29,-18.24 0,-29.88 9.52,-26.92 17.17,-40.88 5.79,-10.59 4.04,-29.31 -2.9,-33.09 -3.61,-1.97 -16.59,-0.65 -21.73,-0.65 0.86,3.7 1.98,4.85 2.84,8.76 6.36,28.62 -11.13,36.75 -16.68,47.87 -8.23,16.53 -1.71,26.77 8.62,38.96 12.84,15.14 11.4,38.93 -0.44,53.79 -3.08,3.86 -5.27,5.13 -8.11,10.13 -11.78,20.71 7.14,34.46 7.14,40.3 0,2.4 -2,5.36 -5.12,5.8l-1.64 0c-3.15,-0.43 -7.1,-3.34 -11.22,-11.04 -16.41,-30.72 7.94,-50.86 11.62,-57.5 2.11,-3.82 3.87,-7.14 3.87,-12.71 0,-12.63 -3.86,-18.28 -10.96,-26.34 -13.78,-15.64 -12.57,-38.86 -0.31,-54.57 3.16,-4.06 4.96,-4.59 7.7,-9.72 5.91,-11.06 3.91,-29.37 -2.89,-33.08 -3.61,-1.97 -16.59,-0.65 -21.73,-0.65 0.86,3.68 1.9,4.82 2.84,8.76 6.5,27.29 -10.52,36.39 -16.68,47.87 -4.96,9.22 -4.08,19.88 0.55,28.79 1.79,3.46 5.41,7.03 8.07,10.17 12.76,15.05 11.53,39.08 -0.45,53.78 -3.13,3.84 -5.29,5.21 -8.1,10.14 -11.78,20.71 7.14,34.46 7.14,40.3 0,2.4 -2,5.36 -5.12,5.8l-1.64 0c-3.15,-0.43 -7.1,-3.34 -11.22,-11.04 -8.4,-15.72 -6.69,-34.42 4.22,-48.32 7.75,-9.88 11.27,-11.77 11.27,-26.03 0,-19.57 -20.73,-24.12 -20.73,-45.6 0,-29.74 9.61,-26.76 17.16,-40.89 5.91,-11.06 3.91,-29.37 -2.89,-33.08 -3.61,-1.97 -16.59,-0.65 -21.73,-0.65 0.86,3.68 1.9,4.82 2.84,8.76 6.62,27.79 -11.35,37.18 -16.68,47.87 -4.65,9.34 -4.25,19.29 0.27,28.24 1.9,3.76 5.24,7.2 7.96,10.28 13.16,14.9 12.07,39.33 -0.06,54.22 -3.13,3.84 -5.29,5.21 -8.1,10.14 -5.12,9.01 -4.06,20.05 0.48,28.72 1.88,3.58 6.66,7.68 6.66,11.58 0,2.4 -2,5.36 -5.12,5.8l-1.64 0c-3.15,-0.43 -7.1,-3.34 -11.22,-11.04 -16.39,-30.69 7.95,-50.87 11.62,-57.5 2.11,-3.82 3.87,-7.14 3.87,-12.71 0,-13.23 -4.17,-18.29 -11.36,-26.77 -10.47,-12.36 -12.07,-33.34 -4.39,-47.85 -12.71,0 -20.3,-0.7 -27.51,-6.49 -6.24,-5.01 -12.29,-12.79 -12.29,-21.7l0 -17.74c0.49,-2.83 1.64,-5.72 4.15,-10.45 -1.78,-3.36 -4.15,-5.62 -4.15,-10.78l0 -14.24c0.29,-5.01 1.21,-9.84 3.84,-15.08 2.04,-4.05 3.66,-5.25 6.71,-8.21 8.71,-8.46 21.91,-8.07 34.22,-8.07l0 -146.75c0,-5.56 2.91,-8.52 6,-9.12zm201.28 255.37c0.36,-4.32 2.49,-5.58 2.49,-11.61 12.85,0 30.24,2.01 38.29,-3.99 14.44,-10.77 -15.4,-8.45 67,-8.45 3.21,0 4.82,5.81 18.24,5.81 9.6,0 12.65,-5.81 17.42,-5.81 7.22,0 8.87,-0.58 14.92,0.83 2.73,5.68 1.18,7.84 -5.67,13.4 -4.33,3.51 -9.45,6.31 -15.13,8.08 -11.22,3.5 -30.65,1.74 -44.7,1.74 -30.95,0 -61.91,0 -92.86,0zm-239.61 -29.85c0,-3.03 2.28,-6.63 4.97,-6.63l29.85 0c3.78,0 6.65,8.1 7.46,11.6l-42.28 0 0 -4.97zm238.78 -6.63c6.91,0 13.82,0 20.73,0 2.54,-0.01 8.59,-0.32 10.73,0.05 6.61,1.13 6.04,9.34 1.32,11.17 -2.62,1.01 -6.64,0.39 -9.56,0.38 -6.64,-0.02 -13.27,0 -19.9,0 -0.16,-1.88 -2.63,-10.06 -3.32,-11.6zm113.59 -6.64c0,-14.56 24.04,-18.84 24.04,1.66 0,13.54 -24.04,14.65 -24.04,-1.66zm-12.44 3.32l0 2.49 -51.4 0c-2.44,0 -3.64,-3.81 -4.98,-5.81 1.34,-2 2.54,-5.8 4.98,-5.8l51.4 0 -0.41 5.8c0.01,1.45 0.41,0.77 0.41,3.32zm-339.93 -16.58l0 -4.98 270.29 0c6.26,0 6.26,11.61 0,11.61l-265.32 0c-2.69,0 -4.97,-3.6 -4.97,-6.63z"/>
   <path fill="black" d="M164.16 324.18c0,3.99 0.78,3.54 1.97,7.15 2.7,8.19 1.61,17.17 -2.52,24.63 -2.64,4.77 -4.39,5.35 -7.4,9.18 -20.81,26.52 -2.23,59.36 7.12,59.36 3.55,0 6.64,-2.55 6.64,-5.8 0,-3.95 -4.83,-8.15 -6.83,-11.41 -5.03,-8.19 -5,-20.64 -0.31,-28.89 2.84,-5 5.03,-6.27 8.11,-10.13 15.06,-18.9 10.69,-49.89 -0.97,-49.89 -3.87,0 -5.81,1.93 -5.81,5.8z"/>
   <path fill="black" d="M156.7 9.12l0 67.99c0,12.75 13.27,11.13 13.27,2.48l0 -72.96c0,-3.58 -2.48,-6.04 -5.3,-6.63l-2.58 0c-2.85,0.62 -5.39,3.4 -5.39,9.12z"/>
  </g>
 </g>
</svg>
