<?xml version="1.0" encoding="UTF-8"?>
<!DOCTYPE svg PUBLIC "-//W3C//DTD SVG 1.1//EN" "http://www.w3.org/Graphics/SVG/1.1/DTD/svg11.dtd">
<!-- Creator: CorelDRAW -->
<svg xmlns="http://www.w3.org/2000/svg" xml:space="preserve" width="1525px" height="1600px" version="1.1" shape-rendering="geometricPrecision" text-rendering="geometricPrecision" image-rendering="optimizeQuality" fill-rule="evenodd" clip-rule="evenodd"
viewBox="0 0 239.53 251.33"
 xmlns:xlink="http://www.w3.org/1999/xlink"
 xmlns:xodm="http://www.corel.com/coreldraw/odm/2003">
 <g id="Слой_x0020_1">
  <metadata id="CorelCorpID_0Corel-Layer"/>
  <g id="_2780376426464">
   <path fill="black" d="M141.19 172.42l-16.44 -16.2c6.06,-0.68 21.32,-9.45 28.1,-9.45 2.97,0 6.6,4.01 7.86,5.9l-19.52 19.75zm40.14 -27.61c2.29,0 3.43,1.15 3.43,3.44 0,2.73 -3.64,5.36 -5.27,6.99l-37.8 37.8c-1.82,1.83 -4.8,5.51 -7.73,2.57 -3.64,-3.63 3.44,-8.59 8.71,-13.86l31.42 -31.42c1.66,-1.66 4.49,-5.52 7.24,-5.52zm-78.55 -10.8c5.85,-0.48 21.16,-9.33 27.98,-9.33 3.39,0 7.17,4.96 9.21,7 2.14,2.14 6.52,6.06 7.98,8.22 -6.41,0.53 -20.47,9.33 -28.48,9.33 -2.4,0 -3.47,-1.73 -4.78,-3.07 -2.72,-2.74 -10.6,-10.2 -11.91,-12.15zm-44.18 -44.18c5.85,-0.48 21.16,-9.32 27.99,-9.32 3.38,0 7.16,4.95 9.2,6.99 2.14,2.14 6.53,6.06 7.98,8.22 -6.41,0.54 -20.47,9.33 -28.48,9.33 -2.66,0 -6.01,-4.3 -8.71,-7 -2.14,-2.14 -6.52,-6.05 -7.98,-8.22zm-5.4 -6.87c-2.49,0 -3.87,-2.15 -5.27,-3.56 -1.63,-1.63 -3.31,-2.94 -4.54,-4.79l19.51 -19.75 18.9 18.65c-3.29,0.39 -11.14,3.81 -13.88,5.02 -3.37,1.49 -10.2,4.43 -14.72,4.43zm-15.09 -14.11c-4.74,-8.85 1.01,-20.74 12.15,-20.74 2.99,0 4.49,0.91 6.87,1.47l-19.02 19.27zm-15.83 -64.92l0 52.03c0,19.84 22.09,22.68 22.09,38.78 0,14.83 -22.09,18.26 -22.09,37.8 0,20.63 22.09,21.32 22.09,39.76 0,13.23 -22.09,18.59 -22.09,36.33 0,9.66 4.91,16.9 11.99,22.37 14.68,11.34 7.07,20.33 14.03,20.33 8.75,0 1.54,-15.84 -4.04,-21.48 -7.13,-7.2 -14.13,-10.38 -14.13,-22.21 0,-6.85 8.2,-13.8 12.36,-17.1 2.53,-2.01 4.85,-5.28 6.59,-8.13 4.2,-6.91 3.81,-16.2 -0.07,-23.09 -2.37,-4.21 -6.69,-8.64 -10.46,-11.64 -5.09,-4.05 -8.42,-8.75 -8.42,-16.12 0,-13.8 21.69,-18.8 22.09,-36.82l10.2 9.93c-1.72,2.63 -8.5,8.76 -11.31,11.54 -14.07,13.95 -2.22,34.98 3.57,34.98 2.1,0 3.92,-1.51 3.92,-3.43 0,-3.92 -6.38,-5.85 -6.38,-16.2 0,-3.03 0.86,-4.95 1.98,-6.86 0.82,-1.41 2.86,-4 4.14,-5.19 2.63,-2.42 7.25,-7.49 9.59,-9.06l67.62 67.37c-3.98,6.14 -10.18,6.94 -10.18,16.08 0,10.16 12.48,13.76 20.01,6.27 1.89,-1.89 4.62,-4.21 6,-6.27 3.46,2.32 40.96,40.71 45.78,45.53 5.71,5.72 10.53,11.9 20.49,11.9 17.52,0 28.57,-21.77 17.34,-35 -5.23,-6.15 -11.27,-11.69 -16.97,-17.4 -1.85,-1.85 -6.97,-7.98 -9.7,-7.98 -1.71,0 -3.92,2.22 -3.92,3.93 0,2.43 19.01,20.25 21.96,23.2 3.13,3.11 5.53,5.89 5.53,11.16 0,4.34 -2.28,7.97 -4.52,10.21 -1.32,1.31 -2.66,2.32 -4.37,2.99 -11.22,4.45 -15.45,-3.41 -22.65,-10.62 -4.67,-4.67 -40.74,-39.84 -43.08,-43.32l19.52 -19.76c2.98,2.04 18.32,19.76 21.23,19.76 2.02,0 3.92,-1.91 3.92,-3.93 0,-4.1 -16.77,-17.32 -19.63,-21.6 4.09,-2.73 10.31,-9.2 10.31,-14.72 0,-6.09 -5.21,-11.29 -11.29,-11.29 -7.49,0 -10.67,7.26 -15.22,10.31 -2.27,-3.39 -23.93,-24.18 -28.6,-28.84 -3.04,-3.05 -7.53,-8.96 -11.65,-8.96 -2.3,0 -2.95,2.69 -2.95,4.42 0,1.27 2.11,2.68 2.95,3.92 -3.17,0.27 -11.02,3.68 -13.76,4.9 -3.38,1.49 -10.2,4.43 -14.72,4.43 -3.05,0 -6.66,-4.95 -8.71,-7 -2.14,-2.14 -6.52,-6.05 -7.98,-8.22 9.02,-0.75 18.64,-9.33 27.99,-9.33 4.3,0 4.04,3.93 8.34,3.93 2.3,0 2.95,-2.69 2.95,-4.42 0,-1.55 -1.43,-1.08 -1.51,-4.87 -0.49,-24.7 0.03,-49.46 0.03,-74.16 0,-4.42 0,-8.83 0,-13.25 0.01,-4.7 0.86,-9.82 -3.92,-9.82 -4.3,0 -3.95,3.57 -3.93,7.85l0 83.45c-1.29,-0.86 -13.6,-12.49 -14.12,-14.35 -0.69,-2.52 -0.12,-25.2 -0.12,-28.84 0,-5.53 1.71,-15.22 -3.92,-15.22 -3.46,0 -3.98,2.31 -3.95,5.87l0.02 30.45c-2.65,-1.77 -8.23,-7.99 -10.92,-10.67 -3.04,-3.03 -3.39,-1.86 -3.33,-7.48l0.02 -43.7c0.03,-4.01 0.01,-7.36 -3.93,-7.36 -4.63,0 -3.94,4.29 -3.93,8.84l0 38.28c-5.22,-2.75 -6.33,-6.38 -14.24,-6.38l0 -35.83c0,-2.93 -1,-4.91 -3.92,-4.91 -4.11,0 -3.96,3.23 -3.93,7.36l0 33.87c-7.03,3.37 -9.54,4.64 -13.43,11.12 -0.62,1.02 -0.16,0.42 -0.81,1.16l0 -42.71c0,-4.98 1.06,-10.8 -3.92,-10.8 -2.38,0 -3.93,1.55 -3.93,3.93z"/>
   <path fill="black" d="M0.19 3.93l0 52.03c0,10.34 6.69,16.87 13.86,23.45l3.7 3.66c3.07,3.53 4.53,5.97 4.53,11.67 0,14.83 -22.09,18.26 -22.09,37.8 0,20.8 22.09,21.06 22.09,39.76 0,7.15 -7.91,13.06 -11.9,17.06 -9.13,9.12 -14.53,19.6 -6.37,32.63 6.03,9.63 17.55,13.34 18.25,24.46 0.18,3 0.78,4.88 3.95,4.88 5.69,0 3.71,-7.86 2.52,-11.36 -4.46,-13.17 -20.69,-17.38 -20.69,-29.87 0,-9.22 5.27,-13.93 12.36,-19.56 1.53,-1.21 2.04,-2.38 3.48,-3.88 1.26,-1.32 2.11,-2.61 3.11,-4.25 4.32,-7.1 3.92,-16.01 -0.07,-23.09 -3.67,-6.52 -11.41,-11.7 -14.18,-15.28 -3.74,-4.82 -4.7,-5.74 -4.7,-12.48 0,-13.98 22.09,-18.09 22.09,-37.31 0,-19.36 -22.01,-23.12 -22.11,-37.78l0.02 -45.18c0,-5.1 1.14,-11.29 -3.92,-11.29 -2.38,0 -3.93,1.55 -3.93,3.93z"/>
   <path fill="black" d="M60.57 156.59c0,4.08 12.62,11.33 1.41,25.47 -5.23,6.59 -17.61,13.17 -17.61,26.57 0,9.33 5.27,17.19 11.99,22.37 15.85,12.24 6.27,20.33 14.03,20.33 7.05,0 2.92,-12.25 -0.28,-16.9 -0.8,-1.16 -0.98,-1.21 -1.75,-2.18 -7.76,-9.76 -16.14,-10.84 -16.14,-24.61 0,-3.77 2.61,-7.62 4.54,-9.7 2.44,-2.62 4.63,-4.97 7.53,-7.19l6.69 -8.04c8.75,-13.92 -2.6,-29.55 -5.5,-29.55 -2.21,0 -4.91,0.34 -4.91,3.43z"/>
   <path fill="black" d="M88.55 3.93l0 17.67c0,5.09 7.85,5.97 7.85,-0.98l0 -15.71c0,-3.02 -1.41,-4.54 -3.03,-4.91l-1.67 0c-1.67,0.37 -3.15,1.8 -3.15,3.93z"/>
   <path fill="black" d="M170.53 186.05c0,2.82 4.51,6.19 6.25,7.98 5.45,5.57 7.98,1.23 7.98,-1.11 0,-2.98 -8.35,-10.31 -9.32,-10.31 -2.21,0 -4.91,0.34 -4.91,3.44z"/>
  </g>
 </g>
</svg>
