<?xml version="1.0" encoding="UTF-8"?>
<!DOCTYPE svg PUBLIC "-//W3C//DTD SVG 1.1//EN" "http://www.w3.org/Graphics/SVG/1.1/DTD/svg11.dtd">
<!-- Creator: CorelDRAW -->
<svg xmlns="http://www.w3.org/2000/svg" xml:space="preserve" width="1500px" height="1500px" version="1.1" shape-rendering="geometricPrecision" text-rendering="geometricPrecision" image-rendering="optimizeQuality" fill-rule="evenodd" clip-rule="evenodd"
viewBox="0 0 94.9 94.89"
 xmlns:xlink="http://www.w3.org/1999/xlink"
 xmlns:xodm="http://www.corel.com/coreldraw/odm/2003">
 <g id="Слой_x0020_1">
  <metadata id="CorelCorpID_0Corel-Layer"/>
  <g id="_2439733145856">
   <path fill="black" d="M18.98 83.82c0,-0.79 0.89,-1.59 1.78,-1.59l9.09 0c2.3,0 2.3,3.17 0,3.17l-9.09 0c-0.89,0 -1.78,-0.8 -1.78,-1.58zm-3.17 -0.6l0 0.99c0,2.18 2.18,4.35 4.35,4.35l10.28 0c2.18,0 4.35,-2.17 4.35,-4.35l-0.2 -1.98 12.66 0c0,2.49 -1.45,5.38 -3.28,6.82 -2.11,1.66 -3.92,2.67 -7.6,2.67l-22.14 0c-6.02,0 -10.87,-4.2 -10.87,-9.49l12.65 0c-0.1,0.45 -0.2,0.46 -0.2,0.99zm13.84 -4.15c0.49,-0.92 1.26,-1.79 1.93,-2.61 0.76,-0.92 1.33,-1.73 2.09,-2.66 0.75,-0.93 1.35,-1.75 2.08,-2.66 0.64,-0.8 1.43,-2.03 2.2,-2.55 0,3.4 -0.96,6.8 -2.81,8.85 -0.39,0.43 -0.73,1.01 -1.09,1.29 -0.85,0.65 -3.05,0.34 -4.4,0.34zm-4.15 0l-6.33 0 5.45 -7c2.35,-3.12 7.29,-8.95 9.18,-11.78 0.83,0.55 2.09,2.38 2.59,3.36 0.69,1.35 -0.06,1.36 -1.82,3.73 -0.35,0.46 -0.52,0.64 -0.88,1.1l-6.41 8.22c-0.6,0.78 -1.31,1.48 -1.78,2.37zm-9.69 -1.18c-1.08,-1.62 -0.57,-0.5 -1.77,-2.77 1.97,-2.27 8.08,-10.72 10.11,-13.42l3.33 -4.57c0.47,0.23 1.21,0.28 1.86,0.51 0.76,0.27 0.99,0.51 1.7,0.68 -0.21,0.89 -0.33,0.75 -0.82,1.35l-12.43 15.85c-0.36,0.47 -1.59,2.08 -1.98,2.37zm-2.96 -6.73c-0.07,-0.81 -0.2,-0.44 -0.2,-1.18 0,-3.72 1.19,-6.13 3.16,-8.7 1.36,-1.77 4.82,-3.91 7.71,-4.15 -0.37,0.56 -0.81,1.09 -1.27,1.69 -1.27,1.7 -8.77,11.92 -9.4,12.34zm-3.36 -2.37c0,3.83 0.27,5.13 1.91,8.37 0.36,0.72 0.88,1.27 1.05,1.91l-3.55 0c-0.7,-1.31 -1.3,-2.67 -1.76,-4.17 -1.78,-5.71 -0.46,-11.43 2.62,-16.11 0.45,-0.68 0.57,-0.75 1.05,-1.33 1.85,-2.19 3.87,-3.91 6.73,-5.13 1.53,-0.66 3.78,-1.41 5.59,-1.52 3.68,-0.23 0.66,-0.23 4.34,0 3.5,0.22 7.31,2.06 9.95,4.28 0.55,0.46 0.76,0.57 1.28,1.1 1.47,1.47 3.02,3.68 3.86,5.63 2.59,6 2.15,11.59 -0.85,17.25l-3.56 0c0.52,-1.95 2.97,-2.87 2.97,-10.28 0,-7.72 -7.3,-15.02 -15.03,-15.02 -5.2,0 -8.76,1.35 -12.01,4.59 -2.18,2.19 -4.59,6.16 -4.59,10.43zm-6.33 -0.2c0,3.15 0.08,5.45 1.24,8.45 0.3,0.76 0.55,1.22 0.74,2.03 -4.74,0 -5.14,-0.52 -5.14,2.97 0,6.76 6.33,12.85 12.65,12.85l25.3 0c3.52,0 6.95,-2.1 8.75,-3.91 2.88,-2.88 3.91,-5.92 3.91,-10.33 0,-2.17 -2.92,-1.58 -5.14,-1.58 0.83,-3.58 1.97,-2.85 1.97,-10.48 0,-5.54 -2.82,-11.02 -6.47,-14.67 -1.86,-1.86 -3.59,-3.16 -6.11,-4.37 -11.03,-5.29 -24.34,-0.47 -29.59,10.48 -1.02,2.12 -2.11,5.53 -2.11,8.56z"/>
   <path fill="black" d="M76.9 87.97l0 -31.04 6.32 0 0 31.43c0,4.3 -6.32,4.63 -6.32,-0.39zm-3.17 -59.5l12.66 0c0,2.96 -0.35,6.46 -0.6,9.48 -2.92,0 -5.73,-0.56 -5.73,1.59 0,2.15 2.78,1.58 5.53,1.58l-0.96 6.35c-0.36,2.19 -0.73,4.25 -1.21,6.3l-6.72 0c-1.2,-5.14 -2.78,-16.64 -2.77,-21.94 0.01,-2.25 -0.17,-2.32 -0.2,-3.36zm5.54 -21.16c3.08,0 5.73,0.3 8.3,1.58 6.04,3 4.42,3.58 0.57,13.22 -0.27,0.68 -1.1,2.45 -1.16,3.19l-3.36 0c0.24,-1.02 0.42,-2 0.64,-3.11 0.35,-1.75 1.49,-4.79 -1.04,-4.79 -1.69,0 -1.72,1.81 -2.02,3.31 -0.29,1.42 -0.6,3.12 -0.94,4.59l-0.4 0c-0.57,-2.46 -1.04,-7.9 -2.57,-7.9 -2.86,0 -1.93,2.3 -1.46,4.62 0.23,1.19 0.42,2.2 0.67,3.28l-3.16 0 -2.4 -5.9c-0.38,-0.95 -0.78,-1.94 -1.19,-2.96 -0.33,-0.84 -1,-2.22 -1.19,-3.18 -0.78,-3.84 7.83,-5.95 10.71,-5.95zm-14.04 4.95c0,2.47 0.5,2.91 1.5,5.42l3.39 8.47c0.44,1.05 0.47,1.08 0.46,2.51 -0.01,1.05 -0.03,2.13 -0.02,3.17l0.96 10.9c0.45,3.64 0.98,6.97 1.67,10.4 0.13,0.64 0.41,1.83 0.5,2.46l0.04 32.98c-0.01,3.73 2.74,6.32 6.73,6.32 3.08,0 5.86,-2.86 5.93,-5.93 0.21,-9.09 0,-20.59 0,-30.05 0,-3.57 -0.19,-2.14 0.51,-5.62 0.69,-3.45 2.14,-12.01 2.25,-15.73 0.06,-1.74 0.41,-3.94 0.4,-5.73 -0.02,-5.81 -0.27,-3.78 2.17,-9.89 2.94,-7.33 6.25,-11.72 -2.21,-15.78 -5.88,-2.82 -12.87,-2.99 -18.74,-0.03 -1.25,0.63 -2.55,1.26 -3.59,2.14 -0.83,0.69 -1.95,2.52 -1.95,3.99z"/>
   <path fill="black" d="M56.93 75.91l9.49 0 0 15.81 -9.49 0 0 -15.81zm0 -6.33l9.49 0 0 3.17 -9.49 0 0 -3.17zm1.58 -19.17c0,-1.01 1.13,-0.33 1.86,-0.08 2.22,0.76 4.47,1.05 4.47,5.02l0 11.07 -6.33 0 0 -16.01zm-3.16 16.01c-0.97,0.08 -1.58,0.55 -1.58,1.58l0 25.3c0,0.96 0.62,1.59 1.58,1.59l12.65 0c0.96,0 1.58,-0.63 1.58,-1.59l0 -25.3c0,-1.03 -0.61,-1.5 -1.58,-1.58 0,-3.11 0.38,-11.74 -0.27,-13.96 -0.53,-1.8 -1.73,-3.09 -3.12,-4 -1.3,-0.84 -4.24,-1.81 -6.29,-1.81 -1.31,0 -2.65,1.46 -2.9,2.64 -0.2,0.97 -0.07,15.43 -0.07,17.13z"/>
   <path fill="black" d="M49.22 22.14c1.17,-0.31 2.37,-2.17 2.97,-2.57 0.98,0.66 0.48,0.76 2.1,2.05 0.52,0.41 0.16,0.33 0.86,0.52l0 0.4c-0.69,0.18 -0.34,0.11 -0.86,0.52 -0.3,0.25 -0.48,0.36 -0.77,0.61 -0.54,0.48 -0.9,1.12 -1.33,1.44 -0.54,-0.4 -1.85,-2.28 -2.97,-2.57l0 -0.4zm-4.94 0c0,2.1 3.97,2.34 5.87,6 0.47,0.91 0.74,1.91 2.04,1.91 2.41,0 0.19,-1.87 6.09,-5.77 4.65,-3.08 -0.42,-3.67 -2.49,-5.74 -2.33,-2.33 -1.68,-4.31 -3.6,-4.31 -2.39,0 -1.05,3.54 -5.93,5.93 -0.9,0.44 -1.98,0.68 -1.98,1.98z"/>
   <path fill="black" d="M31.83 31.63c1.16,-0.31 2.36,-2.17 2.96,-2.57 0.74,0.49 1.78,2.25 2.97,2.57l0 0.39c-1.12,0.3 -2.43,2.18 -2.97,2.57 -0.43,-0.31 -0.79,-0.95 -1.33,-1.43 -0.49,-0.42 -1.04,-0.98 -1.63,-1.14l0 -0.39zm-4.95 0c0,2.1 3.97,2.34 5.87,5.99 0.48,0.92 0.74,1.92 2.04,1.92 1.85,0 1.04,-1.36 3.8,-4.11 0.7,-0.69 1.46,-1.11 2.29,-1.67 4.65,-3.08 -0.41,-3.67 -2.48,-5.74 -2.33,-2.33 -1.69,-4.3 -3.61,-4.3 -1.3,0 -1.53,1.08 -1.97,1.98 -2.4,4.88 -5.94,3.54 -5.94,5.93z"/>
   <path fill="black" d="M38.15 7.91c1.17,-0.31 2.37,-2.17 2.97,-2.57 0.73,0.49 1.77,2.25 2.96,2.57l0 0.39c-0.69,0.19 -0.34,0.11 -0.86,0.53 -1.26,1.01 -1.79,1.81 -2.1,2.04 -0.54,-0.39 -1.85,-2.27 -2.97,-2.57l0 -0.39zm-4.94 0c0,2.1 3.97,2.34 5.87,5.99 0.47,0.92 0.74,1.91 2.04,1.91 1.26,0 1.6,-1 2.04,-1.91 1.67,-3.46 5.86,-3.91 5.86,-5.99 0,-2.39 -3.53,-1.05 -5.93,-5.93 -0.44,-0.9 -0.67,-1.98 -1.97,-1.98 -1.92,0 -1.28,1.97 -3.61,4.3 -2.33,2.33 -4.3,1.69 -4.3,3.61z"/>
  </g>
 </g>
</svg>
