<?xml version="1.0" encoding="UTF-8"?>
<!DOCTYPE svg PUBLIC "-//W3C//DTD SVG 1.1//EN" "http://www.w3.org/Graphics/SVG/1.1/DTD/svg11.dtd">
<!-- Creator: CorelDRAW -->
<svg xmlns="http://www.w3.org/2000/svg" xml:space="preserve" width="1600px" height="1419px" version="1.1" shape-rendering="geometricPrecision" text-rendering="geometricPrecision" image-rendering="optimizeQuality" fill-rule="evenodd" clip-rule="evenodd"
viewBox="0 0 54.22 48.1"
 xmlns:xlink="http://www.w3.org/1999/xlink"
 xmlns:xodm="http://www.corel.com/coreldraw/odm/2003">
 <g id="Слой_x0020_1">
  <metadata id="CorelCorpID_0Corel-Layer"/>
  <path fill="black" d="M36.96 42.89c0,-0.29 0.16,-0.77 0.28,-0.99 0.07,-0.13 0.18,-0.32 0.24,-0.4 0.2,-0.26 0.08,-0.21 0.43,-0.31 0.22,0.92 0.5,1.8 0.72,2.67 0.16,0.61 0.92,2.63 0.45,2.63 -1.09,0 -1.3,-0.42 -1.56,-1.31 -0.14,-0.49 -0.56,-1.85 -0.56,-2.29zm-9.64 -1.7l1.38 5.09c0,0.42 -1.26,0.23 -1.55,-0.46 -0.19,-0.45 -0.36,-1.14 -0.49,-1.64 -0.25,-0.97 -0.46,-1.57 0.11,-2.48 0.16,-0.27 0.22,-0.42 0.55,-0.51zm15.68 0.32c0,-0.77 0.35,-1.53 0.95,-1.69 0.01,0.54 1.14,4.17 1.37,5.19 -1.28,0 -1.51,-0.05 -1.78,-1.08 -0.17,-0.66 -0.54,-1.73 -0.54,-2.42zm1.9 -4.45c0,-1.99 -0.32,-3.23 1.38,-4.13l0 5.41c-0.87,0 -1.38,-0.41 -1.38,-1.28zm-10.69 -23.29l2.51 1.09c1.42,0.6 8.41,3.6 8.9,4.02 1.05,0.92 0.66,3.2 0.66,4.95 0,2.47 0,4.94 0,7.41 -0.86,0.07 -2.25,1.09 -2.44,1.8 -0.33,-0.24 -0.14,-0.07 -0.28,-0.56l-1.39 -4.97c-0.15,-0.53 -0.23,-0.88 -0.39,-1.41 -0.12,-0.46 -0.24,-1 -0.44,-1.36 -0.35,-0.62 -5.56,-6.88 -6.22,-8.18 -0.35,-0.69 -0.89,-1.85 -0.91,-2.79zm7.2 28.8c-0.59,-0.39 -1.35,-1.74 -1.7,-2.43 -0.48,-0.96 -0.83,-1.92 -1.2,-3.04 -0.37,-1.08 -0.6,-2.1 -0.93,-3.2l-1.36 -4.88c-0.56,-2.12 -0.85,-1.85 -2.41,-3.95l-4.6 -5.88c-0.72,-0.64 -1.83,0.21 -1.17,1.17 0.92,1.34 3.99,5.07 5.11,6.54 0.99,1.3 1.06,1.07 1.5,2.62l1.84 6.63c0.19,0.77 0.84,2.78 0.89,3.35 -0.74,0.5 -1.17,0.82 -1.62,1.66 -0.55,1.01 -0.38,1.68 -0.28,2.89 -2.33,-1.55 -4.13,-9.91 -5.07,-13.04 -0.21,-0.69 -0.21,-0.59 -0.61,-1.09 -0.26,-0.33 -0.44,-0.57 -0.69,-0.89 -0.27,-0.33 -0.49,-0.61 -0.74,-0.95 -0.49,-0.66 -0.99,-1.25 -1.49,-1.91 -0.43,-0.58 -1.71,-2.37 -2.29,-2.58 -0.52,-0.18 -0.93,-0.06 -1.27,0.26 -0.8,0.72 -0.38,1.6 -0.13,2.52 0.38,1.35 3.55,12.54 3.6,13.13 -2.09,1.4 -2.08,2.43 -1.9,4.55 -1.89,-1.26 -3.17,-6.47 -3.82,-8.57 -0.44,-1.41 -2.05,-1.01 -1.54,0.69 0.92,3.09 2.12,7.63 4.84,9.67 0.2,0.15 0.42,0.33 0.63,0.43 0.31,0.16 0.44,0.1 0.69,0.37 0.14,0.15 0.24,0.39 0.39,0.56 0.54,0.65 1.36,0.88 2.3,0.88 1.37,0 2.43,-0.55 2.03,-1.92l-5.01 -17.98c-0.1,-0.36 -0.4,-1.3 -0.41,-1.71l2.89 3.68c0.66,0.8 0.78,0.77 1.02,1.63 1.17,4.1 2.64,11.46 5.94,13.97 1.07,0.81 1.23,0.58 1.57,1.07 0.44,0.65 0.71,0.89 1.51,1.15 1,0.31 3.59,0.24 3.07,-1.8 -0.14,-0.55 -0.52,-1.58 -0.54,-2.12 0.41,0.28 0.72,0.64 1.25,0.88 1.1,0.51 0.37,0.35 1.16,1.06 0.92,0.82 2.48,0.9 3.39,0.47 1.33,-0.63 0.61,-1.98 0.32,-3.13 -0.28,-1.1 -0.66,-2.26 -0.93,-3.41 0.42,0.21 1.52,0.32 2.09,-0.45 0.39,-0.51 0.24,-1.67 0.24,-2.51 0,-2.26 0.09,-15.84 -0.01,-16.83 -0.16,-1.59 -1.13,-2.54 -2.42,-3.19 -0.62,-0.3 -1.29,-0.54 -1.91,-0.84l-11.68 -5.16c-1.03,-0.48 -1.57,0.08 -1.45,0.8 0.11,0.7 1.16,0.76 1.67,1.1 0.51,0.34 0.2,0.9 0.6,2.26 0.85,2.97 2.58,4.54 4.34,6.88 0.6,0.8 2.72,3.27 2.95,4.04l2.13 7.72c0.22,0.75 0.39,1.41 0.61,2.15 0.2,0.68 0.45,1.53 0.62,2.23 -1,0.27 -1.88,1.7 -2.08,2.9 -0.12,0.75 0.07,0.93 0.07,1.55zm-41.41 -29.97c0,4.06 2.48,7.8 5.95,9.2 2.98,1.2 7.1,3.16 10.22,4.5 1.14,0.49 0.83,0.83 1.55,3.31 0.32,1.09 0.72,3.54 1.45,3.54 1.55,0 0.86,-1.39 0.44,-2.89l-1.12 -4.06c-0.36,-1.27 -1.18,-1.11 -3.13,-2.06l-5.44 -2.4c-2.54,-1.18 -4.85,-1.74 -6.47,-3.9 -2.25,-3.01 -1.61,-5.19 -2.01,-5.73 -0.42,-0.57 -1.44,-0.35 -1.44,0.49zm0 -11.75c0,0.84 0.63,0.85 1.48,0.85 0.81,-0.01 1.63,-0.01 2.44,-0.01 4.07,0 5.56,1.28 9.12,2.74 1.97,0.81 14.71,6.58 15.02,6.58 0.6,0 0.85,-0.36 0.85,-0.84 0,-0.74 -0.57,-0.78 -1.09,-1.03 -3.26,-1.55 -7.53,-3.19 -10.73,-4.73 -0.51,-0.24 -0.95,-0.42 -1.48,-0.64 -0.55,-0.23 -1.05,-0.48 -1.54,-0.68 -0.54,-0.22 -0.99,-0.45 -1.54,-0.68 -5.53,-2.36 -4.99,-2.41 -11.47,-2.41 -0.63,0 -1.06,0.22 -1.06,0.85zm2.12 27.74l0 2.54c-1.14,0 -2.12,-0.23 -2.12,0.85 0,0.96 0.91,0.74 2.12,0.74 0,2.27 -0.32,3.18 0.85,3.18 1.05,0 0.74,-1.28 0.74,-3.18 1.64,0 2.11,0.21 2.11,-0.95 0,-0.87 -1.6,-0.64 -2.11,-0.64 0,-2.27 0.33,-3.17 -0.96,-3.17 -0.25,0 -0.63,0.38 -0.63,0.63zm48.39 -27.95l0 2.54c-1.35,0 -2.11,-0.24 -2.11,0.95 0,0.87 1.6,0.64 2.11,0.64 0,2.27 -0.33,3.17 0.96,3.17 0.92,0 0.63,-1.95 0.63,-3.17 1.36,0 2.12,0.23 2.12,-0.96 0,-0.87 -1.6,-0.63 -2.12,-0.63 0,-2.27 0.33,-3.18 -0.95,-3.18 -0.26,0 -0.64,0.38 -0.64,0.64zm-40.45 16.94c0,1.08 0.98,0.85 2.12,0.85 0,1.6 -0.32,3.17 0.74,3.17 1.17,0 0.85,-1.5 0.85,-3.17 1.19,0 2.11,0.22 2.11,-0.96 0,-0.87 -1.6,-0.63 -2.11,-0.63 0,-1.96 0.33,-3.18 -0.85,-3.18 -1.13,0 -0.68,1.56 -0.73,2.66 -0.05,1.31 -2.13,-0.29 -2.13,1.26zm29.33 -10.7c-0.95,0 -1.08,-1.48 0,-1.48 1.15,0 0.82,1.48 0,1.48zm-2.43 -0.84c0,1.14 0.65,2 1.49,2.32 1.1,0.4 2,0.09 2.67,-0.6 1.47,-1.52 0.38,-4.05 -1.83,-4.05 -1.21,0 -2.33,1.12 -2.33,2.33zm-25.52 29.86c-1,0 -1.32,-1.48 0.1,-1.48 0.74,0 0.85,1.48 -0.1,1.48zm-2.44 -1.17l0 0.64c0,2.67 4.77,3.23 4.77,-0.42 0,-1.78 -2.49,-3.04 -3.95,-1.62 -0.32,0.3 -0.82,0.85 -0.82,1.4z"/>
 </g>
</svg>
