<?xml version="1.0" encoding="UTF-8"?>
<!DOCTYPE svg PUBLIC "-//W3C//DTD SVG 1.1//EN" "http://www.w3.org/Graphics/SVG/1.1/DTD/svg11.dtd">
<!-- Creator: CorelDRAW -->
<svg xmlns="http://www.w3.org/2000/svg" xml:space="preserve" width="1600px" height="1600px" version="1.1" shape-rendering="geometricPrecision" text-rendering="geometricPrecision" image-rendering="optimizeQuality" fill-rule="evenodd" clip-rule="evenodd"
viewBox="0 0 93.55 93.55"
 xmlns:xlink="http://www.w3.org/1999/xlink"
 xmlns:xodm="http://www.corel.com/coreldraw/odm/2003">
 <g id="Слой_x0020_1">
  <metadata id="CorelCorpID_0Corel-Layer"/>
  <g id="_2330169592064">
   <path fill="black" d="M65.96 19.55c0,1.12 2.53,2.94 3.48,-1.09 0.68,0.36 1.14,0.73 1.82,1.09 -0.55,2.38 -4.02,11.23 -4.02,12.61 0,0.74 2.37,8.41 2.77,9.66 0.99,3.11 1.88,6.44 2.87,9.55 2.14,6.68 2.54,9.39 5.45,16.29 1.14,2.7 3.16,1.64 3.16,-0.05 0,-0.77 -2.37,-5.78 -2.37,-6.4 0,-0.25 0.93,-3.07 1.06,-3.51 1.97,-7.11 4.5,-14.65 6.54,-21.78 1.43,-5.02 1.4,-2.99 -0.95,-10.04 -0.38,-1.14 -0.67,-2.01 -1.05,-3.15 -0.36,-1.07 -0.79,-2.15 -1.03,-3.18 0.68,-0.36 1.14,-0.73 1.82,-1.09 0.13,0.53 0.38,1.03 0.58,1.62 0.2,0.6 0.41,1.05 0.64,1.73 0.42,1.24 0.8,2.27 1.27,3.48 0.29,0.76 2.45,6.65 2.45,6.87 0,1.14 -2.61,13.49 -2.88,14.85l-5.21 26.03c-1.39,6.99 0.86,13.37 -1.73,16.18 -1.6,1.74 -4.42,1.9 -6.22,0.1 -0.74,-0.74 -1.22,-1.78 -1.32,-3.08 -0.19,-2.65 -0.01,-6.2 0,-8.95 0.01,-3.05 -2.01,-11.78 -2.7,-15.21 -0.99,-4.98 -1.97,-9.86 -2.95,-14.77l-2.22 -11.12c-1.39,-6.93 -0.17,-3.74 -0.17,-5.86 0,-1.16 -2.06,-2.37 -2.98,-0.42 -1.17,2.45 -0.53,3.41 0.01,6.13 0.28,1.4 0.52,2.6 0.79,3.96l6.43 32.13c1.09,5.47 0.87,3.05 0.87,8.82 0,1.58 0,3.16 0,4.75 -0.01,1.96 0.12,2.77 0.85,4.08 1.33,2.39 3.57,3.61 5.87,3.77l1.12 0c3.51,-0.25 6.81,-2.91 6.78,-7.48l0.02 -9.67c0.12,-1.18 0.55,-2.8 0.81,-4.12l4.81 -24.06c0.54,-2.7 1.1,-5.46 1.62,-8.07 0.32,-1.63 1.5,-6.91 1.5,-8.17 0,-0.57 -4.12,-11.38 -4.86,-13.59 -1.75,-5.19 -1.76,-4.62 -7.27,-0.93 -2.04,1.37 -0.57,3.35 1.01,8.1 2.88,8.64 2.59,4.83 0.49,12.41 -0.52,1.85 -5.19,16.88 -5.26,17.76l-0.37 0c-0.09,-1.12 -6.94,-23.05 -6.94,-23.39 0,-1.17 4.2,-11.89 4.2,-13.34 0,-1.19 -1.3,-1.72 -2.56,-2.55 -3.03,-2.03 -3.96,-2.98 -5.09,0.2 -0.23,0.64 -0.94,2.22 -0.94,2.9z"/>
   <path fill="black" d="M0 6.76l0 3.84c0,0.89 1.54,1.71 2.54,0.71 1.18,-1.19 -0.76,-4.61 1.7,-7.07 2.7,-2.71 7.45,-0.96 7.45,3.43l0 13.34c0,1.27 -5.84,5.06 -5.84,6.76 0,0.89 0.58,1.47 1.46,1.47 1.39,0 2.74,-2.56 4.38,-3.66l0 8.41c0.01,1.33 0.25,1.7 -0.49,2.43 -0.98,0.98 -5.35,4.84 -5.35,5.97 0,0.89 0.58,1.46 1.46,1.46 1.39,0 2.74,-2.55 4.38,-3.65l0 8.41c0.02,2.62 0.23,1.69 -3.33,5.25 -0.67,0.67 -2.51,2.1 -2.51,3.15 0,0.88 0.58,1.46 1.46,1.46 0.99,0 1.75,-1.11 2.33,-1.69 0.69,-0.69 1.27,-1.44 2.05,-1.96l0.01 30.15c0.04,7.95 -8.78,6.81 -8.78,0.91l0 -16.26c0,-1.27 5.85,-5.06 5.85,-6.76 0,-0.89 -0.58,-1.46 -1.46,-1.46 -1.39,0 -2.75,2.55 -4.39,3.65l0 -8.41c-0.01,-2.62 -0.22,-1.69 3.34,-5.25 0.67,-0.67 2.51,-2.1 2.51,-3.15 0,-0.88 -0.58,-1.46 -1.46,-1.46 -1.39,0 -2.75,2.55 -4.39,3.65l0 -8.4c-0.01,-2.63 -0.22,-1.7 3.34,-5.26 0.67,-0.67 2.51,-2.1 2.51,-3.15 0,-0.88 -0.58,-1.46 -1.46,-1.46 -1.39,0 -2.75,2.56 -4.39,3.65l0 -12.61c0.02,-1.53 0.07,-2.73 -1.46,-2.73 -0.88,0 -1.46,0.57 -1.46,1.46l0 64.86c0,3.37 3.39,6.76 6.76,6.76l1.1 0c3.37,0 6.76,-3.39 6.76,-6.76l0 -80.03c0,-3.37 -3.39,-6.76 -6.76,-6.76l-1.1 0c-3.37,0 -6.76,3.39 -6.76,6.76z"/>
   <path fill="black" d="M26.31 40.2c0,-5.25 -0.59,-3.89 1.78,-6.26 1,-0.99 3.09,-3.32 4.07,-3.97 0,1.12 0.11,2.99 0.01,4.02 -0.08,0.76 -0.29,0.76 -0.78,1.23 -1.31,1.25 -4.04,4.28 -5.08,4.98zm2.61 -40.2l0.63 0c0.87,0.26 1.78,1.56 2.98,4.02 2.04,4.17 2.55,7.3 2.55,12.06l0 36.54c0.9,0.08 1.46,0.51 1.46,1.47 0,2.19 0.45,4.38 -1.46,4.38 -1.73,0 -1.46,-1.72 -1.46,-2.92l-8.77 0 0 30.33c0,4.14 4.33,6.13 7.26,3.61 0.73,-0.62 1.17,-1.48 1.41,-2.61 0.27,-1.29 0.1,-13.6 0.1,-15.98 0,-0.67 -0.03,-1.37 -0.01,-2.03 0.05,-2.57 2.93,-1.78 2.93,-0.53l0 18.45c0,3.37 -3.39,6.76 -6.76,6.76l-1.09 0c-3.37,0 -6.76,-3.39 -6.76,-6.76l0 -32.7c0,-0.89 0.57,-1.47 1.46,-1.47l8.77 0 0 -13.88c-1.08,0.72 -3.5,3.41 -4.61,4.52 -1.4,1.39 -1.25,0.73 -1.24,3.33 0.01,1.65 0.2,3.11 -1.46,3.11 -0.88,0 -1.46,-0.58 -1.46,-1.46l0 -34.54c0,-2.62 1.01,-6.19 1.83,-8.03 0.25,-0.58 0.48,-1.16 0.78,-1.78 1.15,-2.3 2.04,-3.63 2.92,-3.89zm-2.61 31.43c0,-3.36 -0.52,-4.02 0.78,-5.26 1.3,-1.25 4.03,-4.28 5.07,-4.97 0,5.24 0.59,3.88 -1.78,6.25 -1,1 -3.09,3.32 -4.07,3.98zm0 -8.77c0,-5.25 -0.4,-9.89 1.21,-14.51 0.27,-0.78 1.19,-3.2 1.72,-3.58 1.48,1.08 2.92,8.04 2.92,10.78 0,2.32 -0.01,1.56 -2.79,4.34 -0.79,0.8 -2.25,2.43 -3.06,2.97z"/>
   <path fill="black" d="M46.78 88.99l0 -5.49c0,-2.12 2.92,-2.12 2.92,0l0 5.49c0,2.12 -2.92,2.12 -2.92,0zm-1.49 -88.99l0.94 0c2.6,0.3 6.39,2.83 6.39,6.76 0,8.05 0.68,7.86 -2.92,7.86l0 5.85c1.2,0 2.92,-0.28 2.92,1.46l0 5.84c0,0.89 -0.57,1.47 -1.46,1.47 -2.04,0 -1.46,-2.74 -1.46,-5.85l-2.92 0 0 46.78 2.92 0 0 -30.7c0,-1.96 2.92,-1.96 2.92,0l0 32.16c0,1.74 -1.72,1.46 -2.92,1.46l0 5.66c0,0.83 2.92,1.18 2.92,4.21l0 6.57c0,2.01 -2.01,4.02 -4.02,4.02 -2.83,0 -4.75,-1.78 -4.75,-4.02l0 -6.57c0,-0.99 0.59,-2.02 1.06,-2.6 0.31,-0.37 0.58,-0.53 1.04,-0.79 0.46,-0.27 0.83,-0.27 0.83,-0.82l0 -5.66c-1.2,0 -2.93,0.28 -2.93,-1.46l0 -49.7c0,-1.74 1.73,-1.46 2.93,-1.46l0 -5.85c-1.2,0 -2.93,0.27 -2.93,-1.46l0 -11.7c0,-0.87 0.58,-1.34 1.44,-1.46zm1.49 3.29c0.93,0.22 1.69,0.94 2.16,1.67 0.5,0.76 0.76,1.86 0.76,3.08l0 3.65 -2.92 0 0 -8.4z"/>
   <path fill="black" d="M63.95 24.67c0,1.89 1.75,2.09 2.6,1.32 0.9,-0.81 0.5,-2.6 -1.32,-2.6 -0.51,0 -1.28,0.77 -1.28,1.28z"/>
   <path fill="black" d="M33.62 62.49c0,2.52 2.92,2.52 2.92,0 0,-1.53 -2.92,-1.53 -2.92,0z"/>
   <path fill="black" d="M0 16.08c0,2.07 2.92,2.07 2.92,0 0,-1.96 -2.92,-1.96 -2.92,0z"/>
   <path fill="black" d="M49.7 33.62c0,1.96 2.92,1.96 2.92,0 0,-1.96 -2.92,-1.96 -2.92,0z"/>
   <path fill="black" d="M76.01 83.32c0,1.96 2.93,1.96 2.93,0 0,-1.96 -2.93,-1.96 -2.93,0z"/>
  </g>
 </g>
</svg>
