<?xml version="1.0" encoding="UTF-8"?>
<!DOCTYPE svg PUBLIC "-//W3C//DTD SVG 1.1//EN" "http://www.w3.org/Graphics/SVG/1.1/DTD/svg11.dtd">
<!-- Creator: CorelDRAW -->
<svg xmlns="http://www.w3.org/2000/svg" xml:space="preserve" width="1349px" height="1400px" version="1.1" shape-rendering="geometricPrecision" text-rendering="geometricPrecision" image-rendering="optimizeQuality" fill-rule="evenodd" clip-rule="evenodd"
viewBox="0 0 209.9 217.9"
 xmlns:xlink="http://www.w3.org/1999/xlink"
 xmlns:xodm="http://www.corel.com/coreldraw/odm/2003">
 <g id="Слой_x0020_1">
  <metadata id="CorelCorpID_0Corel-Layer"/>
  <g id="_2440208397584">
   <path fill="black" d="M153.95 75.89c0,21.73 -0.06,15.01 9.62,25.41 10.71,11.51 8.95,30.92 -4.6,40.9 -7.29,5.36 -15.57,5.23 -26.34,6.74 -15.09,2.11 -27.95,9.38 -38.15,19.74 -0.8,0.81 -1.35,1.45 -2.19,2.18l-37.27 33.26c-6.39,4.28 -16.66,7.07 -26.23,5.2 -4.58,-0.9 -8.78,-2.32 -12.12,-4.42 -2.62,-1.65 -8.38,-5.11 -8.65,-8.37 9.63,-2.24 23.61,-11.97 30.99,-18.14 7.8,-6.54 16.33,-18.53 21.06,-28.07 2.14,-4.32 4.26,-9.01 6.65,-13.29 1.29,-2.31 2.17,-3.88 3.4,-6.33 4.32,-8.64 14.29,-20.19 21.21,-27.93 8.01,-8.97 14.43,-28.54 18.79,-40.56 2.49,-6.88 21.46,-54.96 21.46,-57.35 0,-2.94 -3.93,-4.88 -6.61,-2.73 -1.3,1.04 -6.1,14.48 -7.16,17.18l-16.74 44.07c-11.58,29.6 -7.06,23.82 -26.07,46.42 -1.05,1.25 -1.77,1.75 -2.78,3.05 -7.07,9.16 -4.46,6.2 -9.63,14.7 -4.5,7.41 -9.02,19.46 -14.58,27.73 -1.87,2.77 -5.38,7.9 -7.76,10.24 -1.42,1.4 -1.7,1.99 -2.93,3.4 -2.03,2.34 -10.79,9.11 -13.45,10.87 -10.94,7.3 -20.08,8.21 -22.77,13.23 -1.6,2.99 -1.41,6.37 0.29,9.16 1.56,2.57 3.83,4.27 6.07,6.1 15.72,12.86 41.06,13.03 56.37,-0.69 1.52,-1.36 2.45,-1.92 3.9,-3.4l34.79 -31.86c1.62,-1.64 2.2,-2.25 4.11,-3.67 19.64,-14.57 27.55,-10.15 45,-14.34 13.42,-3.23 26.65,-16.76 26.65,-33.19 0,-12.02 -2.94,-19.18 -10.83,-27.12 -1.28,-1.3 -1.57,-1.6 -3.09,-2.75 -1.25,-0.95 -2.14,-1.71 -2.14,-3.7l0 -14.59c0,-1.86 1.47,-3.75 2.36,-4.94 9.17,-12.22 18.42,-26.14 27.45,-38.22 2.19,-2.92 3.96,-5.61 6.12,-8.47 2.11,-2.79 4.07,-5.55 6.1,-8.5 1.13,-1.62 5.65,-7.36 5.65,-8.95 0,-1.79 -1.46,-3.89 -4.38,-3.89 -3.06,0 -4.58,3.82 -7.65,7.92l-20.15 28c-2.3,3.11 -21.76,29.49 -22.76,32.7 -0.63,2 -1.01,4.67 -1.01,7.27z"/>
   <path fill="black" d="M18.72 110.43c-0.26,-1.09 -0.49,-1.12 -0.49,-2.44l0 -18 5.84 0 0 17.52c0,3.74 -2.66,4.21 -5.35,2.92zm-0.49 -53.03l5.84 0 0 24.81 -5.84 0 0 -24.81zm-6.32 -49.62l19.46 0 0 1.95c0,13.68 0.48,25.73 0.48,39.4l-19.94 0 0 -41.35zm-7.78 -0.97l0 42.81c0,3.93 2.61,6.54 5.83,7.3 0,6.47 -0.54,49.68 0.5,53.98 2.55,10.47 17.24,11.13 20.87,0.95 1.29,-3.6 0.52,-48.42 0.52,-54.45 1.85,-0.15 4.12,-1.07 5.24,-2.06 0.97,-0.85 2.55,-3.57 2.55,-5.23l0 -42.33c0,-3.8 -3.23,-7.78 -6.81,-7.78l-21.89 0c-3.04,0 -6.81,3.77 -6.81,6.81z"/>
   <path fill="black" d="M19.69 144.96c0,-2.32 1.43,-2.91 1.95,-4.86 6.39,7.35 -1.95,8.47 -1.95,4.86zm-8.27 -0.48c0,14.1 20.92,14.22 20.92,0 0,-3.05 -4.45,-10.01 -6.28,-13.18 -1.22,-2.09 -1.55,-2.87 -4.42,-2.87 -3.35,0 -4.94,4.46 -6.3,6.83 -1.25,2.16 -3.92,6.18 -3.92,9.22z"/>
  </g>
 </g>
</svg>
