<?xml version="1.0" encoding="UTF-8"?>
<!DOCTYPE svg PUBLIC "-//W3C//DTD SVG 1.1//EN" "http://www.w3.org/Graphics/SVG/1.1/DTD/svg11.dtd">
<!-- Creator: CorelDRAW -->
<svg xmlns="http://www.w3.org/2000/svg" xml:space="preserve" width="1086px" height="1600px" version="1.1" shape-rendering="geometricPrecision" text-rendering="geometricPrecision" image-rendering="optimizeQuality" fill-rule="evenodd" clip-rule="evenodd"
viewBox="0 0 123.98 182.75"
 xmlns:xlink="http://www.w3.org/1999/xlink"
 xmlns:xodm="http://www.corel.com/coreldraw/odm/2003">
 <g id="Слой_x0020_1">
  <metadata id="CorelCorpID_0Corel-Layer"/>
  <g id="_2744830396848">
   <g>
    <g>
     <path fill="black" fill-rule="nonzero" d="M123.93 43.37c0,-13.28 -3.94,-23.85 -11.71,-31.4 -12.72,-12.35 -30.98,-12.01 -31.65,-11.96 -15.95,0 -26.82,4.62 -31.88,7.37 -2.24,1.21 -4.67,1.87 -7.23,1.94 -12.45,0.32 -41.42,3.08 -41.41,21.57 -0.03,0.9 -0.64,21.83 3.54,33.31 -0.24,1.29 -0.36,2.61 -0.36,3.94l-0.09 28.24c0,21.15 2.08,42.7 17.15,57.01 2.4,2.28 4.99,4.32 7.63,6.24l0 20.02c0,1.71 1.38,3.1 3.1,3.1 1.71,0 3.09,-1.39 3.09,-3.1l0 -15.74c0.35,0.23 0.7,0.47 1.05,0.7l2.97 2c1.17,0.79 2.32,1.64 3.47,2.48 4.95,3.67 10.08,7.46 17.29,7.46 7.22,0 12.34,-3.79 17.3,-7.46 1.14,-0.84 2.29,-1.69 3.46,-2.48l2.98 -2c0.35,-0.23 0.69,-0.47 1.04,-0.7l0 15.74c0,1.71 1.38,3.1 3.1,3.1 1.71,0 3.09,-1.39 3.09,-3.1l0 -20.02c2.65,-1.92 5.23,-3.96 7.63,-6.24 15.15,-14.38 17.24,-36.07 17.24,-57.36l0 -16.2c0.97,-0.45 1.88,-1.1 2.69,-1.96 7.22,-7.6 6.6,-31.86 6.51,-34.5zm-15.4 52.66c0,19.91 -1.85,40.1 -15.3,52.86 -2.4,2.28 -5.07,4.35 -7.82,6.31 -0.31,0.15 -0.6,0.36 -0.85,0.6 -1.78,1.25 -3.59,2.46 -5.37,3.66l-3.01 2.02c-1.25,0.84 -2.46,1.74 -3.67,2.64 -4.34,3.21 -8.45,6.24 -13.62,6.24 -5.17,0 -9.27,-3.03 -13.61,-6.24 -1.22,-0.9 -2.43,-1.8 -3.67,-2.64l-3.01 -2.02c-4.84,-3.24 -9.85,-6.58 -14.04,-10.57 -14.05,-13.33 -15.22,-34.09 -15.22,-52.5l0.08 -28.24c0,-2.09 0.41,-4.12 1.22,-6.03 2.1,-4.99 7.17,-7.97 12.71,-7.97 1.78,0 3.61,0.31 5.41,0.96 4.72,1.71 13.8,3.75 30.22,3.75 16.41,0 25.49,-2.04 30.21,-3.75 7.39,-2.66 15.34,0.41 18.12,7.01 0.81,1.91 1.22,3.94 1.22,6.03l0 27.88 0 0zm6.2 -25.51l0 -2.37c0,-2.92 -0.58,-5.76 -1.71,-8.44 -4.06,-9.63 -15.46,-14.21 -25.93,-10.42 -4.26,1.54 -12.6,3.38 -28.11,3.38 -15.52,0 -23.85,-1.84 -28.11,-3.38 -8.65,-3.14 -17.94,-0.55 -23.2,5.88 -1.83,-10.56 -1.44,-23.94 -1.43,-24.19 0,-13.5 27.08,-15.26 35.39,-15.47 3.54,-0.1 6.91,-1 10.01,-2.68 4.55,-2.48 14.35,-6.62 29.02,-6.62 0.16,-0.04 16.38,-0.34 27.24,10.2 6.53,6.35 9.84,15.41 9.84,27.07 0.26,7.8 -0.41,20.51 -3.01,27.04z"/>
    </g>
   </g>
   <g>
   </g>
   <g>
   </g>
   <g>
   </g>
   <g>
   </g>
   <g>
   </g>
   <g>
   </g>
   <g>
   </g>
   <g>
   </g>
   <g>
   </g>
   <g>
   </g>
   <g>
   </g>
   <g>
   </g>
   <g>
   </g>
   <g>
   </g>
   <g>
   </g>
  </g>
 </g>
</svg>
