<?xml version="1.0" encoding="UTF-8"?>
<!DOCTYPE svg PUBLIC "-//W3C//DTD SVG 1.1//EN" "http://www.w3.org/Graphics/SVG/1.1/DTD/svg11.dtd">
<!-- Creator: CorelDRAW -->
<svg xmlns="http://www.w3.org/2000/svg" xml:space="preserve" width="1569px" height="1600px" version="1.1" shape-rendering="geometricPrecision" text-rendering="geometricPrecision" image-rendering="optimizeQuality" fill-rule="evenodd" clip-rule="evenodd"
viewBox="0 0 75.74 77.25"
 xmlns:xlink="http://www.w3.org/1999/xlink"
 xmlns:xodm="http://www.corel.com/coreldraw/odm/2003">
 <g id="Слой_x0020_1">
  <metadata id="CorelCorpID_0Corel-Layer"/>
  <g id="_2440197688176">
   <path fill="black" d="M40.44 17.2l0.3 -1.51c0.11,-0.24 0.16,-0.28 0.3,-0.45 0,1.16 0.01,2.31 0,3.47 -0.01,1.55 0.08,1.93 0.65,2.97 1.35,2.46 4.62,3.33 7.05,1.71 0.92,-0.61 1.17,-0.86 1.71,-1.91 0.56,-1.08 0.56,-1.38 0.55,-2.92 0,-1.21 0,-2.42 0,-3.62 0.14,0.16 0,-0.05 0.19,0.26 0.42,0.65 0.71,1.62 0.71,2.45l0 57.34 -11.46 0 0 -57.79zm-8.57 -17.2l0.94 0c1.45,0.08 2.84,0.56 3.67,1.39 1.38,1.37 0.46,2.94 0.86,3.97 0.1,0.25 0.92,0.96 1.16,1.26 0.36,0.44 0.68,0.89 0.96,1.45 0.65,1.31 0.83,2.12 0.83,4 0.9,-0.61 0.77,-0.69 0.75,-2.11 -0.02,-1.16 0.07,-1.62 0.58,-2.29 1.35,-1.81 5.59,-2.43 8.18,-0.58 1.5,1.07 1.2,1.96 1.2,4.38 2.35,1.24 3.33,4.69 3.32,7.39 -0.01,3.52 0,7.04 0,10.56 1.35,-0.9 0.18,-1.33 0.69,-3.23 0.65,-2.44 4.95,-3.42 7.91,-2.05 3.46,1.6 0.93,3.8 2.44,5.25 1.36,1.31 2.54,3.1 2.54,5.16l0 41.8c0,0.36 -0.54,0.9 -0.91,0.9l-55.22 0c-0.9,0 -1.21,-0.61 -1.21,-1.51l0 -12.37c0,-1.7 2.42,-1.7 2.42,0l0 11.62 11.31 0 0 -52.66c0,-0.63 -0.23,-1.73 -0.6,-2.26 0,2.25 0.17,4.81 -0.66,6.28 -2.04,3.59 -6.94,3.4 -8.8,0.01 -0.9,-1.64 -0.65,-3.86 -0.65,-6.29 -0.19,0.22 -0.16,0.17 -0.29,0.47 -0.55,1.3 -0.31,5.33 -0.31,7.07 0,0.82 2.84,3.94 4.37,4.84 0.55,0.32 1.36,0.79 1.36,1.65 0,1.82 -1.26,1.43 -3.08,3.26l-0.88 0.92c-0.33,0.34 -1.48,1.88 -1.65,2.28 -0.47,1.06 0.16,15.35 -0.13,17.52 -0.2,1.46 -2.28,1.52 -2.41,-0.14l0 -13.73c0,-1.1 0.26,-2.94 -0.17,-3.75 -0.38,-0.72 -2,-2.76 -2.63,-3.26 -1.75,-1.38 -2.93,-1.7 -2.93,-2.95 0,-1.87 3.33,-2 5.56,-6.21 0.88,-1.66 -1.44,-7.35 2.71,-11.32 1.36,-1.31 -0.65,-3.42 1.93,-5 2.52,-1.55 6.3,-1.26 7.95,0.61 1.5,1.7 -0.12,3.46 1.31,4.42 0,-2.07 -0.18,-5.15 0.22,-6.88 0.35,-1.5 1.53,-3.61 2.8,-4.29 0,-2.14 -0.22,-3.04 0.94,-4.19 0.85,-0.85 2.21,-1.31 3.62,-1.39zm-5.16 11.32c0,-0.64 0.17,-1.62 0.6,-2.12 0,2.47 -0.26,4.69 0.6,6.35 1.91,3.69 6.99,3.44 8.81,0.04 0.81,-1.52 0.55,-4.38 0.55,-6.54 0.53,0.62 0.75,2.06 0.75,2.87l0 63.07 -11.31 0 0 -63.67zm30.63 15.24c0.5,-0.14 0.49,-0.31 1.14,-0.52 1.61,-0.51 2.87,-0.18 4.14,0.67l-0.01 8.61c0,0.49 -0.01,0.83 0.2,1.15 0.31,0.45 2.1,1.23 2.08,-1.15 -0.01,-0.91 -0.01,-1.82 -0.01,-2.73 0.29,0.34 0.4,0.72 0.54,1.27 0.15,0.6 0.22,0.93 0.22,1.6l0 39.53 -11.32 0 0 -40.14c0,-0.64 0.18,-1.62 0.6,-2.11 0,1.27 -0.12,3.32 0.04,4.49 0.17,1.3 0.58,2.18 1.48,3.04 3.43,3.29 7.87,0.4 5.53,-1 -1.04,-0.62 -2.97,1.33 -4.39,-1.34 -0.5,-0.94 -0.24,-9.91 -0.24,-11.37zm-49.49 7.54c1.19,-0.32 3.65,-3.58 3.92,-3.77 0.36,0.24 2.66,3.43 3.92,3.77l0 0.3c-0.67,0.18 -1.57,1.2 -2.07,1.7l-1.85 2.07c-0.41,-0.29 -2.62,-3.42 -3.92,-3.77l0 -0.3zm11.16 -7.54c-0.93,0 -1.5,0.02 -2.23,-0.64 -0.3,-0.28 -0.79,-1.1 -0.79,-1.63l0 -10.11c0,-1.46 5.28,-1.35 5.28,0l0 9.81c0,1.27 -1.1,2.57 -2.26,2.57zm24.29 -8.45l0 -8.3c0,-2.14 5.44,-1.7 5.44,-0.3l0 9.05c0,4.03 -3.69,3.86 -4.84,2.27 -0.44,-0.6 -0.6,-1.66 -0.6,-2.72zm-10.86 -2.27c-1.66,0 -2.72,-1.14 -2.72,-2.26l0 -10.11c0,-1.43 5.29,-1.78 5.29,0.3l0 9.36c0,1.44 -1.11,2.71 -2.57,2.71z"/>
   <path fill="black" d="M68.95 14.03c0.36,1.34 3.91,4.21 3.93,4.23 -0.59,0.15 -1.81,1.24 -2.23,1.69l-1.7 2.23c-0.35,-0.26 -2.63,-3.54 -4.07,-3.92l2.15 -1.93c0.45,-0.44 0.59,-0.64 0.99,-1.13l0.93 -1.17zm-0.15 11.02c1.44,0 1.55,-1 2.7,-2.44 3,-3.75 4.24,-2.28 4.24,-4.65 0,-1.36 -1.32,-1.28 -2.6,-2.53 -2.72,-2.64 -3.49,-5.5 -5.44,-3.71 -0.47,0.44 -1.05,1.69 -2.33,2.95 -1.84,1.83 -2.31,1.65 -2.92,2.21 -1.09,1.01 -0.56,2.25 0.97,3.14 3.43,1.99 3.61,5.03 5.38,5.03z"/>
   <path fill="black" d="M3.02 9.66c1.89,-1.27 2.55,-2.68 3.02,-3.02 0.48,0.72 2.15,2.79 3.01,3.02 -0.22,0.33 -2.59,2.14 -2.86,3.17 -0.64,-0.17 -0.81,-0.82 -1.55,-1.63 -0.57,-0.62 -1.2,-0.91 -1.62,-1.54zm-3.02 -0.15c0,2.14 1.06,1.26 2.98,3.35 1.36,1.48 2.59,4.83 4.72,1.78 2.96,-4.26 4.37,-2.9 4.37,-4.98 0,-1.38 -1.79,-1.51 -2.98,-2.91 -0.26,-0.31 -0.31,-0.43 -0.6,-0.75 -1.32,-1.47 -0.83,-2.23 -2.91,-2.23 -0.63,0 -1.15,0.99 -1.38,1.33 -2.34,3.49 -4.2,2.87 -4.2,4.41z"/>
   <path fill="black" d="M42.1 42.7c0,0.8 0.39,1.36 1.2,1.36l5.44 0c1.62,0 1.75,-2.42 -0.46,-2.42 -1.26,0 -4.9,-0.2 -5.61,0.28 -0.18,0.11 -0.57,0.59 -0.57,0.78z"/>
   <path fill="black" d="M30.33 39.38c2.22,0 5.88,0.51 5.88,-1.21 0,-0.73 -0.47,-1.2 -1.2,-1.2l-5.59 0c-0.41,0 -1.25,0.65 -0.94,1.53 0.25,0.73 0.93,0.88 1.85,0.88z"/>
   <path fill="black" d="M14.79 42.85c0,0.69 0.36,1.21 1.2,1.21l5.28 0c1.58,0 1.87,-2.42 -0.45,-2.42l-4.22 0c-1.02,0 -1.81,0.19 -1.81,1.21z"/>
   <path fill="black" d="M57.19 55.22l5.43 0c1.69,0 1.41,-2.26 0.3,-2.26l-5.73 0c-1.56,0 -1.51,2.26 0,2.26z"/>
   <path fill="black" d="M43.46 46.02c0,1.6 2.17,1.21 3.92,1.21 1.62,0 1.75,-2.42 -0.45,-2.42 -1.04,0 -3.47,-0.29 -3.47,1.21z"/>
   <path fill="black" d="M31.69 42.55c1.03,0 3.16,0.23 3.16,-1.21 0,-1.62 -1.96,-1.2 -4.07,-1.2 -0.95,0 -2.02,2.41 0.91,2.41z"/>
   <path fill="black" d="M16.14 46.02c0,1.58 1.75,1.21 3.78,1.21 1.5,0 1.93,-2.42 -0.46,-2.42 -1.36,0 -3.32,-0.28 -3.32,1.21z"/>
   <path fill="black" d="M58.39 58.39c2.51,0 4.08,0.43 4.08,-1.36 0,-1.27 -2.49,-0.9 -3.93,-0.9 -1.73,0 -1.22,2.26 -0.15,2.26z"/>
  </g>
 </g>
</svg>
