<?xml version="1.0" encoding="UTF-8"?>
<!DOCTYPE svg PUBLIC "-//W3C//DTD SVG 1.1//EN" "http://www.w3.org/Graphics/SVG/1.1/DTD/svg11.dtd">
<!-- Creator: CorelDRAW -->
<svg xmlns="http://www.w3.org/2000/svg" xml:space="preserve" width="1600px" height="1431px" version="1.1" shape-rendering="geometricPrecision" text-rendering="geometricPrecision" image-rendering="optimizeQuality" fill-rule="evenodd" clip-rule="evenodd"
viewBox="0 0 238.11 213.02"
 xmlns:xlink="http://www.w3.org/1999/xlink"
 xmlns:xodm="http://www.corel.com/coreldraw/odm/2003">
 <g id="Слой_x0020_1">
  <metadata id="CorelCorpID_0Corel-Layer"/>
  <path fill="black" d="M84.18 159.47c0,2.47 1.2,4.18 3.72,4.18 2.52,0 5.69,-4.07 8.25,-6.62 1.34,-1.34 6.43,-7.33 8.02,-7.33l33.02 0c4.3,0 -0.6,19.53 -11.16,19.53l-50.69 0c-8.86,0 -15.56,-10.94 -16.28,-19.53 11.63,0 24.13,-4.83 33.29,-10.42 3.15,-1.92 5.6,-4.33 8.57,-6.32l4.28 4.55c-2.46,3.62 -21.02,19.99 -21.02,21.96zm-84.18 -12.66l0 -1.31c0.22,-1.29 1.13,-2.45 2.82,-2.74l37.17 -0.03c21.1,0 36.02,0.11 51.83,-11.89 3.56,-2.7 19.09,-17.77 21.72,-21.06 2.9,-3.63 8.01,-7.55 10.17,-10.77 -1.81,-1.21 -15.58,-14.75 -16.04,-16.55 -1.13,-4.36 5.71,-5.79 10.93,-8.08 6.02,-2.64 12.35,-5.06 18.12,-7.93 1.5,-0.74 2.88,-1.19 4.51,-2 1.59,-0.8 2.86,-1.45 4.33,-2.18 4.28,-2.13 12.56,-8.37 12.56,0 0,2.56 -11.82,7.88 -14.35,8.9l-20.93 9.3c-1.49,0.62 -3.73,1.5 -5.3,2.38l38.25 38.02c0.18,-2.15 6.46,-15.01 7.44,-17.21 2.53,-5.69 5.2,-10.83 7.91,-16.28 5.4,-10.89 19.6,-31.07 27.78,-39.18 1.22,-1.21 1.92,-1.84 2.92,-3.14 2.81,-3.69 8.41,-8.65 11.97,-12.2 4.14,-4.15 7.95,-7.95 12.09,-12.1 1.79,-1.78 4.72,-3.96 5.06,-7 0.36,-3.25 -2.21,-6.37 -5.41,-6.37 -4.57,0 -10.85,7.84 -15.23,12.21 -4.68,4.69 -9.03,9.03 -13.72,13.72l-25.79 22.11c-4.95,3.74 -7.57,1.93 -7.57,-1.53 0,-2.84 2.22,-3.41 4.05,-4.78 1.81,-1.34 3.26,-2.37 5.05,-3.78l36.35 -34.34c5.41,-5.4 12.48,-14.82 22.61,-9.35 3.76,2.03 6.81,6.08 6.81,10.4 0,5.73 -0.91,7.69 -5.23,11.97 -6.27,6.21 -26.57,26.13 -30.78,31.54l-11.23 13.89c-11.24,14.96 -22.72,39.68 -30.08,57.34 -1.54,3.69 -3.6,6.18 -7.91,2.11 -0.87,-0.81 -0.99,-1.2 -1.67,-2.05l-12.51 -12.38 -28.02 28.26c7.29,0 14.58,0 21.86,0 3.75,0 7.22,-0.55 9.59,1.1 7.83,5.46 1.95,19.43 -0.96,23.8 -4.09,6.16 -7.54,7.13 -13.19,8.67 -2.64,0.73 -2.86,4.19 -7.21,9.53 -7.51,9.23 -17.08,16.13 -28.39,19.97 -5.65,1.93 -11.01,3.37 -17.44,4.43 -21.31,3.5 -47.97,2.72 -70.75,2.72 -2.25,0 -4.19,-1.32 -4.19,-3.72 0,-5.34 7.78,-3.72 16.28,-3.72 28.74,0 72.68,2.55 93.59,-18.49 3.51,-3.52 5.84,-5.79 8.25,-10.34 -12.4,0 -24.8,-0.01 -37.2,0 -11.21,0 -18.61,-2.58 -24.46,-12.28 -1.65,-2.74 -3.34,-6.81 -3.97,-9.99 -0.98,-4.96 0.41,-4.81 -4.57,-4.72 -6.29,0.1 -44.51,0.49 -46.16,-0.36 -0.98,-0.5 -1.58,-1.47 -1.76,-2.52zm110.33 -14.2l-4.4 -4.67c2.36,-3.46 8.33,-8.15 11.38,-11.61l5.58 -6.04c1.86,-1.86 3.89,-4.33 5.93,-5.7l4.76 4.54 -23.25 23.48z"/>
 </g>
</svg>
