<?xml version="1.0" encoding="UTF-8"?>
<!DOCTYPE svg PUBLIC "-//W3C//DTD SVG 1.1//EN" "http://www.w3.org/Graphics/SVG/1.1/DTD/svg11.dtd">
<!-- Creator: CorelDRAW -->
<svg xmlns="http://www.w3.org/2000/svg" xml:space="preserve" width="1600px" height="1467px" version="1.1" shape-rendering="geometricPrecision" text-rendering="geometricPrecision" image-rendering="optimizeQuality" fill-rule="evenodd" clip-rule="evenodd"
viewBox="0 0 70.76 64.86"
 xmlns:xlink="http://www.w3.org/1999/xlink"
 xmlns:xodm="http://www.corel.com/coreldraw/odm/2003">
 <g id="Слой_x0020_1">
  <metadata id="CorelCorpID_0Corel-Layer"/>
  <g id="_2440200431712">
   <path fill="black" d="M0 42.65c0,2.35 3.27,0.1 4.24,-0.31l3.22 -1.48c0.26,0.96 3.09,4.45 3.87,4.97 -0.38,0.57 -0.89,1 -1.46,1.44l-3.79 3.39c-1.22,0.93 -0.26,2.9 1.37,1.65l5.54 -4.82c0.53,0.28 0.79,0.55 1.28,0.93 0.51,0.37 0.85,0.63 1.37,0.98 0.6,0.39 2.25,1.51 2.88,1.68 -0.11,1.27 -4.57,6.74 -4.2,7.79 0.2,0.58 1.3,1.31 1.99,0.23 0.2,-0.31 0.37,-0.61 0.58,-0.94l3.56 -5.97c0.21,0.01 4.24,1.67 5.95,2.07 -0.03,1.1 -2.25,8.1 -2.16,8.66 0.14,0.98 0.86,0.88 1.33,0.88 0.9,0 1.52,-3.46 1.71,-4.23l1.33 -4.76c0.97,0.08 2.14,0.45 3.19,0.54 1.23,0.12 2.26,0.29 3.58,0.29l0 8.02c0,1.61 2.21,1.61 2.21,0l0 -8.02c2.31,0 4.9,-0.41 5.94,-0.41 0.22,0.45 0.45,1.66 0.61,2.29 0.22,0.86 0.42,1.66 0.61,2.43 0.44,1.79 0.66,4.21 2.02,3.91 1.49,-0.33 0.57,-2.4 0.08,-4.35 -0.21,-0.82 -0.39,-1.55 -0.61,-2.43 -0.16,-0.65 -0.41,-1.95 -0.64,-2.41 1.3,-0.02 4.57,-1.42 5.53,-1.93 0.35,0.66 0.63,1.07 1.03,1.74 0.39,0.65 0.68,1.16 1.1,1.8 0.53,0.8 1.84,3.37 2.43,3.37 2.72,0 0.65,-2.48 -0.3,-3.98 -0.32,-0.51 -0.56,-0.94 -0.88,-1.47l-4.17 -6.75c-0.9,-1.01 -1.28,-0.29 -3.16,0.37 -1.81,0.63 -3.67,1.09 -5.61,1.3 -1.14,0.13 -2.09,0.07 -3.28,0.17 -5.95,0.49 -11.42,-1.52 -12.03,-1.52 -0.54,0 -0.97,0.51 -0.97,1.1 0,1.06 0.98,1.09 1.84,1.33 4.98,1.44 11.76,1.76 16.92,0.71 2.72,-0.55 3.96,-1.24 5.01,-1.49 0.27,0.4 0.78,1.1 0.83,1.66l-2.85 1.02c-1,0.33 -2.01,0.58 -3.08,0.79 -1.1,0.22 -2.16,0.28 -3.41,0.46l-3.65 0.22c-1,0 -1.39,-0.15 -2.35,-0.14 -4.25,0.04 -10.67,-2.02 -14.28,-3.82 -1.98,-0.99 -4.56,-2.59 -6.14,-4.09 -1.19,-1.14 -1.05,-0.75 -2.56,-2.55 -0.56,-0.66 -1.99,-2.32 -2.17,-3.08 0.6,-0.14 0.78,-0.41 1.38,-0.55 2.04,3.04 4.95,5.52 8.07,7.4 0.59,0.35 2.92,1.72 3.54,1.72 0.77,0 2.24,-1.19 -0.23,-2.4 -0.67,-0.33 -1.29,-0.6 -1.93,-0.98 -1.31,-0.78 -2.24,-1.48 -3.43,-2.37 -0.6,-0.44 -0.91,-0.86 -1.46,-1.3l-1.42 -1.49c-0.94,-1.07 -1.93,-3.07 -2.73,-3.07 -0.45,0 -6.07,2.69 -7.23,3.27l-2.91 1.37c-0.58,0.24 -1.05,0.4 -1.05,1.16z"/>
   <path fill="black" d="M0 11.97c0,0.74 0.5,1.11 0.97,1.11 0.52,0 3.65,-2.3 4.75,-2.98 2.86,-1.76 7.51,-4.06 10.72,-4.9 7.34,-1.92 11.74,-0.81 18.34,1.43l20.52 7.12c1.78,0.59 3.34,1.16 5.14,1.76 6.29,2.1 4.68,2.59 7.86,-0.6 0.4,-0.4 2.46,-2.27 2.46,-2.66 0,-1.11 -0.34,-1.04 -1.76,-2.11 -0.7,-0.54 -1.48,-1.04 -2.22,-1.51 -4.26,-2.67 -7.85,-4.21 -12.59,-5.8 -1.22,-0.41 -4.02,-1.63 -4.02,0.3 0,0.98 1.17,1.09 1.98,1.33 0.9,0.27 1.64,0.5 2.52,0.79 2.43,0.8 5.78,2.21 8.08,3.54 0.37,0.21 0.68,0.35 1.07,0.58 0.73,0.44 1.36,0.79 2.07,1.25l2.1 1.35c-0.14,0.53 -2.26,2.57 -2.76,2.9 -1.31,-0.3 -12.99,-4.49 -15.84,-5.44l-16.03 -5.53c-0.8,-0.26 -1.57,-0.55 -2.29,-0.74 -0.45,-0.13 -0.8,-0.21 -1.22,-0.31 -0.24,-0.06 -0.44,-0.08 -0.69,-0.14 -0.39,-0.1 -0.28,-0.03 -0.55,-0.27 1.86,0 3.41,-0.28 5.39,-0.28 3.51,0 5.89,-0.03 9.46,0.49 1.51,0.22 3.84,0.89 4.47,0.31 0.36,-0.32 0.47,-0.7 0.28,-1.18 -0.31,-0.81 -1.69,-0.83 -2.62,-0.98 -1.03,-0.17 -2.12,-0.34 -3.17,-0.43 -10.6,-0.91 -17.76,-0.21 -27.3,2.95 -4.78,1.58 -9.59,4.12 -13.68,7.05 -0.82,0.59 -1.44,0.88 -1.44,1.6z"/>
   <path fill="black" d="M8.57 31.32c0,0.63 0.53,1.02 1.08,1.02 0.67,0.01 4.44,-0.81 5.28,-0.88 2.72,5.14 6.54,7.96 12.06,10.19 6.59,2.65 15.04,2.71 21.74,0.54 3.02,-0.98 5.3,-2.25 7.65,-3.82 0.99,0.23 4.12,2.35 4.7,2.35 0.67,0 1.11,-0.44 1.11,-1.11 0,-1.02 -1.4,-1.34 -2.1,-1.77 -0.58,-0.35 -3.29,-2 -3.91,-1.88 -0.47,0.09 -0.86,0.48 -1.2,0.73 -3.78,2.88 -10.28,4.86 -15.04,4.86 -5.09,0 -9.02,-0.37 -13.45,-2.44 -3.62,-1.7 -6.88,-3.87 -9.02,-7.43 -0.18,-0.31 -0.34,-0.6 -0.49,-0.89 -0.62,-1.19 -0.5,-1.79 -2.15,-1.51 -0.72,0.13 -1.56,0.26 -2.36,0.42 -0.71,0.14 -1.55,0.26 -2.35,0.41 -0.78,0.15 -1.55,0.19 -1.55,1.21z"/>
   <path fill="black" d="M46.02 26.62c0,0.4 -0.04,0.84 0.52,1.14 1.27,0.65 8.93,-0.98 11.28,1.15l0.6 0.65c0.23,0.24 0.41,0.38 0.62,0.62 0.9,1.02 1.13,1.83 2.32,1.83 0.48,0 0.83,-0.6 0.83,-1.24 0,-0.46 -2.23,-2.71 -2.66,-3.15 -0.62,-0.62 -0.83,-0.81 -1.67,-1.23 -0.59,-0.3 -1.48,-0.6 -2.31,-0.6l-8.7 0c-0.33,0 -0.83,0.5 -0.83,0.83z"/>
  </g>
 </g>
</svg>
