<?xml version="1.0" encoding="UTF-8"?>
<!DOCTYPE svg PUBLIC "-//W3C//DTD SVG 1.1//EN" "http://www.w3.org/Graphics/SVG/1.1/DTD/svg11.dtd">
<!-- Creator: CorelDRAW -->
<svg xmlns="http://www.w3.org/2000/svg" xml:space="preserve" width="1407px" height="1600px" version="1.1" shape-rendering="geometricPrecision" text-rendering="geometricPrecision" image-rendering="optimizeQuality" fill-rule="evenodd" clip-rule="evenodd"
viewBox="0 0 103.79 118.03"
 xmlns:xlink="http://www.w3.org/1999/xlink"
 xmlns:xodm="http://www.corel.com/coreldraw/odm/2003">
 <g id="Слой_x0020_1">
  <metadata id="CorelCorpID_0Corel-Layer"/>
  <g id="_2744830388640">
   <path fill="black" d="M0.05 2.31l0 46.1c0,13.14 0.83,23.33 6.07,32.67 2.57,4.59 5.86,8.42 9.55,12.11l2.3 2.09c0.47,0.4 0.56,0.58 1.09,0.98 1.67,1.26 1.05,1.98 1.05,5.86 0,2.36 -1.42,4.68 -2.71,5.83 -2.32,2.07 -11.39,4.81 -14.98,6.23 -4.38,1.72 -1.66,3.85 -0.75,3.85 1.53,0 12.51,-4.34 14.59,-5.23 1.63,-0.71 3.25,-1.66 4.35,-3.03 2.28,-2.87 3.19,-4.94 3.19,-9.49l11.8 8.25c9.41,6.32 21.68,6.39 31.53,0.73 1.05,-0.61 3.84,-2.09 3.84,-3.45 0,-0.8 -0.83,-1.84 -1.76,-1.84 -1.27,0 -7.61,5.76 -15.9,5.76 -3.45,0 -7.1,-0.24 -10.18,-1.35 -2.07,-0.75 -3.84,-1.68 -5.5,-2.8l0.01 -12.46c-0.02,-1.42 -0.46,-2.29 -1.85,-2.29 -2.29,0 -1.85,2.8 -1.85,5.07 0,2.38 0,4.76 0,7.15 -3.45,-2.31 -6.7,-5.07 -10.14,-7.38 0,-2.69 0,-5.38 0,-8.07 0,-2.63 0.79,-6.68 -1.85,-6.68 -2.29,0 -1.84,2.56 -1.84,4.84 0,2.23 0,4.45 0,6.68 -3.8,-2.54 -10.16,-11.14 -11.99,-15.22 -5.62,-12.55 -4.38,-26.24 -4.38,-41.49 0.63,0.46 3.01,4.14 4.77,5.6l3.37 2.87c1.15,0.86 9.21,6.52 10.07,6.52 2.78,0 1,-3.88 3.74,-6.64 1.14,-1.15 1.52,-1.28 3.11,-1.96 2.46,-1.04 17.9,-7.77 18.51,-7.77 0.12,0 2.34,0.82 2.54,0.92 0,3.12 -0.81,8.4 1.87,8.47 2.61,0.07 1.82,-5.92 1.82,-8.47 1.08,-0.09 2.52,-0.92 2.99,-0.92 1.07,0 15.41,6.5 18.18,7.64 1.5,0.62 2.18,0.83 3.33,1.98 0.87,0.87 1.59,1.96 1.88,3.41 0.28,1.36 -0.02,3.34 1.97,3.34 0.7,0 3.62,-2.11 4.33,-2.59 1.14,-0.75 3.74,-1.82 3.74,-3.41 0,-0.98 -0.71,-1.84 -1.61,-1.84 -1.73,0 -3.69,2.63 -5.31,2.76 -0.16,-1.91 -2.42,-4.4 -3.68,-5.3 -2.77,-1.99 -14.44,-6.15 -18.91,-8.3 1.59,-2.17 4.38,-1.31 4.38,-6.22 0,-1.25 -1.1,-3.56 -1.55,-4.68 -0.65,-1.63 -1.15,-3 -1.81,-4.64 -0.56,-1.39 -2.83,-8.66 -4.25,-8.66 -3.95,0 -1.18,4.66 -0.39,6.62l3.62 9.29c1.05,2.63 1.43,2.93 -1.29,4.7 -7.24,4.72 -7.76,4.37 -15.17,-0.46 -0.63,-0.41 -1.14,-0.61 -1.38,-1.4 -0.35,-1.11 4.99,-13.59 5.53,-14.93l2.46 -6.29c0.41,-1.04 0.37,-1.23 1.09,-1.91 1.01,0.23 0.62,0.14 1.12,0.72 2.44,2.78 4.75,-0.74 2.28,-2.97 -1.75,-1.59 -4.96,-1.61 -6.57,0.23 -0.7,0.8 -9.51,22.66 -9.51,24.38 0,1.47 0.54,3.17 1.46,4.08 0.78,0.78 2.31,1.31 2.92,2.14 -4.28,2.06 -15.89,6.24 -18.77,8.2 -1.36,0.93 -3.66,3.48 -3.82,5.4 -1.14,-0.09 -5.97,-3.6 -7.31,-4.68 -0.83,-0.67 -1.42,-1.2 -2.27,-1.87 -2.8,-2.17 -5.34,-6.52 -6.19,-9.95 -1.65,-6.67 -1.29,-15.47 -1.29,-22.92 0,-2.48 0.7,-6.22 -1.84,-6.22 -1.38,0 -1.85,0.93 -1.85,2.31z"/>
   <path fill="black" d="M93.19 42.65c1.09,0 1.1,-0.37 2.34,-1.35l3.09 -3.59c0.78,-1.04 0.92,-1.57 1.48,-1.98 0,9.36 0.44,20.2 -0.78,28.49 -0.69,4.68 -1.55,7.89 -3.07,11.69 -0.87,2.19 -4.03,8.11 -5.6,9.16 0,-2 0,-4 0,-6 0,-2.1 0.29,-4.06 -1.52,-4.5 -0.83,-0.2 -1.58,0.28 -1.91,0.84 -0.94,1.56 0.44,13.01 -0.64,14.34l-4.69 4.31c-1.45,1.12 -3.56,3.12 -5.07,3.91 0,-2.22 0,-4.45 0,-6.68 0,-2.26 0.39,-5.07 -1.84,-5.07 -1.12,0 -1.85,0.73 -1.85,1.84l0 13.6c0,1.41 1.45,2.66 3.3,1.23l3.62 -2.61c0,3.82 0.49,5.5 1.99,7.92 0.4,0.63 0.59,0.77 1,1.3 1.09,1.41 2.75,2.5 4.39,3.23l7.17 2.73c2.64,0.98 9.19,4.42 9.19,0.96 0,-1.41 -0.99,-1.7 -2.04,-2.12 -3.31,-1.3 -12.99,-4.5 -15.06,-6.14 -3.56,-2.82 -2.95,-6.72 -2.95,-10.65 0,-0.69 0.51,-0.79 0.95,-1.12l2.22 -1.93c2.18,-2.02 3.59,-3.69 5.41,-5.65 1.38,-1.48 2.61,-3.25 3.77,-4.99 6.93,-10.36 7.7,-23.18 7.7,-35.87l0 -46.11c0,-1.11 -0.73,-1.84 -1.84,-1.84 -2.3,0 -1.85,2.56 -1.85,4.84 0,6.25 0.18,14.62 -0.5,20.25 -0.51,4.28 -1.71,7.25 -3.65,10.18 -2.08,3.17 -4.58,4.14 -4.55,5.74 0.03,0.93 0.69,1.64 1.79,1.64z"/>
   <path fill="black" d="M30.25 64.32c1.13,0 1.73,-1.03 1.78,-1.64 0.03,-0.51 -1.32,-3.63 -1.32,-8.28 1.96,-0.45 3.58,-1.56 8.51,-2.55 7.73,-1.55 17.48,-1.58 25.21,-0.04 1.64,0.33 2.87,0.68 4.42,1.11 1.7,0.48 2.78,1.14 4.28,1.48 0,7.59 -2.86,12.76 -9.68,16.37l-1.93 -6.6c-1.07,-3.27 -1.28,-5.62 -3.14,-5.62l-12.91 0c-1.87,0 -1.98,2.12 -3.09,5.45l-1.98 6.77c-0.99,-0.52 -2.01,-1.22 -2.94,-1.9 -1.45,-1.08 -1.94,-2.02 -3.29,-2.02 -1.54,0 -1.61,0.98 -1.61,2.08 0,0.96 2.98,2.99 3.82,3.55 5.22,3.46 5.88,3.71 7.04,0.17 0.4,-1.21 0.8,-2.32 1.17,-3.67 0.34,-1.2 0.8,-2.34 1.19,-3.66 1.29,-4.38 -0.75,-3.31 10.75,-3.31 0.86,0 1.05,1.61 1.48,3.13l2.35 7.33c1.25,3.78 1.79,3.56 7.52,-0.27 3.51,-2.34 5.83,-5.15 7.43,-9.16 0.83,-2.09 1.2,-4.53 1.27,-7.26 0.08,-2.84 1.03,-3.3 -2.89,-4.93 -12.18,-5.08 -29.29,-4.87 -41.57,-0.8 -6.12,2.03 -5.01,2.94 -4.87,5.97 0.1,2.02 0.19,3.16 0.6,4.93 0.36,1.55 0.67,3.37 2.4,3.37z"/>
  </g>
 </g>
</svg>
