<?xml version="1.0" encoding="UTF-8"?>
<!DOCTYPE svg PUBLIC "-//W3C//DTD SVG 1.1//EN" "http://www.w3.org/Graphics/SVG/1.1/DTD/svg11.dtd">
<!-- Creator: CorelDRAW -->
<svg xmlns="http://www.w3.org/2000/svg" xml:space="preserve" width="1600px" height="1543px" version="1.1" shape-rendering="geometricPrecision" text-rendering="geometricPrecision" image-rendering="optimizeQuality" fill-rule="evenodd" clip-rule="evenodd"
viewBox="0 0 85.21 82.2"
 xmlns:xlink="http://www.w3.org/1999/xlink"
 xmlns:xodm="http://www.corel.com/coreldraw/odm/2003">
 <g id="Слой_x0020_1">
  <metadata id="CorelCorpID_0Corel-Layer"/>
  <g id="_2440213937936">
   <path fill="black" d="M2.66 72.2c0.88,-0.21 1.21,-0.38 2.3,-0.53 0.66,-0.09 1.82,-0.27 2.53,-0.31 6.26,-0.33 13.93,-0.16 20.3,-0.16l0 2.33c-5.32,0 -18.67,0.11 -23.32,-0.64 -0.86,-0.14 -1.4,-0.13 -1.81,-0.69zm-2.66 0.47l0 -0.65c0.15,-1.12 1.07,-2.2 3,-2.65 0,-1.27 0.08,-2.33 1.33,-2.33 1.07,0 1.33,0.75 1.33,1.83l3.49 -0.17c0,-0.96 -0.2,-2.66 1.33,-2.66 1.55,0 1.34,1.48 1.34,2.5l3.49 0c0,-0.73 -0.16,-3 1.17,-3 1.79,0 1.49,1.37 1.49,3l3.5 0c0,-0.94 -0.12,-3.33 1.16,-3.33 1.85,0 1.5,1.45 1.5,3.33l3.66 0c0,-0.81 -0.37,-3.33 1,-3.33 2.09,0 1.5,2.11 1.5,5.82l22.63 0 0 -5.82c0,-1.46 1.01,-2.67 2.5,-2.67 3.57,0 6.16,0.26 9.32,0.33 1.11,0.03 2.32,0.28 3.49,0.34 3.42,0.2 2.11,2.66 1,2.66 -1.74,0 -6.57,-0.65 -8.48,-0.67l-5.16 -0.16 0 14.48c7.09,0 18.07,-0.99 25.09,-2.69 0.96,-0.24 2.03,-0.37 2.03,-1.64 0,-6.16 0.65,-6.72 -1.83,-7.32 -0.96,-0.24 -2.01,-0.48 -3.02,-0.64 -1.7,-0.29 -5.47,-0.52 -5.47,-1.69 0,-2.31 1.51,-1.57 3.32,-1.32 1.22,0.16 2.71,0.43 3.94,0.72 1.28,0.3 2.67,0.44 3.66,1 0.53,0.29 0.93,0.64 1.24,1.09 0.21,0.31 0.66,1.16 0.66,1.67l0 6.99c0,1.5 -1.18,2.69 -2.19,3.14 -2.07,0.91 -10.66,2.09 -13.11,2.37 -1.41,0.16 -3.19,0.45 -4.67,0.48 -1.52,0.04 -3.28,0.35 -4.82,0.34 -2.78,-0.01 -7.5,1.18 -7.5,-2.5l0 -5.83 -22.63 0c0,2.23 0.5,5.66 -1,5.66 -1.8,0 -1.5,-0.72 -1.5,-3.16l-3.66 0c0,0.8 0.33,3.16 -1,3.16 -1.92,0 -1.66,-1.34 -1.66,-3.33l-3.5 0c0,0.8 0.23,3 -0.99,3 -1.9,0 -1.67,-1.06 -1.67,-3l-3.49 0c0,0.64 0.14,2.5 -1,2.5 -1.65,0 -1.67,-0.53 -1.67,-2.66l-3.49 -0.17c0,0.7 -0.14,1.83 -1,1.83 -1.66,0 -1.66,-0.57 -1.66,-2.33 -1.73,-0.14 -2.83,-1.27 -3,-2.52z"/>
   <path fill="black" d="M0 14.45c0,1.11 0.63,1.33 1.5,1.33l5.62 -3.69c2.64,-1.71 6.34,-3.43 9.35,-4.63 6.4,-2.54 12.38,-2.9 19.08,-1.43 2.24,0.49 9.7,3.22 12.48,4.15 1.13,0.38 2.05,0.74 3.08,1.08l18.56 6.41c1.65,0.55 8.43,3.1 9.55,3.1 0.49,0 1.28,-1.03 1.62,-1.37 0.54,-0.54 0.96,-0.96 1.5,-1.5 0.54,-0.54 0.96,-0.96 1.5,-1.5 0.65,-0.65 1.21,-1.16 1.37,-1.66l0 -0.56c-0.11,-0.32 -0.41,-0.68 -0.97,-1.09 -6.67,-4.86 -12.7,-7.76 -20.77,-10.19 -1.06,-0.31 -3.06,-0.88 -3.06,0.9 0,1.5 3.13,1.67 5.42,2.56 7.66,2.99 6.83,2.54 13.5,6.48 0.9,0.53 2.03,1.47 2.55,1.61 -0.21,0.77 -1,1.25 -1.54,1.79 -0.6,0.6 -1.1,1.24 -1.79,1.7 -1.95,-0.45 -25.22,-8.72 -30.1,-10.34l-12.38 -4.09c-0.72,-0.15 -1.12,-0.09 -1.45,-0.55 3.08,0 7.09,-0.45 10.82,-0.33l11.48 1.33c1.23,0 1.99,-2.16 0.1,-2.6 -0.74,-0.17 -1.6,-0.29 -2.27,-0.39 -11.49,-1.55 -19.83,-1.36 -31.02,1.43 -4.97,1.24 -11.11,3.57 -15.46,6 -2.66,1.49 -5.16,3.1 -7.59,4.9 -0.4,0.3 -0.68,0.46 -0.68,1.15z"/>
   <path fill="black" d="M10.32 37.75c0,0.8 0.57,1.22 1.18,1.27l6.47 -1.11 3.17 4.83c-0.37,0.5 -2.35,1.64 -3.03,2.14 -0.56,0.42 -2.8,1.72 -2.8,2.35 0,3.56 4.42,-0.34 6.26,-1.56 0.59,-0.39 1.04,-0.75 1.56,-1.1 0.57,0.85 3.54,2.69 4.5,3.33 -0.57,1.07 -4.16,5.32 -4.16,5.99 0,1.29 1.47,1.77 2.26,0.93 0.59,-0.62 3.64,-5.09 4.39,-5.59 0.57,0.13 0.75,0.31 1.29,0.55 0.47,0.2 0.81,0.34 1.31,0.51 0.94,0.33 1.99,0.73 2.89,0.94 -0.24,2.91 -4.05,7.99 -0.49,7.99 0.92,0 1.46,-2.48 1.76,-3.4 0.32,-0.94 1.16,-3.07 1.23,-3.93l3.44 0.55c1.07,0.16 2.57,0.29 3.88,0.29l0 6.15c0,1.73 2.67,2.03 2.67,-0.33l0 -5.82c2.5,0 6.03,-0.82 6.82,-0.84 0.07,0.81 0.82,2.74 1.1,3.72 0.21,0.7 0.38,1.19 0.62,1.89 0.72,2.13 2.61,1.06 2.61,0.05 0,-1.33 -1.73,-5.09 -1.83,-6.32 1.85,-0.43 4.46,-1.53 5.99,-2.33l3.11 5.04c1.66,2.86 3.26,0.93 2.87,-0.2 -0.29,-0.85 -3.44,-5.26 -3.65,-6.17 0.57,-0.16 1.65,-0.99 2.16,-1.34 0.56,0.13 0.91,0.36 1.36,0.64 0.56,0.34 3.93,2.19 4.3,2.19 1.36,0 1.73,-1.59 0.93,-2.26 -0.07,-0.06 -0.85,-0.51 -0.94,-0.56 -6.4,-3.65 -5.41,-3.26 -7.91,-1.6 -2.44,1.61 -3.77,2.23 -6.51,3.31 -10.12,3.98 -24.98,2.36 -33.12,-4.26 -2.04,-1.67 -4.81,-4.56 -5.8,-7.01 -0.84,-2.08 -1.54,-1.6 -6.02,-0.72 -2.07,0.4 -3.87,0.21 -3.87,1.79z"/>
   <path fill="black" d="M55.42 32.09c0,2.2 2.08,1.66 4.66,1.66 2.05,0 4.11,0.01 6.16,0 3.24,-0.02 3.75,1.67 5.53,3.46 1.06,1.06 0.7,1.37 2.12,1.37 0.34,0 1,-0.45 1,-1.17 0,-0.95 -2.38,-3.29 -3.2,-4.12 -1.22,-1.22 -2.76,-2.2 -5.12,-2.2l-9.82 0c-0.61,0 -1.33,0.46 -1.33,1z"/>
  </g>
 </g>
</svg>
