<?xml version="1.0" encoding="UTF-8"?>
<!DOCTYPE svg PUBLIC "-//W3C//DTD SVG 1.1//EN" "http://www.w3.org/Graphics/SVG/1.1/DTD/svg11.dtd">
<!-- Creator: CorelDRAW -->
<svg xmlns="http://www.w3.org/2000/svg" xml:space="preserve" width="1538px" height="1600px" version="1.1" shape-rendering="geometricPrecision" text-rendering="geometricPrecision" image-rendering="optimizeQuality" fill-rule="evenodd" clip-rule="evenodd"
viewBox="0 0 61.49 63.96"
 xmlns:xlink="http://www.w3.org/1999/xlink"
 xmlns:xodm="http://www.corel.com/coreldraw/odm/2003">
 <g id="Слой_x0020_1">
  <metadata id="CorelCorpID_0Corel-Layer"/>
  <path fill="black" d="M18.99 50.22c-0.61,0 -1,-0.16 -1,-0.88l0 -7.99 2.62 0c-1.21,2.29 -0.89,3.7 -0.87,6.99 0,0.36 0.14,1.88 -0.75,1.88zm-18.99 -47.6c0,1.71 1.32,2.76 2.34,3.78l14.68 14.68c1.87,1.87 4.72,3.95 4.72,7.03 0,2 -0.27,2.86 -0.66,4.84 -0.34,1.72 -1.24,3.81 -0.1,5.41 0.39,0.54 0.93,0.67 1.26,1.11 -0.89,0 -8.53,-0.15 -9.22,0.03 -0.91,0.25 -0.87,1.85 0.1,1.85l2.87 0 0 8.12c0,2.86 4.03,3.76 5.38,1.13 1.46,-2.84 -1.76,-9.25 3.49,-9.25 0.81,0 3.33,2.87 4.87,2.87 2.26,0 0.96,-0.73 4.4,2.72 1.14,1.14 2.47,2.9 4.35,2.9 1.57,0 2.85,-1.79 3.84,-2.78 0.47,-0.47 0.9,-0.82 0.9,-1.59 0,-0.4 -0.52,-0.75 -0.87,-0.75 -0.7,0 -0.9,0.56 -1.38,0.88 -1.02,-0.69 -2.12,-2.05 -3.03,-2.97 -0.43,-0.44 -0.75,-0.78 -1.46,-0.78 -0.41,0 -0.75,0.52 -0.75,0.87 0,0.61 0.44,0.89 0.78,1.22 0.95,0.94 2.38,2.09 3.09,3.15 -1.7,1.15 -1.08,1.49 -3.65,-1.09 -0.78,-0.78 -2.71,-2.52 -3.22,-3.28l10.02 -9.96c0.51,0.33 5.22,5.01 5.22,5.34 0,1.01 -1.48,2.04 -2.16,2.72 -0.31,0.31 -0.5,0.65 -0.96,0.78 -1.4,-0.94 -3.02,-3.75 -4.38,-3.75 -0.58,0 -0.75,0.69 -0.75,1.12 0,0.51 4.5,5 5,5 1.45,0 2.7,-2.62 3.5,-2.62l10.24 0c2.65,0 -0.33,5.65 -0.88,6.61 -2.24,3.91 -5.79,7.84 -9.86,9.88 -1.53,0.76 -2.14,0.5 -4.37,0.5 -0.84,0 -1.67,0 -2.5,-0.01 -2.46,-0.02 -1.76,1.88 -0.63,1.88l5.75 0c0,0.78 0.17,1.88 -1,1.88l-25.98 0c-1.17,0 -1,-1.1 -1,-1.88l18.49 0c1.23,0 1.26,-1.65 0.22,-1.85 -0.85,-0.17 -16.66,-0.03 -18.72,-0.02 -1.75,0.01 -3.62,-1.6 -4.92,-2.57 -0.76,-0.57 -1.32,-1.12 -1.97,-1.77 -1.26,-1.26 -2.44,-2.58 -3.47,-4.03 -1.03,-1.46 -2.01,-3.13 -2.64,-4.86 -0.18,-0.48 -0.73,-2.41 -0.55,-3.07 0.3,-1.07 2.19,-0.69 3.07,-0.69 1.16,0 2.99,0.48 2.99,-1.13 0,-0.3 -0.45,-0.75 -0.75,-0.75l-4.87 0c-0.45,0 -1.32,0.54 -1.59,0.79 -2.05,1.84 0.26,6.79 1.14,8.28 0.5,0.84 0.95,1.54 1.45,2.3 1.49,2.26 3.46,4.23 5.47,6.03 0.82,0.73 3.55,2.71 4.65,2.97 0,1.24 -0.09,2.15 0.48,2.89 0.44,0.58 1.16,1.23 2.14,1.23l26.74 0c1,0 1.7,-0.64 2.13,-1.24 0.55,-0.8 0.49,-1.55 0.49,-2.88 1.24,-0.29 3.62,-2.05 4.65,-2.97 0.97,-0.87 2.05,-1.74 2.86,-2.76 0.35,-0.43 0.6,-0.65 0.93,-1.07 1.19,-1.52 2.15,-2.76 3.09,-4.53 0.26,-0.48 0.43,-0.67 0.66,-1.22 0.83,-2.01 2.56,-5.95 -0.07,-7.44 -0.95,-0.54 -1.84,-0.38 -3.25,-0.38 -2.42,0 -4.83,0 -7.25,0 1.08,-2.03 -1.07,-3.76 -2.34,-5.02 -0.75,-0.76 -2.42,-2.6 -3.15,-3.1 0.07,-0.86 0.35,-0.96 0.14,-1.88 -0.29,-1.29 -3.8,-5.75 -4.74,-7.13 -1.46,-2.14 -2.33,-2.16 -4.7,-1.66 -2.2,0.47 -1.28,2.15 -0.13,2.01 3.09,-0.37 1.73,-1.51 6.38,5.22 1.47,2.12 1.89,1.91 0.02,3.79l-9.25 9.24c-1.89,1.89 -1.29,2.08 -5.73,-1.2l-2.93 -2.06c-1.29,-0.83 -0.76,-1.62 -0.48,-2.88 0.82,-3.69 1.96,-7.41 -0.32,-10.82 -0.18,-0.28 -0.39,-0.62 -0.6,-0.89 -0.89,-1.12 -15,-15.01 -17.48,-17.5 -0.53,-0.53 -0.97,-0.97 -1.5,-1.5 -0.46,-0.45 -1.31,-1.18 -0.59,-1.9 0.94,-0.94 2.36,1.05 3.34,2.03l15.24 15.24c2.81,2.8 5.2,4.89 9.68,4.12 1.43,-0.25 1.35,-1.98 0.04,-1.98l-2.13 0.14c-1.64,0 -3.3,-0.89 -4.21,-1.66 -1.43,-1.21 -7.2,-7.19 -8.82,-8.81l-8.8 -8.8c-1.07,-1.07 -2.11,-2.47 -3.91,-2.47 -1.36,0 -2.62,1.26 -2.62,2.62z"/>
 </g>
</svg>
