<?xml version="1.0" encoding="UTF-8"?>
<!DOCTYPE svg PUBLIC "-//W3C//DTD SVG 1.1//EN" "http://www.w3.org/Graphics/SVG/1.1/DTD/svg11.dtd">
<!-- Creator: CorelDRAW -->
<svg xmlns="http://www.w3.org/2000/svg" xml:space="preserve" width="1600px" height="1418px" version="1.1" shape-rendering="geometricPrecision" text-rendering="geometricPrecision" image-rendering="optimizeQuality" fill-rule="evenodd" clip-rule="evenodd"
viewBox="0 0 62.08 55.02"
 xmlns:xlink="http://www.w3.org/1999/xlink"
 xmlns:xodm="http://www.corel.com/coreldraw/odm/2003">
 <g id="Слой_x0020_1">
  <metadata id="CorelCorpID_0Corel-Layer"/>
  <g id="_2439584934192">
   <path fill="black" d="M15.16 33.71l-0.12 0.12 0.12 -0.12zm-15.16 20.53l0 -0.26c0,-0.04 0.01,-0.07 0.02,-0.11 0.11,-0.59 1.87,-2.1 2.37,-2.61 1.88,-1.88 2.99,-3.39 4.52,-5.55 0.71,-0.99 1.35,-2.02 2.08,-3.01l4.06 -5.89c0.38,-0.57 1.82,-2.37 1.99,-2.98 -0.99,0.26 -2.47,2.43 -3.55,1.49 -1.22,-1.06 1.16,-2.22 1.85,-2.7 0.45,-0.33 1.8,-1.1 2.06,-1.46 -1.04,-1.56 -1.3,-1.62 -2.3,-3.51 -0.81,0.18 -1.8,0.3 -2.58,0.45 -0.66,0.13 -2.02,0.48 -2.49,0.25 -0.85,-0.4 -0.64,-1.53 0.24,-1.77l5.08 -0.88c1.18,-0.09 1.14,0.66 1.52,1.38 0.52,0.97 1.78,2.81 2.59,3.36 0.46,-0.34 2.48,-3.36 2.89,-3.9 2.18,-2.9 4.31,-5.86 6.72,-8.57 1.31,-1.46 2.52,-3.2 4.05,-4.43 1.6,-1.28 5.61,-2.08 7.58,-2.61 1.05,-0.28 2.12,0.31 1.52,1.27 -0.4,0.65 -1.78,0.73 -2.48,0.92 -1.2,0.33 -2.71,0.71 -3.91,1.19 -0.41,0.16 -0.84,0.27 -1.21,0.48 -0.61,0.34 -2.05,1.97 -2.53,2.57l-6.84 8.43c-0.51,0.68 -0.98,1.26 -1.45,1.95 -0.25,0.37 -0.46,0.63 -0.72,0.98 -2.16,2.93 -4.33,5.9 -6.34,8.94l-3.46 5.02c-0.23,0.35 -0.42,0.65 -0.68,1.02 -0.49,0.71 -0.92,1.32 -1.38,2.01 0.42,-0.11 1.39,-0.83 1.78,-1.12 2.23,-1.68 4.61,-3.12 6.88,-4.77 0.32,-0.23 0.53,-0.36 0.87,-0.58l3.42 -2.4c0.3,-0.2 0.49,-0.36 0.75,-0.58 -0.46,-0.11 -1.58,-0.67 -1.99,-0.92 -0.59,-0.36 -1.52,-0.52 -1.41,-1.49 0.1,-0.96 1.03,-0.86 1.7,-0.51l2.86 1.4c0.5,0.21 0.59,0.26 1.05,-0.02 1.89,-1.19 6.32,-4.74 8.15,-6.17 0.59,-0.47 1.02,-0.84 1.6,-1.31 0.3,-0.24 0.52,-0.39 0.8,-0.65 1.22,-1.17 2.5,-2.14 3.7,-3.34 0.74,-0.74 0.73,-0.67 1.16,-1.75l1.03 -3.21c0.12,-0.44 0.17,-0.73 0.29,-1.17 0.09,-0.34 0.23,-0.77 0.31,-1.15 0.41,-2.07 2.04,-1.44 1.97,-0.22 -0.02,0.47 -0.39,1.73 -0.54,2.27 -0.22,0.78 -0.43,1.55 -0.66,2.25 -0.23,0.67 -0.43,1.42 -0.71,2.08 -0.29,0.7 -0.58,1.31 -1.09,1.81 -1.7,1.67 -3.44,3.29 -5.32,4.75 -0.3,0.24 -0.52,0.41 -0.8,0.65l-4.78 3.72c-0.72,0.54 -2.78,1.87 -3.2,2.49 0.53,0 0.86,0.13 1.24,0.21 5.57,1.23 11.49,0.5 16.59,-1.78 1.38,-0.62 4.25,-2.53 4.38,-2.55 0.61,-0.09 1.55,0.54 1.97,0.8l2.75 1.49c1.22,0.7 0.46,2.32 -0.91,1.64 -0.68,-0.34 -1.16,-0.66 -1.81,-0.98 -0.59,-0.29 -1.19,-0.75 -1.78,-0.89 -0.37,0.25 -1.16,0.86 -1.57,0.97 0.1,0.45 0.57,1.08 0.82,1.48 0.3,0.46 0.55,0.86 0.84,1.35 0.29,0.49 0.54,0.84 0.84,1.34 0.79,1.38 -0.82,2.2 -1.71,0.85l-2.49 -4.05c-1.11,0.59 -3.02,1.38 -4.37,1.7 0.09,1.04 2.33,5.16 0.58,5.44 -0.64,0.1 -0.94,-0.31 -1.11,-0.78 -0.29,-0.79 -1.23,-3.48 -1.29,-4.18 -1.09,0.03 -3.12,0.61 -4.97,0.61 0,1.09 0,2.18 0,3.27 0.01,1.12 0.15,2.17 -0.97,2.2 -1.17,0.03 -0.97,-1.21 -0.97,-2.32 0,-1.05 0,-2.1 0,-3.15 -1.46,0 -2.75,-0.16 -4.09,-0.4 -0.33,-0.06 -0.81,-0.2 -1.24,-0.21 -0.05,0.63 -0.74,2.4 -0.96,3.05 -0.27,0.83 -0.38,2.54 -1.68,2.28 -1.64,-0.33 0.72,-4.57 0.82,-5.81 -1.38,-0.32 -0.97,-0.25 -3.22,1.38 -4.18,3.02 -8.47,5.82 -12.67,8.8l-2.14 1.49c-2.68,2.01 -3.02,2.4 -5.34,4.73 -0.35,0.35 -0.89,1.04 -1.35,1.21 -0.52,0.19 -1.15,-0.09 -1.23,-0.72zm15.16 -20.53zm-0.12 0.12l0.12 -0.12z"/>
   <path fill="black" d="M0 10.55c0,0.81 0.46,0.97 1.09,0.97l4.1 -2.69c1.92,-1.24 4.62,-2.5 6.81,-3.37 0.79,-0.32 1.63,-0.65 2.52,-0.88 0.84,-0.21 1.91,-0.43 2.84,-0.56 3.07,-0.43 5.56,-0.26 8.54,0.4 1.9,0.41 8.8,2.97 11.34,3.81 0.78,0.26 1.49,0.48 2.25,0.78 0.76,0.3 1.48,0.5 2.27,0.77l6.76 2.33c0.8,0.27 1.41,0.51 2.24,0.79l4.52 1.54c2.75,0.91 2.21,1.13 3.62,-0.28 0.45,-0.45 3.18,-3 3.18,-3.37 0,-0.98 -0.41,-1.03 -1.69,-1.94 -4.41,-3.11 -8.93,-5.15 -14.15,-6.71 -0.77,-0.23 -2.22,-0.65 -2.22,0.65 0,0.83 1.09,1.01 1.72,1.18 1.84,0.51 4.84,1.56 6.4,2.33 2.09,1.03 4.63,2.27 6.55,3.64 0.32,0.23 0.54,0.49 0.97,0.61 -0.15,0.56 -0.73,0.91 -1.12,1.3 -0.44,0.44 -0.81,0.91 -1.31,1.25 -1.29,-0.31 -2.71,-0.93 -3.98,-1.35 -1.34,-0.45 -2.58,-0.9 -3.97,-1.37l-13.98 -4.82c-2.12,-0.7 -7.13,-2.61 -9.02,-2.98 -0.52,-0.11 -0.82,-0.07 -1.06,-0.4 2.25,0 5.17,-0.33 7.89,-0.24l8.36 0.97c0.9,0 1.45,-1.57 0.07,-1.89 -2.45,-0.57 -8.27,-1.02 -10.5,-1.02 -3.29,0 -6.62,0.38 -9.46,0.85 -1.54,0.26 -2.82,0.55 -4.29,0.92 -4.48,1.12 -8.93,2.95 -12.87,5.32 -0.61,0.36 -1.09,0.7 -1.64,1.03l-2.28 1.59c-0.3,0.22 -0.5,0.34 -0.5,0.84z"/>
   <path fill="black" d="M43.65 23.4c0,1.38 0.88,1.22 2.55,1.21 1.1,0 2.6,-0.18 3.47,0.17 0.9,0.36 1.43,0.96 2.01,1.62 0.93,1.06 1.14,1.73 2.16,1.73 0.24,0 0.73,-0.33 0.73,-0.85 0,-0.7 -1.74,-2.4 -2.34,-3 -2.06,-2.08 -4.23,-1.61 -7.61,-1.61 -0.44,0 -0.97,0.34 -0.97,0.73z"/>
  </g>
 </g>
</svg>
