<?xml version="1.0" encoding="UTF-8"?>
<!DOCTYPE svg PUBLIC "-//W3C//DTD SVG 1.1//EN" "http://www.w3.org/Graphics/SVG/1.1/DTD/svg11.dtd">
<!-- Creator: CorelDRAW -->
<svg xmlns="http://www.w3.org/2000/svg" xml:space="preserve" width="1600px" height="1488px" version="1.1" shape-rendering="geometricPrecision" text-rendering="geometricPrecision" image-rendering="optimizeQuality" fill-rule="evenodd" clip-rule="evenodd"
viewBox="0 0 62.02 57.69"
 xmlns:xlink="http://www.w3.org/1999/xlink"
 xmlns:xodm="http://www.corel.com/coreldraw/odm/2003">
 <g id="Слой_x0020_1">
  <metadata id="CorelCorpID_0Corel-Layer"/>
  <g id="_2331048119232">
   <path fill="black" d="M44.82 36.24c0,0.59 0.84,1.55 1.23,2.04l2.56 3.13c2.4,2.86 6.99,6.25 10,8.05 0.95,0.58 1.99,1.16 1.39,2.69 -0.42,1.06 -1.87,1.77 -2.82,1.77 -1.04,0 -1.96,-0.59 -2.67,-0.97 0,-1.7 -0.12,-2.48 -0.56,-3.8 -0.18,-0.56 -0.32,-1.19 -0.79,-1.4 -0.54,-0.26 -1.31,0.12 -1.31,0.72 0,0.62 0.38,1.34 0.53,2.01 0.25,1.08 0.88,5.26 -1.02,5.26 -2.3,0 -1.33,-2.07 -1.33,-3.27 0,-1.07 -0.49,-4.4 -1.55,-4.75 -0.77,-0.26 -1.24,0.63 -1.24,0.75 0,0.44 0.41,1.23 0.56,1.75 0.33,1.16 0.83,4.79 -1.16,4.79 -0.46,0 -1.11,-0.36 -1.29,-1.02 -0.25,-0.96 0.63,-2.35 -0.61,-5.31 -0.74,-1.75 -1.98,-0.99 -1.98,0.03 0,0.98 0.73,0.41 0.73,3.88 0,1.8 -1.94,2.03 -2.58,0.88 -0.5,-0.92 0.58,-2.61 -0.91,-5.03 -0.98,-1.59 -1.96,-0.33 -1.96,0.15 0,0.45 0.71,1.01 0.92,2.6 0.31,2.25 -1.74,2.65 -2.53,1.55 -0.36,-0.5 -0.11,-0.69 -0.23,-1.34 -0.13,-0.64 -1.23,-1.07 -1.84,-1.44l-8.26 -4.81c-0.72,-0.44 -1.34,-0.8 -2.07,-1.2 -0.35,-0.2 -0.65,-0.47 -1.09,-0.4 -0.76,0.1 -1.26,1.21 -0.13,1.86 0.39,0.23 0.71,0.43 1.06,0.63l6.21 3.61c0.55,0.32 3.96,2.23 4.1,2.43 0.22,0.31 0.23,0.8 0.39,1.19 0.72,1.72 2.63,2.59 4.92,1.38 0.24,0.46 0.33,0.51 0.76,0.82 0.4,0.29 0.65,0.39 1.19,0.51 1.34,0.3 1.9,-0.31 2.65,-0.48 0.27,1.01 2.33,1.92 4.36,0.85 0.4,0.26 0.62,0.61 1.07,0.87 1.81,1.1 4.31,0.19 4.87,-2.21 3.95,2.1 7.37,-0.57 7.63,-3.37l0 -0.69c-0.08,-0.89 -0.51,-1.75 -1.36,-2.44l-2.49 -1.52c-0.84,-0.56 -1.55,-1.02 -2.36,-1.63 -3.19,-2.4 -6.61,-5.73 -8.88,-9.05 -0.39,-0.57 -0.55,-0.92 -1.14,-0.92 -0.52,0 -0.97,0.37 -0.97,0.85z"/>
   <path fill="black" d="M0 0.74c0,0.95 1.84,3.66 2.38,4.65l2.54 4.37c0.45,0.76 0.79,1.41 1.24,2.15 0.45,0.75 0.85,1.46 1.27,2.24 0.41,0.76 0.83,1.37 1.25,2.14 1.48,2.71 1.6,1.87 0.41,3.47 -0.3,0.4 -0.57,0.75 -0.89,1.18 -2.02,2.69 -3.96,4.78 -3.96,8.39 0,3.17 1.77,6.14 4.26,7.73 1.36,0.87 11.19,6.6 11.52,6.63 0.65,0.07 1.87,-1.01 0.34,-1.89l-9.95 -5.8c-0.59,-0.36 -1.56,-0.91 -2.08,-1.43 -1.59,-1.59 -2.15,-3.43 -2.15,-5.72 0,-2.76 2.58,-5.45 4.26,-7.74 2.14,-2.91 2.26,-1.74 -1.04,-7.35 -0.94,-1.6 -1.77,-3.11 -2.71,-4.68l-3.38 -5.83c-0.37,-0.69 -1.53,-3.23 -2.34,-3.23 -0.44,0 -0.97,0.33 -0.97,0.72z"/>
   <path fill="black" d="M43.97 34.42c0.65,0 0.97,-0.44 0.97,-0.85 0,-0.65 -4.11,-7.4 -4.76,-8.56l-14.01 -24.27c-0.72,-1.38 -1.86,-0.53 -1.91,0.14 -0.03,0.42 0.3,0.83 0.49,1.16 0.43,0.77 0.79,1.39 1.24,2.15 0.89,1.5 1.63,2.89 2.53,4.38l7.54 13.05c2.1,3.85 4.87,8.21 6.9,11.99 0.24,0.43 0.39,0.81 1.01,0.81z"/>
   <path fill="black" d="M2.42 43.99l0 2.67c-1.44,0 -2.42,-0.2 -2.42,1.21 0,0.94 1.82,0.72 2.42,0.72 0,1.73 -0.36,3.64 0.85,3.64 1.35,0 0.97,-1.53 0.97,-3.64 1.23,0 2.42,0.23 2.42,-0.97 0,-1.15 -1.45,-0.96 -2.42,-0.96l0 -2.67c0,-1.2 -1.82,-1.2 -1.82,0z"/>
   <path fill="black" d="M57.78 24.24l0 2.67c-0.94,0 -2.42,-0.23 -2.42,0.97 0,1.21 1.29,0.97 2.42,0.97 0,1.52 -0.34,3.63 0.85,3.63 1.34,0 0.97,-1.71 0.97,-3.63 1.13,0 2.42,0.24 2.42,-0.97 0,-1.2 -1.48,-0.97 -2.42,-0.97l0 -2.67c0,-1.21 -1.82,-1.21 -1.82,0z"/>
   <path fill="black" d="M36.22 32.72l0 2.79c-1.88,0 -2.42,-0.23 -2.42,1.09 0,1 1.83,0.73 2.42,0.73 0,2.59 -0.38,3.63 1.09,3.63 1.03,0 0.73,-2.46 0.73,-3.63 1.4,0 2.42,0.29 2.42,-1.09 0,-1 -1.84,-0.73 -2.42,-0.73 0,-2.24 0.37,-3.63 -0.97,-3.63 -0.57,0 -0.85,0.28 -0.85,0.84z"/>
   <path fill="black" d="M14.66 46.78c-1.31,0 -1,-1.7 0,-1.7 0.95,0 1.3,1.7 0,1.7zm-2.79 -0.73c0,2.31 2.99,3.61 4.76,1.85 1.66,-1.66 0.42,-4.64 -1.73,-4.64 -0.99,0 -1.67,0.07 -2.36,0.92 -0.41,0.5 -0.67,1 -0.67,1.87z"/>
   <path fill="black" d="M39.98 14.68c-1.19,0 -1.43,-1.7 0.12,-1.7 0.87,0 0.97,1.7 -0.12,1.7zm-2.79 -1.1c0,4.25 5.45,3.53 5.45,0.49 0,-4.3 -5.45,-3.57 -5.45,-0.49z"/>
   <path fill="black" d="M14.29 21.58c0,2.33 0.42,3.4 1.97,4.94 1.15,1.14 2.4,1.28 2.4,-0.22 0,-0.62 -2.55,-1.57 -2.55,-4.24 0,-1.84 1.24,-2.53 1.02,-3.31 -0.22,-0.8 -1.21,-0.97 -1.75,-0.21 -0.56,0.79 -1.09,1.98 -1.09,3.04z"/>
  </g>
 </g>
</svg>
