<?xml version="1.0" encoding="UTF-8"?>
<!DOCTYPE svg PUBLIC "-//W3C//DTD SVG 1.1//EN" "http://www.w3.org/Graphics/SVG/1.1/DTD/svg11.dtd">
<!-- Creator: CorelDRAW -->
<svg xmlns="http://www.w3.org/2000/svg" xml:space="preserve" width="2133px" height="2133px" version="1.1" shape-rendering="geometricPrecision" text-rendering="geometricPrecision" image-rendering="optimizeQuality" fill-rule="evenodd" clip-rule="evenodd"
viewBox="0 0 2740.86 2740.86"
 xmlns:xlink="http://www.w3.org/1999/xlink"
 xmlns:xodm="http://www.corel.com/coreldraw/odm/2003">
 <g id="Слой_x0020_1">
  <metadata id="CorelCorpID_0Corel-Layer"/>
  <g id="_1734699359008">
   <path fill="#fffbeb" d="M0 958.23c0,204.89 36.8,260.83 121.34,419.33l98.09 169.58c75.24,112.99 203.74,301.79 295.78,400.15l297.23 296.97c12.07,10.75 16.87,12.28 29.36,24.18 57.45,54.71 209.45,163.29 278.1,209.05 44.91,29.94 83.57,54.64 131.07,83.06 23.29,13.93 43.81,26.61 67.71,39.35 25.98,13.86 43.14,24.36 69.59,37.48 150.12,74.45 196.31,103.48 383.65,103.48 137.5,0 282.8,-68.9 361.77,-130.73 27.63,-21.64 164.22,-151.15 187.52,-181.85 92.95,-122.52 -18.92,-208.96 -79.54,-269.58l-363.91 -364.13c-31.83,-31.71 -62.4,-44.06 -116.54,-44.06 -126.72,0 -253.11,256.96 -347.96,256.96 -59.03,0 -95.88,-33 -155.23,-74.96 -47.91,-33.87 -94.74,-85.64 -133.85,-85.64 -11.62,0 -117.99,34.11 6.87,126.97 129.03,95.95 235.8,202.27 387.8,112.45 54.07,-31.96 206.54,-223.36 242.37,-223.36 44.84,0 34.71,5.27 81.63,52.19l350.64 350.64c81.89,81.88 66.44,69.86 -66.91,203.43 -147.99,148.22 -354.76,202.43 -565.55,129.25 -125.63,-43.61 -446.49,-248.97 -552.96,-335.68l-171.73 -144.11c-11.92,-11.79 -19.75,-20.63 -31.91,-32.33 -66.36,-63.88 -56.47,-46.4 -128.62,-128.33 -21.45,-24.35 -37.98,-36.99 -59.39,-63.74 -58.12,-72.61 -106.3,-121.79 -172.93,-212.5 -18.13,-24.68 -32.53,-47.03 -51.2,-71.93 -45.53,-60.71 -157.89,-249.68 -194.29,-319.62 -82.5,-158.48 -124.94,-297.03 -58.88,-476.57 44.39,-120.68 98.02,-170.16 183.41,-255.55 55.21,-55.22 71.97,-93.04 125.88,-37.55l380 380.15c69.8,69.79 69.12,67.39 -13.38,149.9 -82.86,82.86 -194.05,165.9 -194.05,266.32 0,97.44 12.06,103.52 66.35,185.25 14.89,22.43 28.56,41.15 44.48,62.58 23.41,31.52 54.4,64.96 95.77,33.72 19.13,-14.44 18.23,-30.89 18.23,-51.36 0,-40.64 -117.77,-140.43 -117.77,-208.78 0,-118.27 256.96,-225.91 256.96,-353.31 0,-104.49 -22.29,-105.26 -116.44,-199.41l-283.72 -283.72c-71.1,-71.11 -91.47,-116.44 -194.05,-116.44 -65,0 -110.68,59.83 -145.88,95.02 -42.18,42.18 -80.48,77.53 -116.5,124.4 -59.58,77.56 -128.41,216.78 -128.41,353.38z"/>
   <path fill="#fffbeb" d="M1504.26 53.53c0,62.02 72.98,52.91 89.51,55.03 158.36,20.36 194.18,9.31 366.29,78.04 133.88,53.46 263.23,138.28 362.71,242.2l28.66 30.23c133.62,131.31 234.52,358.87 266.37,547.32 20.92,123.74 -5.1,230.25 69.53,230.25 42.19,0 51.73,-31.72 53.53,-62.52l0 -39.19c0,-159.44 -57.7,-346.78 -110.56,-456.88 -62.57,-130.32 -138.7,-235.69 -235.23,-332.22 -219.91,-219.91 -503.59,-345.79 -837.27,-345.79 -29.11,0 -53.54,24.7 -53.54,53.53z"/>
   <path fill="#fffbeb" d="M1504.26 380.08c0,11.94 10.13,28.32 18.03,35.51 27.69,25.2 96.91,16.37 138.18,22.41 172.95,25.31 307.56,92.69 428.64,213.76 18.92,18.92 36.74,34.19 52.29,54.76 89.15,117.89 139.31,220.47 161.47,373.86 4.05,28.02 3.77,72.82 7.93,99.14 14.7,93.1 108.87,55.95 108.87,3.55 0,-241.52 -90.63,-446.62 -252.94,-608.93 -64.02,-64.02 -158.58,-137.95 -244.06,-173.5 -116.9,-48.61 -206.61,-79.45 -364.87,-79.45 -30.51,0 -53.54,28.18 -53.54,58.89z"/>
   <path fill="#fffbeb" d="M1504.26 701.28c0,12.94 13.85,34.33 23.32,40.92 38.68,26.92 132.91,-8.51 260.47,76.78 229.02,153.13 184.3,349.71 208.56,391.01 25.16,42.84 101.86,34.96 101.86,-37.63 0,-283.46 -246.4,-529.97 -529.97,-529.97 -37.89,0 -64.24,22.12 -64.24,58.89z"/>
   <path fill="#fffbeb" d="M1504.26 1017.12c0,100.35 144.79,9.39 160.84,160.35 9.39,88.39 112.18,62.86 112.18,5.6 0,-118.47 -101.02,-219.49 -219.48,-219.49 -23.51,0 -53.54,30.03 -53.54,53.54z"/>
   <path fill="#fffbeb" d="M893.99 1734.45c0,51.61 58.87,76.93 92.63,44.45 39.59,-38.1 12.03,-90.29 -30.29,-95.97 -29.88,-4.01 -62.34,23.83 -62.34,51.52z"/>
  </g>
 </g>
</svg>
