<?xml version="1.0" encoding="UTF-8"?>
<!DOCTYPE svg PUBLIC "-//W3C//DTD SVG 1.1//EN" "http://www.w3.org/Graphics/SVG/1.1/DTD/svg11.dtd">
<!-- Creator: CorelDRAW -->
<svg xmlns="http://www.w3.org/2000/svg" xml:space="preserve" width="862px" height="1600px" version="1.1" shape-rendering="geometricPrecision" text-rendering="geometricPrecision" image-rendering="optimizeQuality" fill-rule="evenodd" clip-rule="evenodd"
viewBox="0 0 158.9 294.95"
 xmlns:xlink="http://www.w3.org/1999/xlink"
 xmlns:xodm="http://www.corel.com/coreldraw/odm/2003">
 <g id="Слой_x0020_1">
  <metadata id="CorelCorpID_0Corel-Layer"/>
  <path fill="black" fill-rule="nonzero" d="M153.96 232.68c-2.73,0 -4.94,2.21 -4.94,4.94l0 47.46 -11.42 0 0 -78.41c0,-2.73 -2.21,-4.94 -4.93,-4.94 -2.73,0 -4.94,2.21 -4.94,4.94l0 78.41 -11.41 0 0 -78.41c0,-2.73 -2.21,-4.94 -4.94,-4.94 -2.72,0 -4.93,2.21 -4.93,4.94l0 78.41 -11.42 0 0 -78.41c0,-2.73 -2.21,-4.94 -4.94,-4.94 -2.72,0 -4.93,2.21 -4.93,4.94l0 78.41 -11.42 0 0 -78.41c0,-2.73 -2.21,-4.94 -4.94,-4.94 -2.72,0 -4.93,2.21 -4.93,4.94l0 78.41 -11.42 0 0 -78.58c0,-2.72 -2.21,-4.93 -4.93,-4.93 -2.73,0 -4.94,2.21 -4.94,4.93l0 78.58 -11.42 0 0 -78.58c0,-2.72 -2.21,-4.93 -4.93,-4.93 -2.73,0 -4.94,2.21 -4.94,4.93l0 78.58 -11.42 0 0 -73.39c0,-15.93 5.52,-31.5 15.55,-43.84 22.74,-27.98 35.26,-63.93 35.26,-101.25l0 -37.96c0,-10.35 8.42,-18.77 18.77,-18.77 10.35,0 18.77,8.42 18.77,18.77l0 37.96c0,37.32 12.52,73.27 35.25,101.25 10.03,12.34 15.56,27.91 15.56,43.84 0,2.73 2.21,4.94 4.93,4.94 2.73,0 4.94,-2.21 4.94,-4.94 0,-18.19 -6.31,-35.97 -17.77,-50.07 -21.31,-26.22 -33.04,-59.96 -33.04,-95.02l0 -37.96c0,-15.79 -12.85,-28.64 -28.64,-28.64 -15.79,0 -28.64,12.85 -28.64,28.64l0 37.96c0,35.06 -11.74,68.8 -33.05,95.02 -11.45,14.1 -17.76,31.88 -17.76,50.08l0 78.31c0,2.73 2.21,4.94 4.93,4.94l149.03 0c2.73,0 4.93,-2.21 4.93,-4.94l0 -52.39c0,-2.73 -2.21,-4.94 -4.93,-4.94z"/>
 </g>
</svg>
