<?xml version="1.0" encoding="UTF-8"?>
<!DOCTYPE svg PUBLIC "-//W3C//DTD SVG 1.1//EN" "http://www.w3.org/Graphics/SVG/1.1/DTD/svg11.dtd">
<!-- Creator: CorelDRAW -->
<svg xmlns="http://www.w3.org/2000/svg" xml:space="preserve" width="1602px" height="1602px" version="1.1" shape-rendering="geometricPrecision" text-rendering="geometricPrecision" image-rendering="optimizeQuality" fill-rule="evenodd" clip-rule="evenodd"
viewBox="0 0 58.28 58.28"
 xmlns:xlink="http://www.w3.org/1999/xlink"
 xmlns:xodm="http://www.corel.com/coreldraw/odm/2003">
 <g id="Слой_x0020_1">
  <metadata id="CorelCorpID_0Corel-Layer"/>
  <path fill="black" stroke="black" stroke-width="0.07" stroke-miterlimit="22.9256" d="M30.47 0.04l0.78 0c0.55,0.02 1.06,0.09 1.43,0.21 1.05,0.33 2.19,1.48 2.86,2.26 0.62,0.72 0.15,1.17 -0.34,1.65l-6.48 6.48c-0.64,0.63 -2.12,1.96 -2.53,2.58 0.37,-0.03 1.37,-0.44 1.8,-0.58 0.16,-0.05 0.69,-0.19 0.86,-0.27 0.3,-0.15 2.26,-1.77 4.48,-2.57 3.49,-1.26 7.22,-1.72 10.93,-0.78 0.67,0.17 1.22,0.29 1.87,0.52 1,0.36 4.02,1.8 4.53,2.41 0.44,0.53 0.2,1.3 -0.42,1.47 -0.58,0.15 -1.13,-0.43 -1.52,-0.67 -3.39,-2.12 -7.19,-2.81 -11.27,-2.25 -5.61,0.77 -10.73,5.01 -12.73,10.24 -1.71,4.48 -1.47,8.91 0.59,13.37 0.4,0.85 1.25,2.08 1.83,2.83 2.46,3.14 6.14,5.36 10.12,6.02 4.67,0.78 9.06,-0.38 12.66,-3.05 1.3,-0.97 2.51,-2.17 3.44,-3.49 0.28,-0.41 0.66,-0.95 0.9,-1.37 1.39,-2.39 2.61,-6.44 2.22,-9.14 -0.12,-0.79 -0.12,-1.48 -0.25,-2.14 -0.13,-0.69 -0.23,-1.21 -0.44,-1.84 -0.61,-1.81 -1.27,-3.24 -2.32,-4.73 -0.98,-1.38 -2,-1.95 -1.44,-2.8 0.8,-1.24 2.11,0.78 2.55,1.36 2.05,2.75 3.39,5.98 3.67,9.57l0 2.82c-0.01,0.02 -0.01,0.05 -0.01,0.08 -0.05,0.65 -0.23,1.5 -0.31,2.08 -0.06,0.43 0.19,1.8 0.32,3.41l0 2.86c-0.01,0.09 -0.02,0.18 -0.03,0.26 -0.56,4.23 -1.52,7.6 -3.9,11.11l-1.48 1.93c-0.41,0.52 -0.76,0.76 -1.14,1.25 -0.36,0.47 -1.85,1.74 -2.39,2.16 -0.78,0.62 -1.89,1.41 -2.77,1.89 -0.5,0.27 -0.95,0.53 -1.48,0.79 -2.75,1.36 -5.89,2.13 -9.07,2.28l-2.14 0c-2.72,-0.12 -5.42,-0.71 -7.92,-1.79 -2.59,-1.12 -6.32,-3.45 -8.14,-5.73 -0.21,-0.26 -0.39,-0.39 -0.61,-0.64 -1.88,-2.12 -3.65,-5.39 -4.51,-8.11 -1,-3.15 -1.02,-4.88 -1.04,-8.18 -0.02,-3.47 1.56,-7.18 1.59,-7.61 -0.51,0.34 -8.17,8.11 -8.83,8.78 -0.35,0.34 -0.73,0.94 -1.36,0.84 -0.54,-0.08 -2.57,-2 -2.9,-3.58 -0.04,-0.23 -0.07,-0.46 -0.09,-0.7l0 -1.17c0.14,-1.99 0.93,-4.11 1.51,-5.27 2.57,-5.14 4.49,-7.65 8.12,-11.78l3.24 -3.24c0.43,-0.44 0.78,-0.65 1.2,-1.08 1.47,-1.5 5.69,-4.51 7.55,-5.64 0.71,-0.42 2.95,-1.89 3.69,-1.58 0.46,0.19 1.11,1.06 -0.41,1.79 -5.22,2.52 -9.51,6.52 -13.56,10.55l-2.05 2.27c-1.91,2.14 -4.91,6.55 -6.08,9.27 -0.71,1.65 -1.35,3.1 -1.51,5.09 -0.14,1.8 0.99,2.39 1.39,2.98l30.56 -30.61c-1.02,-0.69 -1.21,-1.95 -4.89,-1.02 -0.38,0.09 -0.62,0.15 -0.94,-0.09 -0.65,-0.48 -0.47,-1.25 0.22,-1.55 0.55,-0.23 1.47,-0.38 2.39,-0.41zm-8.04 21.83c-0.02,0.91 -0.96,3.38 -0.53,6.67 0.27,2.09 0.76,4.11 1.56,5.72 1.58,3.21 3.63,5.95 6.81,7.85 0.41,0.24 0.68,0.45 1.14,0.68 1.5,0.74 2.11,1.08 3.89,1.56 5.49,1.5 12.02,0.18 16.32,-3.53 0.31,-0.28 0.19,-0.31 0.6,-0.42 -0.13,1.55 -2.19,4.73 -3.26,6.06 -2.86,3.54 -7.75,6.34 -12.32,6.55 -0.38,0.02 -1.83,0.1 -2.08,0.19 -0.42,0.16 -2.19,2.55 4.14,1.31 7.02,-1.39 12.87,-6.4 15.13,-13.19 0.84,-2.53 0.4,-3.07 1.36,-4.43 0.17,-0.24 0.31,-0.5 0.48,-0.78 0.17,-0.28 0.28,-0.45 0.42,-0.71l0.31 -0.61c0.13,-0.21 0.04,-0.08 0.14,-0.19 0,4.32 -1.13,8.13 -3.2,11.57 -6.45,10.71 -21,13.75 -31.46,5.92 -1.83,-1.37 -3.15,-2.83 -4.53,-4.68l-1.44 -2.31c-2.9,-5.71 -3.46,-12.02 -1.01,-18.15 0.9,-2.27 1.97,-4 3.42,-5.78l1.75 -1.89c0.37,-0.37 0.65,-0.55 1.03,-0.91 0.31,-0.29 0.67,-0.53 1.02,-0.79 0.38,-0.28 0.75,-0.56 1.14,-0.8 0.55,-0.33 1.9,-1.23 2.47,-1.28 -0.54,0.8 -0.78,0.9 -1.51,2.24 -0.5,0.91 -0.73,0.86 -1.95,1.8 -0.42,0.33 -0.59,0.57 -0.96,0.86l-1.87 2c-1.5,1.86 -2.62,3.86 -3.39,6.16 -0.71,2.12 -1.01,3.73 -1.01,6.61 0,9.07 6.34,16.86 15.01,19.1 0.73,0.19 2.53,0.77 2.51,-0.57 -0.02,-1 -1.33,-0.93 -2.5,-1.26 -0.98,-0.28 -1.93,-0.61 -2.81,-1.05 -3.52,-1.76 -5.94,-3.89 -7.98,-7.26 -3.13,-5.17 -3.32,-11.58 -0.57,-17.36 0.49,-1.02 2.91,-4.68 3.73,-4.9zm20.47 13.18c0,0.51 0.46,1.03 0.91,1.03 0.82,0 1.29,-0.94 0.77,-1.57 -0.57,-0.69 -1.68,-0.19 -1.68,0.54zm2.73 3.41c0,0.51 0.46,1.03 0.91,1.03 0.82,0 1.29,-0.94 0.77,-1.57 -0.57,-0.69 -1.68,-0.19 -1.68,0.54zm-4.55 1.14c0,0.51 0.46,1.02 0.91,1.02 0.83,0 1.29,-0.93 0.77,-1.56 -0.57,-0.69 -1.68,-0.19 -1.68,0.54z"/>
 </g>
</svg>
