<?xml version="1.0" encoding="UTF-8"?>
<!DOCTYPE svg PUBLIC "-//W3C//DTD SVG 1.1//EN" "http://www.w3.org/Graphics/SVG/1.1/DTD/svg11.dtd">
<!-- Creator: CorelDRAW -->
<svg xmlns="http://www.w3.org/2000/svg" xml:space="preserve" width="1600px" height="1372px" version="1.1" shape-rendering="geometricPrecision" text-rendering="geometricPrecision" image-rendering="optimizeQuality" fill-rule="evenodd" clip-rule="evenodd"
viewBox="0 0 163.06 139.84"
 xmlns:xlink="http://www.w3.org/1999/xlink"
 xmlns:xodm="http://www.corel.com/coreldraw/odm/2003">
 <g id="Слой_x0020_1">
  <metadata id="CorelCorpID_0Corel-Layer"/>
  <g id="_2330399524416">
   <g>
    <g>
     <path fill="black" fill-rule="nonzero" d="M103.6 114.15l-1.23 -6.87c-0.22,-1.22 -1.31,-2.11 -2.55,-2.09 -0.05,0.01 -0.09,0.01 -0.14,0.01 -1.35,0.06 -2.42,1.17 -2.42,2.53 0,0.38 0.08,0.73 0.22,1.05l1.13 6.27c0.21,1.17 -0.05,2.35 -0.74,3.32 -0.69,0.98 -1.72,1.63 -2.91,1.82 -4.16,0.69 -8.8,1.05 -13.43,1.05 -4.64,0 -9.29,-0.37 -13.45,-1.05 -1.19,-0.2 -2.22,-0.84 -2.91,-1.82 -0.69,-0.97 -0.95,-2.15 -0.74,-3.32l3.5 -19.67c0.31,-1.75 1.61,-3.13 3.32,-3.52 3.09,-0.71 6.65,-1.08 10.28,-1.08 3.6,0 7.13,0.37 10.21,1.06 1.71,0.39 3.02,1.77 3.33,3.52l0.48 2.68c0.25,1.38 1.57,2.29 2.95,2.05 1.38,-0.25 2.29,-1.57 2.05,-2.95l-0.49 -2.68c-0.67,-3.76 -3.5,-6.73 -7.2,-7.57 -3.44,-0.77 -7.36,-1.18 -11.33,-1.18 -4,0 -7.95,0.42 -11.41,1.2 -3.69,0.84 -6.52,3.82 -7.19,7.58l-3.5 19.67c-0.44,2.52 0.12,5.05 1.6,7.14 1.48,2.09 3.69,3.47 6.22,3.89 4.43,0.73 9.37,1.12 14.28,1.12 4.9,0 9.83,-0.39 14.25,-1.11 2.54,-0.42 4.75,-1.8 6.23,-3.9 1.48,-2.09 2.04,-4.63 1.59,-7.15z"/>
    </g>
   </g>
   <g>
    <g>
     <path fill="black" fill-rule="nonzero" d="M162.83 89.09l-2.92 -16.4c-0.24,-1.38 -1.56,-2.3 -2.94,-2.06 -1.38,0.25 -2.3,1.57 -2.05,2.94l2.92 16.41c0.88,4.97 -2.08,9.81 -6.88,11.27 -6.54,1.98 -14.81,3.08 -23.27,3.08 -4.21,0 -8.32,-0.26 -12.25,-0.78l-1.47 -8.16c0.03,0.01 0.06,0.01 0.09,0.02 4.23,0.69 8.95,1.06 13.63,1.06 4.7,0 9.43,-0.37 13.67,-1.07 2.45,-0.4 4.59,-1.74 6.02,-3.76 1.43,-2.02 1.98,-4.47 1.54,-6.91l-3.34 -18.8c-0.65,-3.64 -3.38,-6.52 -6.96,-7.33 -3.31,-0.75 -7.09,-1.15 -10.93,-1.15 -3.8,0 -7.55,0.39 -10.84,1.13 -3.59,0.81 -6.32,3.68 -6.98,7.33l-2.27 12.64c-0.89,-0.75 -1.87,-1.39 -2.94,-1.9 -1.42,-0.67 -2.89,-1.24 -4.39,-1.73l2.76 -15.35c0.49,-2.71 2.24,-5.02 4.69,-6.19 6.13,-2.91 13.25,-3.79 19.97,-3.79 6.69,0 13.93,0.89 20.09,3.85 2.43,1.17 4.18,3.48 4.65,6.18l0.68 3.81c0.25,1.38 1.57,2.3 2.94,2.05 1.38,-0.24 2.3,-1.56 2.06,-2.94l-0.68 -3.81c-0.77,-4.3 -3.55,-7.99 -7.45,-9.86 -1.35,-0.65 -2.8,-1.22 -4.35,-1.73l0 -33.54c0,-6.53 -4.86,-12.18 -11.29,-13.12 -4.31,-0.64 -8.99,-0.64 -13.29,0 -6.44,0.95 -11.29,6.59 -11.29,13.12l0 33.54c-1.5,0.49 -2.91,1.05 -4.22,1.66 -2.18,1.04 -4.02,2.65 -5.36,4.61l0 -13.7c0,-6.78 -5.03,-12.63 -11.71,-13.61 -4.5,-0.67 -9.38,-0.67 -13.87,0 -6.68,0.98 -11.72,6.83 -11.72,13.61l0 13.7c-1.33,-1.96 -3.17,-3.57 -5.36,-4.61 -1.3,-0.61 -2.72,-1.17 -4.21,-1.66l0 -33.54c0,-6.53 -4.86,-12.17 -11.29,-13.12 -4.31,-0.64 -8.98,-0.64 -13.29,0 -6.44,0.95 -11.29,6.59 -11.29,13.12l0 7.4c0,1.4 1.13,2.54 2.53,2.54 1.4,0 2.54,-1.14 2.54,-2.54l0 -7.4c0,-4.04 2.99,-7.52 6.96,-8.11 3.82,-0.56 7.99,-0.56 11.81,0 3.96,0.59 6.96,4.07 6.96,8.11 0,0 0,32.19 0,32.19 0,-0.27 -5.14,-0.83 -5.64,-0.88 -2.4,-0.26 -4.81,-0.39 -7.23,-0.39 -4.31,0 -8.64,0.39 -12.86,1.27l0 -14.64c0,-1.4 -1.14,-2.54 -2.54,-2.54 -1.4,0 -2.54,1.14 -2.54,2.54l0 15.99c-1.54,0.51 -3,1.08 -4.34,1.73 -3.9,1.87 -6.69,5.56 -7.45,9.86l-5.41 30.36c-1.33,7.5 3.14,14.81 10.4,17.01 7.11,2.16 15.67,3.3 24.74,3.3 3.86,0 7.64,-0.21 11.28,-0.62l-1.77 9.95c-1.38,7.78 3.26,15.38 10.8,17.66 7.43,2.26 16.37,3.45 25.85,3.45 2.77,0 5.57,-0.11 8.31,-0.32 1.4,-0.11 2.45,-1.33 2.34,-2.73 -0.11,-1.4 -1.34,-2.44 -2.73,-2.33 -2.61,0.2 -5.28,0.3 -7.92,0.3 -8.86,0 -17.52,-1.14 -24.38,-3.22 -5.08,-1.54 -8.21,-6.67 -7.27,-11.92 0,0 5.04,-28.34 5.04,-28.34 0.34,-1.92 0.49,-3.91 1.33,-5.7 0.87,-1.86 2.35,-3.39 4.22,-4.29 4.67,-2.24 9.89,-3.25 15.02,-3.75 2,-0.2 4.03,-0.28 6.04,-0.28 5.76,0 11.6,0.67 17.09,2.46 1.95,0.63 4.05,1.34 5.66,2.66 1.2,0.98 2.14,2.28 2.7,3.72 0.64,1.64 0.61,3.43 1.09,5.1 0,0 2.7,15.05 2.7,15.06l2.4 13.34c0.94,5.27 -2.18,10.4 -7.27,11.94 -2.04,0.62 -4.25,1.16 -6.59,1.61 -1.37,0.27 -2.27,1.6 -2.01,2.97 0.27,1.38 1.6,2.28 2.97,2.01 2.51,-0.48 4.9,-1.07 7.1,-1.73 7.55,-2.29 12.19,-9.9 10.79,-17.69l-1.78 -9.93c3.65,0.41 7.44,0.62 11.31,0.62 9.08,0 17.63,-1.14 24.74,-3.3 7.26,-2.2 11.73,-9.51 10.4,-17.01zm-48 -75.49c0,-4.04 2.99,-7.52 6.96,-8.11 3.81,-0.56 7.99,-0.56 11.81,0 3.96,0.59 6.96,4.07 6.96,8.11 0,0 0,32.19 0,32.19 -0.01,-1.11 -11.43,-1.27 -12.87,-1.27 -1.12,0 -12.86,0.39 -12.86,1.27l0 -32.19zm-63.54 70.7c-0.26,0.66 -0.47,1.34 -0.63,2.03 -0.24,1.07 -0.4,2.16 -0.59,3.24 -0.55,0.43 -1.19,0.72 -1.88,0.83 -3.97,0.66 -8.4,1 -12.82,1 -4.43,0 -8.87,-0.35 -12.84,-1 -1.1,-0.18 -2.06,-0.78 -2.7,-1.69 -0.64,-0.9 -0.89,-2 -0.69,-3.09l3.34 -18.8c0.29,-1.63 1.5,-2.91 3.09,-3.27 2.95,-0.68 6.34,-1.03 9.8,-1.03 3.43,0 6.8,0.35 9.74,1.01 1.58,0.36 2.8,1.64 3.09,3.27l3.12 17.39c-0.01,0.04 -0.02,0.07 -0.03,0.11zm4.17 -5.78l-2.27 -12.61c-0.65,-3.65 -3.39,-6.52 -6.97,-7.33 -3.3,-0.74 -7.05,-1.13 -10.85,-1.13 -3.84,0 -7.61,0.4 -10.93,1.15 -3.58,0.81 -6.31,3.69 -6.95,7.33 0,0 -3.35,18.79 -3.35,18.8 -0.88,4.97 2.6,9.85 7.56,10.67 8.97,1.48 18.34,1.48 27.31,0.01 0.01,0 0.01,-0.01 0.02,-0.01l-1.45 8.16c-3.91,0.51 -8.01,0.77 -12.21,0.77 -8.46,0 -16.72,-1.1 -23.27,-3.08 -4.8,-1.46 -7.75,-6.3 -6.87,-11.27l5.4 -30.36c0.48,-2.7 2.22,-5.01 4.66,-6.18 6.19,-2.98 13.28,-3.85 20.08,-3.85 6.72,0 13.85,0.88 19.97,3.8 2.46,1.16 4.21,3.47 4.69,6.18l2.76 15.35c-2.57,0.85 -5.22,1.86 -7.33,3.6zm39.65 -4.98c0,-1.16 -12.04,-1.36 -13.58,-1.36 -4.55,0 -9.12,0.42 -13.58,1.36l0 -33.83c0,-4.28 3.18,-7.98 7.39,-8.6 2,-0.29 4.08,-0.44 6.19,-0.44 2.11,0 4.2,0.15 6.2,0.44 4.21,0.62 7.38,4.32 7.38,8.6 0,0 0,33.83 0,33.83zm17.81 15.97c0,0 -0.47,-2.62 -0.47,-2.63 -0.18,-0.85 -0.4,-1.71 -0.71,-2.53 -0.01,-0.01 -0.01,-0.03 -0.02,-0.04l3.14 -17.51c0.3,-1.63 1.51,-2.91 3.1,-3.27 2.94,-0.66 6.3,-1.01 9.73,-1.01 3.47,0 6.86,0.36 9.81,1.03 1.58,0.36 2.8,1.64 3.09,3.27l3.34 18.8c0.19,1.09 -0.05,2.19 -0.69,3.09 -0.64,0.91 -1.6,1.51 -2.7,1.69 -3.98,0.65 -8.42,1 -12.85,1 -4.41,0 -8.85,-0.34 -12.81,-1 -0.73,-0.12 -1.4,-0.42 -1.96,-0.89z"/>
    </g>
   </g>
   <g>
   </g>
   <g>
   </g>
   <g>
   </g>
   <g>
   </g>
   <g>
   </g>
   <g>
   </g>
   <g>
   </g>
   <g>
   </g>
   <g>
   </g>
   <g>
   </g>
   <g>
   </g>
   <g>
   </g>
   <g>
   </g>
   <g>
   </g>
   <g>
   </g>
  </g>
 </g>
</svg>
