<?xml version="1.0" encoding="UTF-8"?>
<!DOCTYPE svg PUBLIC "-//W3C//DTD SVG 1.1//EN" "http://www.w3.org/Graphics/SVG/1.1/DTD/svg11.dtd">
<!-- Creator: CorelDRAW -->
<svg xmlns="http://www.w3.org/2000/svg" xml:space="preserve" width="1600px" height="1600px" version="1.1" shape-rendering="geometricPrecision" text-rendering="geometricPrecision" image-rendering="optimizeQuality" fill-rule="evenodd" clip-rule="evenodd"
viewBox="0 0 1179.46 1179.46"
 xmlns:xlink="http://www.w3.org/1999/xlink"
 xmlns:xodm="http://www.corel.com/coreldraw/odm/2003">
 <g id="Слой_x0020_1">
  <metadata id="CorelCorpID_0Corel-Layer"/>
  <g id="_2744828335904">
   <path fill="black" d="M32.25 589.73c0,-94.52 27.68,-193.51 72.98,-274.87l26.71 -42.4c5.45,-7.55 8.86,-12.58 14.77,-19.78 10.58,-12.88 19.36,-26.15 31.23,-37.89 42.03,-41.56 44.03,-45.69 93.21,-81.85 7.19,-5.29 13.54,-8.61 20.95,-13.61 7.13,-4.82 14.28,-9.22 21.29,-13.26 15.57,-8.98 30.55,-15.83 47.51,-23.91 63.5,-30.27 155.85,-49.91 228.83,-49.91 38.37,0 86.95,6.46 123.51,14.71 32.33,7.31 50.73,13.04 79.21,24.45 56.86,22.78 129.97,63.8 172.22,106.53 32.94,33.31 53.53,52.38 81.64,93.43 2.72,3.97 4.39,5.88 6.8,9.33 46.09,66.1 80.14,161.51 89.31,242.42 11.22,99.1 -1.81,205.6 -45.09,295.47 -49.4,102.6 -100.1,161.38 -189.34,227.61 -26.46,19.64 -57.95,35.99 -89.4,51.13 -136.08,65.53 -322.34,65 -457.72,0 -39.72,-19.07 -51.75,-24.84 -88.12,-50.09 -88.75,-61.63 -144.78,-133.46 -190.62,-228.65 -31.09,-64.57 -49.88,-157.02 -49.88,-228.86zm-32.25 -20.73c0,105.73 12.82,183.53 54.49,270.32 30.79,64.14 67.99,118.23 117.71,167.95 101.2,101.2 251.61,172.19 396.8,172.19 105.84,0 183.43,-12.76 270.32,-54.48 128.02,-61.47 220.36,-153.1 284.89,-284.12 31.24,-63.41 55.25,-158.51 55.25,-230.39 0,-105.47 -12.92,-183.77 -54.48,-270.33 -19.88,-41.39 -30.15,-55.57 -52.87,-89.96 -14.81,-22.4 -30.81,-39.47 -47.55,-58.42 -99.52,-112.64 -261.62,-191.76 -414.09,-191.76 -105.98,0 -183.32,12.71 -270.33,54.49 -100.47,48.24 -168.57,107.65 -232.23,193.94 -61.54,83.42 -107.91,213.02 -107.91,320.57z"/>
   <path fill="black" d="M587.43 1073.5c-17.11,0 -39.73,-2.6 -55.49,-4.41 -78.06,-8.98 -154.41,-38.74 -217.28,-82.19 -47.87,-33.09 -87.74,-73.7 -121.15,-120.74 -32.75,-46.13 -61.89,-109.88 -74.32,-167.55 -23.68,-109.82 -14.25,-205.35 29.87,-307.67 31.74,-73.59 98.01,-153.59 164.23,-197.44 149.18,-98.79 308.84,-113.21 473.24,-44.75 99.49,41.43 201.19,140.37 242.23,239.23 16.23,39.1 19.98,47.68 30.45,89.34 12.56,49.96 18.2,112.59 10.71,164.12 -7.42,50.96 -16.2,96.61 -38.66,143.33l-19.84 40.05c-17.87,31.04 -27.38,44.55 -49.46,72.64l-29.56 32.64c-37.51,37.48 -95.4,79.98 -144.22,99.96 -64.42,26.36 -129.16,43.44 -200.75,43.44zm-513.71 -504.5c0,92.23 9.98,163.57 48.36,239.59 11.18,22.14 24.26,48.54 38.83,69.44 14.42,20.68 46.25,60.71 63.03,77.5 6.19,6.19 10,7.63 16.26,13.68 40.89,39.48 78.38,61.81 129.15,87.4 129.71,65.38 309.64,66.2 439.24,0.77 42.98,-21.7 41.55,-20.26 78.77,-45.62l35.08 -27.12c7.65,-5.98 9.1,-8.12 15.69,-14.26 21.66,-20.15 8.68,-5.63 31.15,-31.05 17.17,-19.44 25.59,-27.19 41.56,-50.58 23.21,-33.99 26.07,-39.56 45.77,-78.63 87.9,-174.39 55.57,-406.18 -71.16,-551.6l-30.81 -33.7c-24.38,-24.38 -40.8,-37.28 -67.39,-57.01 -70.05,-51.99 -183.56,-94.09 -281.39,-94.09 -91.25,0 -161.17,11.35 -234.97,48.37 -22.03,11.05 -48.72,24.37 -69.46,38.82 -42.8,29.85 -87.81,69.12 -119.13,111.23 -61.98,83.32 -108.58,186.75 -108.58,296.86z"/>
   <path fill="black" d="M504.5 656.54l0 87.54c0,10.74 13.99,16.12 25.34,16.12l241.88 0 0 39.16 -248.79 0c-11.15,0 -18.43,7.29 -18.43,18.43l0 99.06 -39.16 0 0 -94.45c0,-13.74 -4.7,-23.04 -18.43,-23.04l-76.02 0 0 -39.16 64.5 0c16.56,0 29.95,-4.3 29.95,-20.73l0 -80.63c0,-12.54 -8.19,-20.73 -20.74,-20.73l-71.41 0 0 -39.16 73.72 0c11.88,0 18.43,-9.59 18.43,-20.74l0 -315.59 207.32 0c62.2,0 131.8,51.7 157.36,112.17 40.27,95.28 -1.37,200.36 -88.96,244.18 -52.04,26.03 -116.4,19.15 -185.88,19.14 -23.38,0 -50.68,-4.95 -50.68,18.43zm-73.72 -410.05l0 317.9 -69.11 0c-13.74,0 -23.03,4.7 -23.03,18.43l0 71.41c0,11.15 7.28,18.43 18.43,18.43l73.71 0 0 52.99 -76.02 0c-26.02,0 -18.43,46.66 -18.43,82.93 0,34.6 38.16,25.34 94.45,25.34l0 99.06c0,11.14 7.29,18.42 18.43,18.42l71.41 0c13.73,0 18.43,-9.29 18.43,-23.03l0 -94.45 237.28 0c38.35,0 29.94,-21.91 29.94,-82.93 0,-13.71 -4.43,-25.34 -18.42,-25.34l-248.8 0 0 -52.99c106.87,0 194.46,14.02 273.56,-65.07 21.36,-21.36 31.58,-36.15 45.91,-64.67 33.24,-66.16 23.97,-154.84 -16.28,-214.91 -8.62,-12.87 -15.69,-19.94 -24.4,-30.89 -11.74,-14.75 -44.97,-37.41 -63.75,-46.82 -20.68,-10.35 -58.61,-22.24 -88.34,-22.24l-216.54 0c-11.14,0 -18.43,7.29 -18.43,18.43z"/>
   <path fill="black" d="M661.15 564.39l-122.1 0 0 -228.06 129.01 0c51.89,0 103.66,52.41 103.66,115.18 0,60.01 -50.95,112.88 -110.57,112.88zm-156.65 -244.18l0 260.31c0,11.14 7.28,18.43 18.43,18.43l133.61 0c44.8,0 81.43,-20.23 104.25,-43.18 101.09,-101.68 14.74,-253.99 -97.34,-253.99l-140.52 0c-11.15,0 -18.43,7.28 -18.43,18.43z"/>
  </g>
 </g>
</svg>
