<?xml version="1.0" encoding="UTF-8"?>
<!DOCTYPE svg PUBLIC "-//W3C//DTD SVG 1.1//EN" "http://www.w3.org/Graphics/SVG/1.1/DTD/svg11.dtd">
<!-- Creator: CorelDRAW -->
<svg xmlns="http://www.w3.org/2000/svg" xml:space="preserve" width="1458px" height="1600px" version="1.1" shape-rendering="geometricPrecision" text-rendering="geometricPrecision" image-rendering="optimizeQuality" fill-rule="evenodd" clip-rule="evenodd"
viewBox="0 0 236.74 259.78"
 xmlns:xlink="http://www.w3.org/1999/xlink"
 xmlns:xodm="http://www.corel.com/coreldraw/odm/2003">
 <g id="Слой_x0020_1">
  <metadata id="CorelCorpID_0Corel-Layer"/>
  <g id="_2780650486096">
   <g>
    <g>
     <path fill="black" fill-rule="nonzero" d="M65.16 250.81l-18.28 0 0 -51.91c0,-10.09 5.15,-19.25 13.79,-24.49 2.12,-1.29 2.79,-4.04 1.51,-6.16 -1.29,-2.11 -4.04,-2.79 -6.16,-1.5 -11.34,6.88 -18.11,18.9 -18.11,32.15l0 56.4c0,2.47 2.01,4.48 4.49,4.48l22.76 0c2.48,0 4.48,-2.01 4.48,-4.48 0,-2.48 -2,-4.49 -4.48,-4.49z"/>
    </g>
   </g>
   <g>
    <g>
     <path fill="black" fill-rule="nonzero" d="M155.64 250.81l-43.64 0 0 -37.15 32.12 -31.55c1.77,-1.73 1.79,-4.57 0.06,-6.33 -1.74,-1.77 -4.57,-1.79 -6.34,-0.06l-30.32 29.78 -30.32 -29.78c-1.76,-1.73 -4.6,-1.71 -6.34,0.06 -1.73,1.76 -1.7,4.6 0.06,6.33l32.12 31.55 0 37.15 -22.94 0c-2.48,0 -4.48,2.01 -4.48,4.48 0,2.48 2,4.49 4.48,4.49l75.54 0c2.48,0 4.48,-2.01 4.48,-4.49 0,-2.47 -2,-4.48 -4.48,-4.48z"/>
    </g>
   </g>
   <g>
    <g>
     <path fill="black" fill-rule="nonzero" d="M170.75 177.95c-3.03,-4.51 -7.09,-8.38 -11.74,-11.2 -2.11,-1.29 -4.87,-0.61 -6.15,1.5 -1.29,2.12 -0.61,4.87 1.5,6.16 3.55,2.15 6.64,5.11 8.95,8.55 0.87,1.28 2.29,1.98 3.73,1.98 0.86,0 1.73,-0.25 2.49,-0.77 2.06,-1.38 2.6,-4.16 1.22,-6.22z"/>
    </g>
   </g>
   <g>
    <g>
     <path fill="black" fill-rule="nonzero" d="M174.4 25.28c-13.09,-16.96 -40.1,-27.02 -67.21,-25.03 -0.07,0.01 -0.14,0.01 -0.21,0.02 -1.42,0.17 -31.68,4.1 -37.19,22.26 -2.55,-0.65 -5.79,-1.22 -9.33,-1.24 -7.76,-0.04 -18.44,2.61 -25.04,15.44 -6.41,12.46 -9.09,34.23 -3.13,49.78 -3.42,3.35 -5.54,8.01 -5.54,13.16 0,8.29 5.44,15.31 13.01,17.62 -0.71,16.54 6.96,32.58 20.44,42.36l24.52 17.83c6.82,4.95 14.81,7.43 22.8,7.43 7.99,0 15.98,-2.48 22.8,-7.43l24.53 -17.83c2,-1.45 3.91,-3.07 5.67,-4.81 1.98,-1.66 17.88,-15.37 27.76,-37.31 9.63,-21.4 15.04,-54.78 -13.88,-92.25zm-133.82 82.67c-2.91,-1.61 -4.87,-4.71 -4.87,-8.28 0,-4.2 2.75,-7.76 6.54,-8.99l-1.67 17.27zm113.02 41.12c-1.27,1.19 -2.61,2.31 -4.02,3.34l-24.53 17.82c-10.49,7.62 -24.58,7.62 -35.06,0l-24.53 -17.83c-11.62,-8.44 -17.98,-22.57 -16.6,-36.87l2.88 -29.86c12.17,-4.92 22.31,-18.07 27.43,-25.77 6.16,7.36 18.96,19.28 37.29,19.28 0.88,0 1.78,-0.03 2.7,-0.09 13.52,-0.85 23.67,3.01 30.19,11.49 11.2,14.58 10.08,40.29 4.25,58.49zm26.63 -35.5c-4.2,9.42 -9.72,17.29 -14.55,23.11 0.93,-6.05 1.33,-12.17 1.14,-18.07 -0.43,-13.64 -4.01,-25.23 -10.37,-33.49 -8.44,-10.99 -21.17,-16.02 -37.86,-14.97 -22.13,1.4 -35.79,-20.35 -35.92,-20.56 -0.83,-1.36 -2.33,-2.18 -3.92,-2.15 -1.6,0.03 -3.06,0.92 -3.83,2.31 -0.13,0.24 -13.49,24.07 -28.57,28.31 -1.59,0.44 -2.78,1.72 -3.15,3.3 -1.05,0.11 -2.06,0.31 -3.05,0.59 -4.67,-13.67 -1.43,-32.05 3.24,-41.13 3.64,-7.07 9.13,-10.52 16.78,-10.57 6.16,-0.05 11.34,2.26 11.38,2.28 1.39,0.63 3,0.51 4.29,-0.31 1.28,-0.82 2.05,-2.24 2.05,-3.77 0,-14.71 28.32,-19.02 30.09,-19.27 24.19,-1.74 48.02,6.92 59.33,21.58 20.96,27.16 25.31,55.02 12.92,82.81z"/>
    </g>
   </g>
   <g>
    <g>
     <path fill="black" fill-rule="nonzero" d="M80.92 100.67c-2.47,0 -4.48,2.01 -4.48,4.48l0 7.17c0,2.48 2.01,4.48 4.48,4.48 2.48,0 4.48,-2 4.48,-4.48l0 -7.17c0,-2.47 -2,-4.48 -4.48,-4.48z"/>
    </g>
   </g>
   <g>
    <g>
     <path fill="black" fill-rule="nonzero" d="M147.53 90.93c-7.4,-7.39 -19.43,-7.39 -26.83,0 -1.75,1.75 -1.75,4.59 0,6.34 1.75,1.75 4.59,1.75 6.34,0 3.9,-3.9 10.25,-3.9 14.15,0 0.88,0.87 2.03,1.31 3.17,1.31 1.15,0 2.3,-0.44 3.17,-1.31 1.75,-1.75 1.75,-4.59 0,-6.34z"/>
    </g>
   </g>
   <g>
    <g>
     <path fill="black" fill-rule="nonzero" d="M94.33 90.93c-7.39,-7.39 -19.43,-7.39 -26.82,0 -1.75,1.75 -1.75,4.59 0,6.34 1.75,1.75 4.59,1.75 6.33,0 3.91,-3.9 10.26,-3.9 14.16,0 0.87,0.87 2.02,1.31 3.17,1.31 1.14,0 2.29,-0.44 3.16,-1.31 1.75,-1.75 1.75,-4.59 0,-6.34z"/>
    </g>
   </g>
   <g>
    <g>
     <path fill="black" fill-rule="nonzero" d="M134.12 100.67c-2.48,0 -4.48,2.01 -4.48,4.48l0 7.17c0,2.48 2,4.48 4.48,4.48 2.47,0 4.48,-2 4.48,-4.48l0 -7.17c0,-2.47 -2.01,-4.48 -4.48,-4.48z"/>
    </g>
   </g>
   <g>
    <g>
     <path fill="black" fill-rule="nonzero" d="M122.52 138.3c-1.74,-1.75 -4.58,-1.75 -6.33,0 -4.78,4.78 -12.56,4.78 -17.34,0 -1.75,-1.75 -4.59,-1.75 -6.34,0 -1.75,1.75 -1.75,4.58 0,6.33 4.14,4.14 9.57,6.21 15.01,6.21 5.43,0 10.87,-2.07 15,-6.21 1.75,-1.75 1.75,-4.59 0,-6.33z"/>
    </g>
   </g>
   <g>
    <g>
     <path fill="black" fill-rule="nonzero" d="M112.2 117.49l-0.2 0 0 -9.26c0,-2.48 -2.01,-4.48 -4.48,-4.48 -2.48,0 -4.48,2 -4.48,4.48l0 9.26 -0.21 0c-2.47,0 -4.48,2.01 -4.48,4.48 0,2.48 2.01,4.48 4.48,4.48l9.37 0c2.48,0 4.48,-2 4.48,-4.48 0,-2.47 -2,-4.48 -4.48,-4.48z"/>
    </g>
   </g>
   <g>
    <g>
     <path fill="black" fill-rule="nonzero" d="M205.59 231.19c-2.48,0 -4.48,2.01 -4.48,4.48l0 15.14 -26.7 0 0 -35.63 4.77 0 17.16 0 4.77 0 0 5.55c0,2.48 2,4.48 4.48,4.48 2.47,0 4.48,-2 4.48,-4.48l0 -10.03c0,-2.48 -2.01,-4.48 -4.48,-4.48l-4.77 0 0 -25.07c0,-5.83 -4.75,-10.57 -10.58,-10.57l-4.96 0c-5.83,0 -10.58,4.74 -10.58,10.57l0 25.07 -4.77 0c-2.47,0 -4.48,2 -4.48,4.48l0 44.6c0,2.47 2.01,4.48 4.48,4.48l35.66 0c2.47,0 4.48,-2.01 4.48,-4.48l0 -19.63c0,-2.47 -2.01,-4.48 -4.48,-4.48zm-21.92 -50.04c0,-0.88 0.72,-1.61 1.61,-1.61l4.96 0c0.89,0 1.62,0.73 1.62,1.61l0 25.07 -8.19 0 0 -25.07z"/>
    </g>
   </g>
   <g>
    <g>
     <path fill="black" fill-rule="nonzero" d="M38.54 169.05l-1.72 0 0 -17.19c0,-2.3 -1.73,-4.19 -3.96,-4.44l0 -17.22c0,-1.25 -0.51,-2.43 -1.42,-3.28l-13.74 -12.83c-1.31,-1.21 -3.21,-1.54 -4.85,-0.83 -1.63,0.71 -2.69,2.33 -2.69,4.11l0 30.05c-2.23,0.25 -3.97,2.15 -3.97,4.44l0 17.19 -1.71 0c-2.47,0 -4.48,2.01 -4.48,4.48l0 50.19c0,2.48 2.01,4.48 4.48,4.48l25.1 0c2.47,0 4.48,-2 4.48,-4.48 0,-2.47 -2.01,-4.48 -4.48,-4.48l-20.62 0 0 -41.23 29.58 0c2.47,0 4.48,-2 4.48,-4.48 0,-2.47 -2.01,-4.48 -4.48,-4.48zm-19.42 -41.37l4.78 4.46 0 15.24 -4.78 0 0 -19.7zm8.74 41.37l-12.7 0 0 -12.71 12.7 0 0 12.71 0 0z"/>
    </g>
   </g>
   <g>
    <g>
     <path fill="black" fill-rule="nonzero" d="M235.43 16.55c-1.75,-1.75 -4.59,-1.75 -6.34,0l-7.91 7.9c-1.75,1.75 -1.75,4.59 0,6.34 0.88,0.88 2.03,1.31 3.17,1.31 1.15,0 2.3,-0.43 3.17,-1.31l7.91 -7.91c1.75,-1.75 1.75,-4.59 0,-6.33z"/>
    </g>
   </g>
   <g>
    <g>
     <path fill="black" fill-rule="nonzero" d="M211.86 40.11c-1.75,-1.75 -4.58,-1.75 -6.33,0l-7.91 7.91c-1.75,1.75 -1.75,4.59 0,6.34 0.87,0.87 2.02,1.31 3.17,1.31 1.14,0 2.29,-0.44 3.17,-1.31l7.9 -7.91c1.75,-1.75 1.75,-4.59 0,-6.34z"/>
    </g>
   </g>
   <g>
    <g>
     <path fill="black" fill-rule="nonzero" d="M235.43 48.02l-7.91 -7.91c-1.75,-1.75 -4.59,-1.75 -6.33,0 -1.75,1.75 -1.75,4.59 0,6.34l7.9 7.91c0.88,0.87 2.03,1.31 3.17,1.31 1.15,0 2.3,-0.44 3.17,-1.31 1.75,-1.75 1.75,-4.59 0,-6.34z"/>
    </g>
   </g>
   <g>
    <g>
     <path fill="black" fill-rule="nonzero" d="M211.86 24.45l-7.9 -7.9c-1.75,-1.75 -4.59,-1.75 -6.34,0 -1.75,1.75 -1.75,4.58 0,6.33l7.91 7.91c0.87,0.88 2.02,1.31 3.17,1.31 1.14,0 2.29,-0.43 3.16,-1.31 1.75,-1.75 1.75,-4.59 0,-6.34z"/>
    </g>
   </g>
   <g>
    <g>
     <circle fill="black" fill-rule="nonzero" cx="123.17" cy="219.66" r="4.48"/>
    </g>
   </g>
   <g>
   </g>
   <g>
   </g>
   <g>
   </g>
   <g>
   </g>
   <g>
   </g>
   <g>
   </g>
   <g>
   </g>
   <g>
   </g>
   <g>
   </g>
   <g>
   </g>
   <g>
   </g>
   <g>
   </g>
   <g>
   </g>
   <g>
   </g>
   <g>
   </g>
  </g>
 </g>
</svg>
