<?xml version="1.0" encoding="UTF-8"?>
<!DOCTYPE svg PUBLIC "-//W3C//DTD SVG 1.1//EN" "http://www.w3.org/Graphics/SVG/1.1/DTD/svg11.dtd">
<!-- Creator: CorelDRAW -->
<svg xmlns="http://www.w3.org/2000/svg" xml:space="preserve" width="1581px" height="1600px" version="1.1" shape-rendering="geometricPrecision" text-rendering="geometricPrecision" image-rendering="optimizeQuality" fill-rule="evenodd" clip-rule="evenodd"
viewBox="0 0 164.44 166.39"
 xmlns:xlink="http://www.w3.org/1999/xlink"
 xmlns:xodm="http://www.corel.com/coreldraw/odm/2003">
 <g id="Слой_x0020_1">
  <metadata id="CorelCorpID_0Corel-Layer"/>
  <g id="_2440200369168">
   <path fill="black" d="M23.72 103.99c-7.18,0 -11.05,-3.6 -11.05,-10.72 0,-1.12 0.24,-1.26 0.33,-2.28 2.46,1.18 33.64,3.58 38.35,3.58l-27.63 9.42zm41.28 -14.3l-34.77 -1.62c-1.84,-0.08 -4.14,-0.42 -5.88,-0.62 -4.15,-0.49 -7.73,-1.33 -12,-1.33 -5.83,0 -6.93,12.19 -0.25,18.77 0.97,0.96 2.24,1.53 2.85,2.35 -2.69,0.63 -5.28,1.82 -8,2.73 -3.17,1.05 -5.98,1.88 -5.98,5.72 0,5.17 7.5,10.65 12.03,11.7 -3.67,3.19 -13,4.25 -13,10.4 0,5.42 13.1,16.54 25.09,9.49l17.81 -9.49c1.89,-0.94 30.75,-16.9 32.49,-16.9 4.37,0 2.14,6.02 1.77,8.27 -0.33,1.99 -0.49,3.7 -1.32,5.17 -1.98,3.49 -9.48,10.26 -12.47,14.18 -1.62,2.13 -5.2,4.6 -5.2,8.13 0,6.85 12.13,12.62 20.66,7.01 3.01,-1.98 16.34,-12.01 18.59,-14.24 6.41,-6.34 11.43,-13.97 16.83,-21.18 3.97,-5.31 2.52,-2.65 12.25,5.91 0.56,0.49 0.92,0.92 1.46,1.46 3.07,3.07 7.35,7.98 10.62,10.5 3.85,2.98 7.22,7 10.67,10.46l7.96 7.64c1.18,1.19 2.05,2.19 3.98,2.19 1.63,0 3.25,-1.62 3.25,-3.25l0 -61.1c0,-3.44 -5.63,-7.74 -8.04,-10.15 -0.96,-0.96 -1.98,-2.52 -3.66,-2.52 -1.39,0 -2.6,1 -2.6,2.27 0,3.18 7.41,7.35 8.83,10.02 0.72,1.34 0.27,53.18 0.27,57.25 -0.99,-0.66 -1.61,-1.49 -2.51,-2.36 -1.01,-0.97 -1.72,-1.36 -2.77,-2.43l-10.07 -10.08c-0.97,-0.96 -1.62,-1.27 -2.61,-2.26l-10.07 -10.09c-1.03,-1.04 -1.77,-1.43 -2.77,-2.42 -5.75,-5.69 -10.89,-14.14 -17.67,-4.85 -1.57,2.15 -2.96,4.06 -4.55,6.17 -2.43,3.24 -6.47,9.36 -9.29,12.16 -5.42,5.39 -11.73,9.68 -17.77,14.4 -3.91,3.05 -8.44,5.34 -13.19,2.41 -4.23,-2.61 -2.33,-3.79 0.25,-6.57 0.69,-0.75 0.76,-1.05 1.45,-1.8 3.39,-3.65 12.41,-12.86 13.51,-16.39 0.7,-2.25 2.01,-8.96 2.01,-11.31 0,-4.16 -3.63,-7.8 -7.8,-7.8 -3.1,0 -11.15,5.1 -14.62,6.82l-10.62 5.64c-1.4,0.7 -2.12,1.24 -3.57,1.95 -1.36,0.67 -2.17,1.23 -3.35,1.85 -1.22,0.63 -2.42,1.13 -3.69,1.84l-13.98 7.46c-4.54,2.31 -5.02,3.04 -10.61,3.04 -3.46,0 -9.51,-4.2 -9.75,-7.15 2.1,-0.49 12.52,-6.37 14.96,-7.78 1.17,-0.69 2.37,-1.19 3.68,-1.86l33.54 -17.79c1.42,-0.85 2.74,-1.08 3.14,-2.72 0.43,-1.8 -1,-3 -3,-3 -1.19,0 -24.58,12.95 -28.7,15.17 -6.8,3.66 -15.28,6.31 -21.07,-0.82 -0.79,-0.96 -1.46,-1.53 -1.58,-2.97 1.93,-0.16 26.94,-8.94 30.36,-10.27 9.69,-3.75 20.58,-6.59 30.28,-10.34 2.55,-0.99 4.83,-1.7 7.49,-2.59 2.71,-0.9 4.75,-1.69 7.47,-2.6l30.47 -10.48c3.29,-1.12 13.36,-5 16.13,-5 4.51,0 7.04,3.96 9.83,6.75 1.48,1.49 2.74,2.74 4.21,4.24 0.69,0.69 1.47,1.49 2.73,1.24 1.17,-0.23 2.07,-1.39 2.07,-2.48 0,-2.03 -6.26,-7.4 -7.88,-9.01 -7.01,-7.01 -9.68,-6.96 -19.21,-3.78l-39.16 13.49c-2.95,0.97 -13.58,5.15 -15.96,5.15z"/>
   <path fill="black" d="M29.57 45.82l0 -7.8 22.43 -13 0 8.13c-1.59,0.42 -20.97,12.28 -22.43,12.67zm0 -13.65l0 -8.12 10.79 -6.11c1.84,-1.11 3.49,-1.97 5.36,-3.09 1.96,-1.18 3.65,-2.1 5.63,-3.15 0.87,3.76 0.65,2.76 0.65,6.82 0,1.19 -3.13,2.43 -5.14,3.64 -1.99,1.2 -3.73,2.12 -5.77,3.33 -2.04,1.2 -3.76,2.12 -5.77,3.33 -1.95,1.17 -3.97,2.16 -5.75,3.35zm0 -13.97c0,-5.88 1.53,-9.58 6.19,-12.02 4.61,-2.41 10.7,-0.83 12.34,1.62l-15.99 9.03c-0.81,0.5 -1.62,1.12 -2.54,1.37zm-4.87 -3.58l0 52.33c0,2.81 0.69,4.32 1.62,6.17 1.16,2.32 1.58,2.7 3.33,4.47 1.44,1.44 2.61,2.3 4.57,3.23 10.06,4.76 22.98,-2.88 22.98,-14.52l0 -9.1c0,-1.39 -1.01,-2.6 -2.28,-2.6 -2.96,0 -2.94,2.86 -2.93,5.84 0.04,5.9 0.97,9.61 -3.64,13.91 -3.32,3.08 -8.75,3.51 -12.72,1.49 -0.89,-0.45 -0.88,-0.42 -1.6,-1.01l-0.85 -0.76c-2.19,-2.11 -3.61,-4.82 -3.61,-8.75l0 -13c0,-1.04 4.25,-3 5.22,-3.56 1.96,-1.13 3.8,-2.14 5.77,-3.33l8.45 -4.87c0.8,-0.48 2.14,-1.34 2.99,-1.56 0,2.17 -0.24,6.54 0.47,7.97 1.26,2.53 4.73,1.04 4.73,-0.82l0 -30.23c0,-8.59 -7.91,-15.92 -14.95,-15.92 -4.2,0 -6.78,0.21 -10.54,2.79 -2.42,1.65 -3.97,3.3 -5.37,6 -0.7,1.35 -1.64,3.84 -1.64,5.83z"/>
   <path fill="black" d="M86.77 38.02c1.63,1.19 1.81,7.62 11.05,12.03 0.96,0.46 1.71,0.53 2.27,1.3 -3.7,0.31 -8.92,4.81 -11.04,8.46 -1.34,2.32 -1.13,3.37 -2.28,4.21 -1.4,-6.01 -8.16,-12.3 -12.68,-12.67 1.02,-1.39 4.36,-1.6 7.89,-5.12 1.65,-1.63 4.59,-5.83 4.79,-8.21zm-18.85 13c0,5.28 6.74,4.6 10.66,8.52 3.85,3.85 3.25,10.66 8.51,10.66 6.73,0 2.61,-10.08 14.43,-14.18 5.28,-1.83 5.5,-5.77 3.37,-8.17 -1.51,-1.72 -6.12,-2.02 -9.36,-5.26 -3.67,-3.67 -3.9,-12.77 -10.25,-10.3 -4.16,1.62 -2.46,8.34 -9.24,12.22 -3.05,1.75 -8.12,2.18 -8.12,6.51z"/>
   <path fill="black" d="M120.24 15.6c1.2,0.88 0.72,1.52 2.67,3.5 1.44,1.46 2.03,1.72 3.83,2.67 -0.84,1.15 -3.18,1.51 -5.14,4.61 -0.61,0.96 -0.51,1.27 -1.36,1.89 -0.61,-2.62 -3.83,-5.63 -6.17,-6.17 0.49,-0.43 0.13,-0.13 0.76,-0.54 2.33,-1.54 4.73,-3.01 5.41,-5.96zm-13 5.85c0,5.3 4.54,3.78 7.21,6.77 1.31,1.47 3.38,10.1 8.47,6.3 0.7,-0.52 0.95,-1.04 1.32,-1.92 1.64,-3.86 1.77,-4.95 6.55,-6.78 4.49,-1.72 3.64,-6.3 0.47,-7.59 -8.64,-3.53 -5.01,-6 -8.16,-8.73 -4.88,-4.23 -7.35,4.54 -8.5,5.98 -1.98,2.45 -7.36,2.44 -7.36,5.97z"/>
  </g>
 </g>
</svg>
