<?xml version="1.0" encoding="UTF-8"?>
<!DOCTYPE svg PUBLIC "-//W3C//DTD SVG 1.1//EN" "http://www.w3.org/Graphics/SVG/1.1/DTD/svg11.dtd">
<!-- Creator: CorelDRAW -->
<svg xmlns="http://www.w3.org/2000/svg" xml:space="preserve" width="1600px" height="1600px" version="1.1" shape-rendering="geometricPrecision" text-rendering="geometricPrecision" image-rendering="optimizeQuality" fill-rule="evenodd" clip-rule="evenodd"
viewBox="0 0 75.57 75.57"
 xmlns:xlink="http://www.w3.org/1999/xlink"
 xmlns:xodm="http://www.corel.com/coreldraw/odm/2003">
 <g id="Слой_x0020_1">
  <metadata id="CorelCorpID_0Corel-Layer"/>
  <g id="_2780198523456">
   <path fill="black" d="M55.2 61.11zm0 0zm20.37 13.14l0 0.44c-0.01,0.07 -0.03,0.14 -0.06,0.22 -0.16,0.41 -0.45,0.61 -0.77,0.66l-0.35 0c-0.29,-0.04 -0.58,-0.19 -0.78,-0.39l-8.78 -8.8c-2.95,-2.95 -6.13,-4.51 -10.32,-2.42 -1.4,0.7 -2.02,1.78 -3.03,2.87 -1.7,1.83 -3.44,3.35 -5.39,4.8l-1.75 1.2c-1.27,0.78 -6.07,4.12 -6.66,1.94 -0.37,-1.38 2.33,-2.08 3.21,-2.59 0.66,-0.37 1.23,-0.64 1.89,-1.06 0.6,-0.39 1.18,-0.76 1.76,-1.2l2.46 -1.96c2.4,-1.86 4.42,-4.47 5.79,-7.19 0.34,-0.68 0.58,-1.38 0.73,-2.23 0.2,-1.05 0.17,-1.91 -0.62,-2.21 -0.84,-0.31 -36.36,-0.09 -42.28,-0.08 -1.98,0 -1.77,-1.91 -0.7,-2.19 0.61,-0.16 4.77,-0.04 5.73,-0.04 0,-8.8 -0.1,-15.13 4.42,-21.55 3.91,-5.53 11.02,-8.7 17.91,-7.42 2.99,0.55 -0.16,2.47 -0.35,6.54 -0.04,1.01 0.39,3.34 -1.42,2.92 -2.2,-0.49 -0.25,-5.85 0.1,-7.35 -2.29,0 -3.56,-0.05 -5.35,0.41 -1.53,0.4 -2.74,0.91 -4,1.61 -1.04,0.58 -2.35,1.63 -3.16,2.44 -6.15,6.19 -5.79,13.95 -5.79,22.4l4.28 0c0,-1.42 0,-2.85 0,-4.28 0,-1.37 -0.21,-2.96 1.18,-2.96 1.5,0.01 1.18,1.65 1.18,3.11 0,1.38 0,2.76 0,4.13l6.64 0c-2.33,-4.41 0.86,-6.04 1.63,-7.08 -2.08,-1.1 -6.13,-5.48 -6.35,-8.12 -0.7,0.51 -1.34,2.89 -1.54,4.07 -0.13,0.79 -0.24,1.56 -1.15,1.66 -3.07,0.34 0.52,-7.77 2.1,-8.83 -0.28,-1.21 -0.31,-3.25 1.13,-3.05 1.46,0.2 0.93,1.98 1.16,3.41 0.4,2.41 1.15,4.51 2.76,6.25 1.49,1.6 3.27,2.89 5.13,4.02 0.48,0.29 0.91,0.86 0.48,1.65 -0.32,0.6 -0.83,0.47 -1.6,0.62 -2.71,0.56 -2.96,4.09 -0.63,5.09 1.1,0.46 2.75,0.3 4.26,0.31 1.25,0.01 1.22,0.2 1.89,-0.47l1.19 -1.03c0.83,-0.68 1.65,-1.22 2.61,-1.81 1.95,-1.18 3.89,-1.98 6.33,-2.68 1.86,-0.53 3.94,-0.8 5.99,-0.8 0.93,0 1.36,0.09 2.07,0.15 0.36,-1.56 2.36,-4.24 2.91,-8.3 0.48,-3.51 -4.66,-5.67 -5.28,-5.72 -0.25,1.08 -2.47,4.81 -4.1,3.66 -1.31,-0.92 0.23,-1.93 0.68,-2.36 0.75,-0.75 1.01,-1.55 1.51,-2.48 -0.79,-0.19 -3.38,-1.26 -3.68,-1.93 -0.17,-0.38 -0.32,-1.82 -0.45,-2.36 -0.19,-0.72 -0.51,-1.34 -0.89,-1.91 -1.98,0 -3.91,1.63 -5.87,2.1 -1.02,0.25 -2.74,-0.04 -2.01,-1.56 0.11,-0.22 0.34,-0.38 0.57,-0.47l2.14 -0.66c1.62,-0.65 4.17,-2.38 6,-1.58 1.41,0.62 2.56,3.25 2.56,5.27 0.46,0.11 1.08,0.4 1.48,0.59 3.04,1.48 6.67,2.81 8.71,5.6 2.24,3.08 -0.2,9.15 -1.92,12.41 1.09,0.09 2.66,0.59 3.64,0.93 0.58,0.2 1.06,0.43 1.1,1.14 0.03,0.69 -0.44,1.15 -1.05,1.18 -1.78,0.1 -6.1,-3.13 -15.41,-0.06 -1.46,0.48 -4.86,2.01 -5.7,3.15 1.87,0 8.8,-0.23 9.92,0.12 3.63,1.14 2,5.21 1.59,6.97 0.54,-0.01 0.75,-0.15 1.24,-0.24 0.4,-0.07 0.95,-0.1 1.34,-0.15 0.55,-0.07 2.05,0.13 2.58,0.25 2.25,0.5 3.63,1.56 5.16,2.96l9.03 8.98c0.31,0.35 0.9,0.75 1.02,1.34z"/>
   <path fill="black" d="M0 0.89c0,1.79 1.23,1.32 3.69,1.32l14.17 0c3.52,0 5.79,-0.13 7.71,1.59 0.89,0.79 1.49,1.54 1.97,2.75 0.35,0.88 0.88,3.34 -0.38,3.34l-10.33 0c-1.67,0 -0.6,-1.66 -1.39,-3.49 -0.42,-0.97 -1.59,-1.97 -2.89,-1.97l-11.66 0c-0.46,0 -0.82,0.46 -0.89,0.97l0 0.34c0.04,0.31 0.21,0.61 0.56,0.79 1.03,0.53 11.48,-0.42 12.52,0.46 0.79,0.66 -0.19,3 1.5,4.4 0.47,0.39 1.3,0.86 2.1,0.86l10.18 0c1.78,0 3.4,-1.38 3.4,-3.1 0,-5.25 -4.14,-9.15 -8.41,-9.15l-20.96 0c-0.36,0 -0.89,0.53 -0.89,0.89z"/>
   <path fill="black" d="M0 54.91l0 19.78c0,1.17 2.21,1.17 2.21,0l0 -18.45c1.39,0 3.88,0.23 4.44,-0.29 0.5,-0.48 0.49,-1.93 -0.75,-1.93l-5.01 0c-0.36,0 -0.89,0.53 -0.89,0.89z"/>
   <path fill="black" d="M15.65 15.94l0 15.06c0,2.23 2.36,1.83 2.36,0.29l0 -15.64c0,-1.54 -2.36,-1.92 -2.36,0.29z"/>
   <path fill="black" d="M20.81 15.5l0 10.77c0,1.58 2.22,1.17 2.22,0.15l0 -10.92c0,-1.46 -2.22,-1.46 -2.22,0z"/>
   <path fill="black" d="M25.83 15.65l0 7.67c0,0.97 2.36,1.78 2.36,-0.59l0 -6.79c0,-2.21 -2.36,-1.83 -2.36,-0.29z"/>
   <path fill="black" d="M67.31 51.66c0,0.88 2.2,1.9 3.5,3 0.64,0.54 3.08,3.05 3.43,3.05 1,0 1.33,-0.33 1.33,-1.33 0,-0.45 -1.1,-1.51 -1.44,-1.8 -1.2,-1.06 -4.49,-4.1 -5.64,-4.1 -0.7,0 -1.18,0.6 -1.18,1.18z"/>
   <path fill="black" d="M40.44 34.83c0,1.25 1.32,1.63 2.16,0.54 0.7,-0.91 1.68,-2.74 1.68,-3.93 0,-1.09 -1.75,-1.57 -2.2,-0.29 -0.18,0.49 -0.25,0.91 -0.43,1.35 -0.62,1.57 -1.21,1.45 -1.21,2.33z"/>
  </g>
 </g>
</svg>
