<?xml version="1.0" encoding="UTF-8"?>
<!DOCTYPE svg PUBLIC "-//W3C//DTD SVG 1.1//EN" "http://www.w3.org/Graphics/SVG/1.1/DTD/svg11.dtd">
<!-- Creator: CorelDRAW -->
<svg xmlns="http://www.w3.org/2000/svg" xml:space="preserve" width="1600px" height="1382px" version="1.1" shape-rendering="geometricPrecision" text-rendering="geometricPrecision" image-rendering="optimizeQuality" fill-rule="evenodd" clip-rule="evenodd"
viewBox="0 0 66.24 57.23"
 xmlns:xlink="http://www.w3.org/1999/xlink"
 xmlns:xodm="http://www.corel.com/coreldraw/odm/2003">
 <g id="Слой_x0020_1">
  <metadata id="CorelCorpID_0Corel-Layer"/>
  <path fill="black" d="M6.99 25.01zm-5.05 1.55l5.05 -1.55zm59.25 -14.59l0 8.77 0 4.95c-0.18,2.1 -0.99,3.3 -4.03,5.25 -1.99,1.26 -7.81,4.25 -9.81,4.29 0.37,1.6 0.7,3.32 1.02,4.93 0.23,1.1 1.94,8.95 1.96,9.82 0.12,4.15 -2.74,5.15 -5.77,6.01 -1.31,0.37 -8.35,2.79 -8.99,2.79 -0.68,0 -2.56,-1.56 1.3,-2.46l-2.14 -10.54c-0.27,-1.18 -0.83,-2.69 0.25,-3 1.47,-0.43 1.49,1.4 1.71,2.47 0.24,1.23 0.47,2.24 0.71,3.43l1.41 6.99 6.23 -1.92c2.51,-0.77 3.71,-1.67 3.12,-4.58l-2.75 -13.42c-0.7,0.01 -1.87,0.29 -2.61,0.37 -1.62,0.17 -7.19,-0.18 -8.13,-0.63 0.25,1.05 0.43,2.14 0.66,3.22 0.05,0.24 0.82,2.58 -1.02,2.2 -0.87,-0.18 -0.92,-1.65 -1.12,-2.65 -0.18,-0.93 -0.59,-2.24 -0.59,-3.16l-12.11 -3.8c-3.07,-1.01 -9.43,-3.77 -11.95,-3.84 -3.31,-0.09 -5.34,0.94 -8.59,1.9 -0.63,0.19 -4.79,2.21 -5,-0.94l0 -13.81c0.01,-1.44 0.01,-2.88 0,-4.28l0 -0.68c0.07,-1.82 1.28,-2.44 2.74,-2l4.04 1.27c6.64,2.2 6.81,1.66 12.77,-0.33 5.9,-1.96 9.33,-3.48 15.63,-5.33 4.37,-1.29 5.15,-1.05 8.88,-1.59 4.06,-0.6 3.27,1.28 2.82,1.65 -0.53,0.43 -1.47,0.34 -2.38,0.34 -5.68,-0.03 -16.83,4.07 -22.62,6.23l-3.77 1.4c0,1.76 0.36,4.43 -0.8,4.65 -1.69,0.32 -1.27,-2.05 -1.27,-4l-2.36 0.35c-0.92,0.13 -1.67,-0.01 -2.42,-0.09 -0.83,-0.09 -1.5,-0.24 -2.26,-0.46 -0.63,-0.18 -1.46,-0.53 -2.01,-0.57 0.15,0.55 2.34,2.98 2.33,7.76 0,1.46 -0.33,3.19 -0.71,4.34 -0.18,0.54 -0.49,1.3 -0.71,1.74 -0.28,0.54 -0.63,1.01 -0.91,1.55 0.89,-0.07 2.37,-0.85 4.28,-1.02 3.2,-0.29 2.65,0.07 4.77,0.25 0,-1.56 0,-3.11 0,-4.66 0,-1.36 -0.4,-3.71 1.37,-3.2 0.68,0.2 0.71,0.82 0.71,1.64l-0.01 6.99c0.54,0.05 8.24,2.88 8.91,3.13 5.77,2.15 10.31,3.54 16.49,4.34 0.51,0.07 0.99,0 1.5,0.05 2.9,0.33 6.14,-0.44 8.8,-1.32l2.21 -0.76 0 -26.27c-0.47,-0.04 -1.42,-0.47 -1.83,-0.63 -0.6,-0.22 -1.14,-0.36 -1.77,-0.55 -1.53,-0.45 -3.28,-0.51 -3.57,-1.23 -0.29,-0.75 0.27,-1.34 0.86,-1.41 0.27,-0.03 1.5,0.26 1.89,0.35 3.64,0.91 6.83,2.13 9.96,4.14 1.93,1.24 4,2.42 4.59,4.86 0.04,0.17 0.07,0.41 0.09,0.71zm-64.3 16.14l0 -18.5c3.86,2.04 5.31,5.18 5.31,9.71 0,2.37 -1,4.95 -2.24,6.43 -0.92,1.09 -1.81,1.7 -3.07,2.36zm58.35 -14.23c0,1.44 1.89,1.04 4.01,1.04l0 2.97c-2.88,0 -4.01,-0.41 -4.01,1.17 0,1.14 2.46,0.77 4.01,0.77l0 2.98c-2.12,0 -4.01,-0.4 -4.01,1.03 0,1.42 2.02,1.04 4.01,1.04 0,2.26 -1.07,2.84 -2.4,3.81 -0.81,0.58 -2.97,2.05 -3.94,2.27l0 -24.19c0.88,0.2 3.14,1.72 3.94,2.27 1.32,0.91 2.4,1.62 2.4,3.81 -1.84,0 -4.01,-0.39 -4.01,1.03zm-53.3 -2.71zm0 15.39l0 -15.39z"/>
 </g>
</svg>
