<?xml version="1.0" encoding="UTF-8"?>
<!DOCTYPE svg PUBLIC "-//W3C//DTD SVG 1.1//EN" "http://www.w3.org/Graphics/SVG/1.1/DTD/svg11.dtd">
<!-- Creator: CorelDRAW -->
<svg xmlns="http://www.w3.org/2000/svg" xml:space="preserve" width="1394px" height="1600px" version="1.1" shape-rendering="geometricPrecision" text-rendering="geometricPrecision" image-rendering="optimizeQuality" fill-rule="evenodd" clip-rule="evenodd"
viewBox="0 0 144.9 166.35"
 xmlns:xlink="http://www.w3.org/1999/xlink"
 xmlns:xodm="http://www.corel.com/coreldraw/odm/2003">
 <g id="Слой_x0020_1">
  <metadata id="CorelCorpID_0Corel-Layer"/>
  <g id="_2780363796128">
   <path fill="black" d="M71.15 62.38zm0 0zm19.14 103.97l-1.11 0c-1.84,-0.38 -2.82,-2.62 -0.74,-4.81 4.48,-4.7 5.16,-5.37 8.84,-10.98l5.07 -9.88c0.36,-0.92 1.07,-2.63 1.29,-3.57 -1.33,-0.31 -1.82,-0.65 -3.12,-1.11 -12.07,-4.21 -23.27,-2.2 -21.38,-7.11 0.89,-2.35 3.31,-1.8 6.18,-1.4 6.24,0.87 10.97,1.8 16.74,3.72 1.05,0.35 1.93,0.8 2.88,1.02 0.82,-1.71 1.65,-8.31 1.9,-10.77 0.85,-8.18 0.38,-51.77 0.38,-62.98 0,-7.81 0.24,-10.22 -1.56,-17.29 -0.41,-1.63 -1.24,-3.28 -1.37,-4.8 -0.82,0.6 -1.26,3.16 -1.98,5.16 -1.13,3.14 -3.03,6.62 -4.98,9.32 -2.29,3.18 -3.88,4.73 -6.78,7.19 -1.31,1.1 -2.44,1.97 -3.94,2.88 -3.11,1.91 -5.83,3.12 -9.43,4.55l-39.49 16.38c0,4.23 0,8.45 0,12.67 0,1.68 1.14,11.02 -3.63,8.53 -2.49,-1.3 -1.57,-7.55 -1.57,-11.12 0,-4.23 0,-8.45 0,-12.68 0,-9.65 -0.78,-26.74 1.22,-36.79 1.2,-6.06 4.26,-12.92 7.69,-17.65 0.95,-1.32 4.7,-6.27 5.93,-6.76 2.06,-0.83 3.86,0.22 3.71,2.39 -0.09,1.27 -0.46,1.28 -1.25,2.04 -4.32,4.16 -8.7,12.13 -10.34,17.92 -2.86,10.05 -1.76,24.56 -1.76,35.93l13.6 -5.57c2.21,-0.89 4.27,-2.33 6.24,-3.51 12.1,-7.27 19.66,-20.57 21.89,-35.28 0.41,-2.66 -0.29,-6.71 1.36,-8.08 1.14,-0.95 2.69,-0.58 3.46,0.37 0.77,0.95 0.6,2.68 0.57,4.32 -0.12,7.57 -2.91,16.13 -6.08,22.52 -1.11,2.24 -2.21,3.85 -3.55,5.87 -0.71,1.07 -1.26,1.9 -2.03,2.84 -0.84,1.03 -1.23,1.4 -2,2.55 3.07,-0.72 11.22,-4.62 13.59,-6.23 8.62,-5.89 13.26,-13.99 14.87,-24.77 0.35,-2.28 0.38,-2.88 -0.69,-4.24l-4.48 -5.27c-0.86,-1.04 -0.78,-2.82 0.21,-3.57 2.73,-2.07 5.05,1.91 6.15,3.06 4.24,4.44 8.56,13.3 10.06,19.5 2.46,10.17 1.55,43.5 1.55,57.91 0,15.57 0.44,29.58 -5.56,44.14 -0.89,2.15 -1.93,4.61 -3.15,6.61 -1.9,3.15 -10.01,15.9 -13.15,16.77 -0.09,0.02 -0.17,0.04 -0.26,0.06z"/>
   <path fill="black" d="M0 115.34c0,9.14 0.52,13.74 3.67,21.67 4.86,12.29 16.32,22.37 28.45,26.78 3.28,1.19 10.7,4.87 10.91,0.23 0.06,-1.36 -0.94,-2.23 -1.85,-3.12 -1.78,-1.74 -3.1,-3.42 -4.69,-5.38 -7.43,-9.12 -11.47,-20.6 -12.83,-32.65l-0.58 -9.82c-0.22,-2.86 -3.82,-3.51 -4.84,-0.89 -0.44,1.12 0.2,9.6 0.31,10.95 0.85,10.48 4.8,21.53 10.3,30.3 1.1,1.75 2.22,3.18 3.31,4.81 -4.71,-1.09 -14.56,-8.61 -17.87,-12.98 -8.46,-11.19 -10.34,-21.72 -8.77,-36.08 0.73,-6.6 9.89,-40.15 12.64,-49.42 2.11,-7.14 4.21,-17.42 7.09,-24.1 2.53,-5.87 8.13,-13.95 13.09,-17.77l4.36 -3.44c1.7,-1.23 3.01,-1.92 4.8,-3 11.92,-7.2 29.08,-8.32 41.85,-3.63 9.33,3.43 17.45,8.93 23.58,16.7 1.97,2.5 4.33,6.22 5.76,9.19 2.16,4.47 5.4,1.86 5.32,-0.18 -0.04,-1.3 -2.92,-6.05 -3.73,-7.26 -2.42,-3.59 -4.15,-6.14 -7.3,-9.27 -1.95,-1.95 -3.61,-3.52 -5.86,-5.19 -4.48,-3.34 -8.27,-5.69 -13.82,-7.94 -5.69,-2.31 -11.69,-3.56 -17.71,-3.85l-5.47 0c-12.2,0.58 -24.15,5.04 -33.46,12.62l-11.04 12.02c-3.22,4.64 -5.96,10.38 -7.5,15.9l-14.8 54.72c-1.59,6.19 -3.32,12.37 -3.32,20.08z"/>
   <path fill="black" d="M122.16 41.91c0,1.8 1.47,6.3 1.95,8.13 3.54,13.49 12.7,44.8 14.76,55.74 3.36,17.92 -1.02,33.81 -13.38,44.73 -2.21,1.95 -9.75,7.01 -12.75,7.71 5.13,-7.66 7.91,-11.41 10.84,-21.32 1.24,-4.2 2.28,-8.8 2.75,-13.49l0.42 -11.01c-0.88,-2.91 -4.56,-2.27 -4.9,0.35 -0.13,0.97 -0.14,6.85 -0.52,9.55 -1.84,12.88 -4.75,23.02 -12.77,33.05 -1.53,1.9 -2.92,3.67 -4.68,5.39 -0.79,0.78 -1.92,1.67 -2,3.06 -0.29,5.12 8.52,0.83 10.66,0.07 4.72,-1.67 10.2,-4.86 14.17,-7.92 10.33,-7.93 18.19,-21.04 18.19,-37.04 0,-13.89 -2.49,-20.84 -5.91,-33.4l-10.19 -37.56c-1.22,-4.3 -1.32,-7.99 -4.04,-7.99 -1.81,0 -2.6,1.6 -2.6,1.95z"/>
   <path fill="black" d="M54.58 166.35c2.51,0 3.39,-1.4 2.99,-3 -0.36,-1.46 -1.77,-2.45 -2.75,-3.41 -0.7,-0.7 -0.73,-0.78 -1.35,-1.58 -0.56,-0.72 -0.83,-0.88 -1.39,-1.53 -3.5,-4.09 -9.58,-14.41 -10.82,-19.72 1.54,-0.36 2.72,-0.98 4.34,-1.51 8.31,-2.71 16.87,-3.52 25.57,-3.68 5.59,-0.1 4.15,-5.21 0.96,-5.21 -9.5,0 -19.84,1.35 -28.55,4.26 -1.04,0.35 -2.6,1.03 -3.62,1.26 -1.21,-2.53 -2.31,-13.79 -2.26,-17.55 0.01,-1.43 0.14,-4.22 -2.61,-4.22 -3.36,0 -2.26,4.96 -2.28,7.15 -0.02,3.41 0.49,6.42 0.88,9.2 0.84,5.91 2.38,11.21 4.27,15.87 1.96,4.82 4.27,9.02 7.07,13.08 1.18,1.71 7.99,10.59 9.55,10.59z"/>
  </g>
 </g>
</svg>
